####
#
# OBJ File Generated by Meshlab
#
####
# Object tabletop_link.obj
#
# Vertices: 8
# Faces: 12
#
####
v 0.369000 -0.609600 0.000000
v 0.369000 0.609600 0.000000
v 0.369000 -0.609600 0.020000
v 0.369000 0.609600 0.020000
v -0.380000 -0.609600 0.000000
v -0.380000 -0.609600 0.020000
v -0.380000 0.609600 0.000000
v -0.380000 0.609600 0.020000
vn 0.026678 -0.032779 -0.999106
vn 0.026692 0.008199 -0.999610
vn 0.026692 -0.008199 0.999610
vn 0.026678 0.032779 0.999106
vn -0.026692 -0.008199 -0.999610
vn -0.026678 -0.032779 0.999106
vn -0.026678 0.032779 -0.999106
vn -0.026692 0.008199 0.999610
# 8 vertices, 0 vertices normals

f 1//1 2//2 3//3
f 3//3 2//2 4//4
f 5//5 1//1 6//6
f 6//6 1//1 3//3
f 7//7 5//5 8//8
f 8//8 5//5 6//6
f 2//2 7//7 4//4
f 4//4 7//7 8//8
f 4//4 8//8 3//3
f 3//3 8//8 6//6
f 7//7 2//2 5//5
f 5//5 2//2 1//1
# 12 faces, 0 coords texture

# End of File
