####
#
# OBJ File Generated by Meshlab
#
####
# Object base_link.obj
#
# Vertices: 344
# Faces: 680
#
####
v 0.008027 0.016668 0.057250
v 0.004117 0.018036 0.057250
v -0.018500 0.000000 0.057250
v 0.018036 0.004117 0.057250
v -0.014464 -0.011535 0.057250
v 0.018500 -0.000000 0.057250
v 0.018036 -0.004117 0.057250
v -0.018036 -0.004117 0.057250
v -0.016668 -0.008027 0.057250
v 0.014464 0.011535 0.057250
v 0.016668 0.008027 0.057250
v 0.011535 0.014464 0.057250
v -0.011535 -0.014464 0.057250
v -0.008027 -0.016668 0.057250
v -0.004117 -0.018036 0.057250
v -0.000000 -0.018500 0.057250
v 0.004117 -0.018036 0.057250
v 0.008027 -0.016668 0.057250
v 0.011535 -0.014464 0.057250
v 0.014464 -0.011535 0.057250
v 0.016668 -0.008027 0.057250
v -0.016668 0.008027 0.057250
v -0.004117 0.018036 0.057250
v -0.014464 0.011535 0.057250
v -0.008027 0.016668 0.057250
v -0.011535 0.014464 0.057250
v 0.000000 0.018500 0.057250
v -0.018036 0.004117 0.057250
v 0.018500 0.000000 0.057250
v 0.018500 0.000000 0.060250
v 0.018036 0.004117 0.060250
v 0.016668 0.008027 0.060250
v 0.014464 0.011535 0.060250
v 0.011535 0.014464 0.060250
v 0.008027 0.016668 0.060250
v 0.004117 0.018036 0.060250
v 0.000000 0.018500 0.060250
v -0.004117 0.018036 0.060250
v -0.008027 0.016668 0.060250
v -0.011535 0.014464 0.060250
v -0.014464 0.011535 0.060250
v -0.016668 0.008027 0.060250
v -0.018036 0.004117 0.060250
v -0.018500 0.000000 0.060250
v 0.035218 0.011000 0.004000
v 0.037218 0.011000 0.006000
v 0.035218 -0.011000 0.004000
v 0.037218 -0.011000 0.006000
v 0.035218 0.012500 0.004402
v 0.037218 0.011500 0.006134
v 0.035218 0.013598 0.005500
v 0.037218 0.011866 0.006500
v 0.035218 0.014000 0.007000
v 0.037218 0.012000 0.007000
v 0.037218 -0.012000 0.007000
v 0.035218 -0.014000 0.007000
v 0.035218 -0.013598 0.005500
v 0.037218 -0.011866 0.006500
v 0.035218 -0.012500 0.004402
v 0.037218 -0.011500 0.006134
v 0.037218 0.012000 0.043125
v 0.035218 0.014000 0.043125
v 0.035218 -0.014000 0.043125
v 0.037218 -0.012000 0.043125
v 0.035218 0.013598 0.044625
v 0.037218 0.011866 0.043625
v 0.035218 0.012500 0.045723
v 0.037218 0.011500 0.043991
v 0.035218 0.011000 0.046125
v 0.037218 0.011000 0.044125
v 0.037218 -0.011000 0.044125
v 0.035218 -0.011000 0.046125
v 0.035218 -0.012500 0.045723
v 0.037218 -0.011500 0.043991
v 0.035218 -0.013598 0.044625
v 0.037218 -0.011866 0.043625
v 0.031218 0.011000 0.046125
v 0.031218 -0.011000 0.046125
v 0.031218 0.014000 0.043125
v 0.031218 0.013598 0.044625
v 0.031218 0.012500 0.045723
v 0.031218 0.014000 0.007000
v 0.032500 0.011000 0.004000
v 0.031218 0.011000 0.004000
v 0.031218 0.012500 0.004402
v 0.031218 0.013598 0.005500
v 0.032500 -0.011000 0.004000
v 0.031218 -0.014000 0.007000
v 0.031218 -0.013598 0.005500
v 0.031218 -0.012500 0.004402
v 0.031218 -0.011000 0.004000
v 0.031218 -0.014000 0.043125
v 0.031218 -0.012500 0.045723
v 0.031218 -0.013598 0.044625
v -0.027500 -0.030100 0.000000
v -0.026200 -0.029752 0.000000
v 0.024900 -0.027500 0.000000
v -0.025248 -0.028800 0.000000
v 0.025248 -0.026200 0.000000
v -0.024900 -0.027500 0.000000
v -0.032500 -0.027500 0.000000
v -0.032500 0.027500 0.000000
v -0.028800 -0.025248 0.000000
v 0.028800 -0.029752 0.000000
v 0.029752 -0.028800 0.000000
v 0.032119 -0.029413 0.000000
v 0.032500 -0.027500 0.000000
v -0.025248 -0.026200 0.000000
v 0.027500 0.024900 0.000000
v 0.032500 0.027500 0.000000
v 0.028800 0.025248 0.000000
v -0.029752 -0.028800 0.000000
v -0.032119 -0.029413 0.000000
v -0.030100 -0.027500 0.000000
v -0.029752 -0.026200 0.000000
v 0.027500 -0.032500 0.000000
v -0.027500 -0.032500 0.000000
v 0.025248 -0.028800 0.000000
v -0.029752 0.028800 0.000000
v -0.030100 0.027500 0.000000
v -0.029752 0.026200 0.000000
v -0.028800 0.025248 0.000000
v -0.027500 -0.024900 0.000000
v -0.027500 0.024900 0.000000
v -0.026200 -0.025248 0.000000
v -0.026200 0.025248 0.000000
v 0.024900 0.027500 0.000000
v -0.025248 0.026200 0.000000
v 0.025248 0.028800 0.000000
v -0.024900 0.027500 0.000000
v 0.026200 0.029752 0.000000
v 0.027500 0.030100 0.000000
v 0.029752 0.026200 0.000000
v 0.030100 0.027500 0.000000
v 0.032119 0.029413 0.000000
v 0.029752 0.028800 0.000000
v 0.031036 0.031036 0.000000
v 0.028800 0.029752 0.000000
v -0.027500 0.032500 0.000000
v 0.027500 0.032500 0.000000
v -0.025248 0.028800 0.000000
v -0.028800 -0.029752 0.000000
v -0.029413 -0.032119 0.000000
v -0.031036 -0.031036 0.000000
v 0.031036 -0.031036 0.000000
v 0.029413 -0.032119 0.000000
v 0.027500 -0.030100 0.000000
v 0.026200 -0.029752 0.000000
v 0.030100 -0.027500 0.000000
v 0.029752 -0.026200 0.000000
v 0.028800 -0.025248 0.000000
v 0.027500 -0.024900 0.000000
v 0.026200 -0.025248 0.000000
v 0.029413 0.032119 0.000000
v -0.032119 0.029413 0.000000
v -0.031036 0.031036 0.000000
v -0.028800 0.029752 0.000000
v -0.029413 0.032119 0.000000
v -0.027500 0.030100 0.000000
v -0.026200 0.029752 0.000000
v 0.025248 0.026200 0.000000
v 0.026200 0.025248 0.000000
v 0.030100 -0.027500 0.004000
v 0.029752 -0.026200 0.004000
v 0.028800 -0.025248 0.004000
v 0.027500 -0.024900 0.004000
v 0.026200 -0.025248 0.004000
v 0.025248 -0.026200 0.004000
v 0.024900 -0.027500 0.004000
v -0.029752 -0.028800 0.004000
v -0.030100 -0.027500 0.004000
v -0.032500 -0.027500 0.004000
v 0.029718 0.016598 0.004000
v 0.030816 0.015500 0.004000
v 0.032500 0.027500 0.004000
v 0.031218 0.014000 0.004000
v 0.026200 0.025248 0.004000
v 0.005028 0.028053 0.004000
v 0.009897 0.026726 0.004000
v 0.027500 -0.032500 0.004000
v 0.029413 -0.032119 0.004000
v 0.028800 -0.029752 0.004000
v 0.031036 -0.031036 0.004000
v 0.029752 -0.028800 0.004000
v 0.032119 -0.029413 0.004000
v 0.032500 -0.027500 0.004000
v 0.024218 -0.017000 0.004000
v 0.023038 -0.017266 0.004000
v 0.022087 -0.018012 0.004000
v -0.030816 0.015500 0.004000
v -0.029718 0.016598 0.004000
v -0.032500 0.027500 0.004000
v 0.025248 0.026200 0.004000
v 0.024900 0.027500 0.004000
v -0.027500 0.032500 0.004000
v 0.025248 0.028800 0.004000
v 0.027500 0.032500 0.004000
v 0.031218 -0.014000 0.004000
v 0.030816 -0.015500 0.004000
v 0.029718 -0.016598 0.004000
v 0.028218 -0.017000 0.004000
v -0.028218 -0.017000 0.004000
v -0.029718 -0.016598 0.004000
v -0.027500 -0.024900 0.004000
v -0.025248 -0.028800 0.004000
v -0.026200 -0.029752 0.004000
v -0.027500 -0.032500 0.004000
v -0.027500 -0.030100 0.004000
v -0.029413 -0.032119 0.004000
v -0.028800 -0.029752 0.004000
v -0.031036 -0.031036 0.004000
v -0.032119 -0.029413 0.004000
v -0.029752 -0.026200 0.004000
v -0.028800 -0.025248 0.004000
v -0.031218 -0.014000 0.004000
v 0.014457 0.024561 0.004000
v 0.018563 0.021626 0.004000
v 0.027500 0.024900 0.004000
v 0.022087 0.018012 0.004000
v 0.023038 0.017266 0.004000
v 0.028800 0.029752 0.004000
v 0.029413 0.032119 0.004000
v 0.027500 0.030100 0.004000
v 0.026200 0.029752 0.004000
v -0.000000 -0.028500 0.004000
v 0.025248 -0.028800 0.004000
v 0.005028 -0.028053 0.004000
v 0.009897 -0.026726 0.004000
v 0.027500 -0.030100 0.004000
v 0.026200 -0.029752 0.004000
v -0.024900 -0.027500 0.004000
v -0.005028 -0.028053 0.004000
v 0.024218 0.017000 0.004000
v 0.028218 0.017000 0.004000
v 0.028800 0.025248 0.004000
v 0.029752 0.026200 0.004000
v 0.030100 0.027500 0.004000
v -0.030816 -0.015500 0.004000
v -0.024218 -0.017000 0.004000
v -0.026200 -0.025248 0.004000
v -0.023038 -0.017266 0.004000
v 0.029752 0.028800 0.004000
v 0.032119 0.029413 0.004000
v 0.031036 0.031036 0.004000
v 0.018563 -0.021626 0.004000
v 0.014457 -0.024561 0.004000
v -0.026200 0.025248 0.004000
v -0.022087 0.018012 0.004000
v -0.025248 0.026200 0.004000
v -0.018563 0.021626 0.004000
v -0.024900 0.027500 0.004000
v -0.014457 0.024561 0.004000
v -0.023038 0.017266 0.004000
v -0.024218 0.017000 0.004000
v -0.028218 0.017000 0.004000
v -0.027500 0.024900 0.004000
v -0.028800 0.025248 0.004000
v -0.029752 0.026200 0.004000
v -0.030100 0.027500 0.004000
v -0.032119 0.029413 0.004000
v -0.029752 0.028800 0.004000
v -0.031036 0.031036 0.004000
v -0.026200 0.029752 0.004000
v -0.025248 0.028800 0.004000
v -0.031218 0.014000 0.004000
v -0.009897 -0.026726 0.004000
v -0.014457 -0.024561 0.004000
v -0.025248 -0.026200 0.004000
v -0.018563 -0.021626 0.004000
v -0.022087 -0.018012 0.004000
v -0.029413 0.032119 0.004000
v -0.028800 0.029752 0.004000
v -0.027500 0.030100 0.004000
v 0.000000 0.028500 0.004000
v -0.005028 0.028053 0.004000
v -0.009897 0.026726 0.004000
v -0.016668 -0.008027 0.060250
v -0.018036 -0.004117 0.060250
v -0.023038 -0.017266 0.060250
v 0.018500 -0.000000 0.060250
v 0.024218 0.017000 0.060250
v 0.023038 0.017266 0.060250
v -0.024218 -0.017000 0.060250
v -0.018500 0.000000 0.060250
v -0.028218 -0.017000 0.060250
v 0.023038 -0.017266 0.060250
v 0.024218 -0.017000 0.060250
v 0.028218 -0.017000 0.060250
v 0.029718 -0.016598 0.060250
v 0.031218 0.014000 0.060250
v 0.030816 0.015500 0.060250
v 0.029718 0.016598 0.060250
v -0.023038 0.017266 0.060250
v -0.024218 0.017000 0.060250
v -0.028218 0.017000 0.060250
v -0.029718 0.016598 0.060250
v 0.030816 -0.015500 0.060250
v 0.031218 -0.014000 0.060250
v 0.028218 0.017000 0.060250
v -0.030816 -0.015500 0.060250
v -0.029718 -0.016598 0.060250
v -0.031218 -0.014000 0.060250
v -0.031218 0.014000 0.060250
v -0.030816 0.015500 0.060250
v -0.014464 -0.011535 0.060250
v -0.022087 -0.018012 0.060250
v -0.011535 -0.014464 0.060250
v -0.018563 -0.021626 0.060250
v -0.008027 -0.016668 0.060250
v -0.022087 0.018012 0.060250
v -0.018563 0.021626 0.060250
v -0.014457 0.024561 0.060250
v -0.009897 0.026726 0.060250
v 0.022087 0.018012 0.060250
v 0.018563 0.021626 0.060250
v 0.004117 -0.018036 0.060250
v 0.009897 -0.026726 0.060250
v 0.008027 -0.016668 0.060250
v 0.014457 -0.024561 0.060250
v 0.011535 -0.014464 0.060250
v 0.018563 -0.021626 0.060250
v 0.014464 -0.011535 0.060250
v 0.022087 -0.018012 0.060250
v 0.016668 -0.008027 0.060250
v 0.018036 -0.004117 0.060250
v -0.014457 -0.024561 0.060250
v -0.009897 -0.026726 0.060250
v -0.004117 -0.018036 0.060250
v -0.005028 -0.028053 0.060250
v -0.000000 -0.018500 0.060250
v -0.000000 -0.028500 0.060250
v 0.005028 -0.028053 0.060250
v 0.014457 0.024561 0.060250
v 0.009897 0.026726 0.060250
v 0.005028 0.028053 0.060250
v 0.000000 0.018500 0.060250
v 0.000000 0.028500 0.060250
v -0.005028 0.028053 0.060250
v 0.000000 0.028500 0.060250
v 0.000000 0.028500 0.004000
v -0.000000 -0.028500 0.060250
v -0.000000 -0.028500 0.004000
v -0.000000 -0.018500 0.060250
v 0.018500 -0.000000 0.060250
vn -0.078222 -0.147967 0.985894
vn -0.050562 -0.188614 0.980749
vn 0.053393 -0.002006 0.998572
vn -0.124803 -0.023596 0.991901
vn 0.035421 0.026132 0.999031
vn -0.090629 0.010214 0.995832
vn -0.057257 0.015349 0.998241
vn 0.124803 0.023596 0.991901
vn 0.112126 0.048897 0.992490
vn -0.041124 -0.030340 0.998693
vn -0.112126 -0.048897 0.992490
vn -0.096729 -0.112375 0.988947
vn 0.109184 0.126844 0.985895
vn 0.091269 0.172647 0.980746
vn 0.061240 0.228445 0.971629
vn 0.011217 0.298577 0.954320
vn -0.073384 0.388145 0.918672
vn -0.217012 0.497633 0.839802
vn -0.442071 0.599209 0.667475
vn -0.702017 0.604277 0.376858
vn -0.879415 0.464900 0.102453
vn 0.479968 -0.253734 0.839792
vn 0.036123 -0.191062 0.980913
vn 0.536065 -0.461430 0.706906
vn 0.370262 -0.849053 0.376848
vn 0.590551 -0.800468 0.102474
vn -0.008879 -0.236342 0.971629
vn 0.381532 -0.102279 0.918680
vn -0.993709 -0.111994 0.000000
vn -0.993709 -0.111994 0.000000
vn -0.383058 -0.102688 0.917999
vn -0.370771 -0.196007 0.907805
vn -0.273397 -0.235332 0.932670
vn -0.159919 -0.216763 0.963037
vn -0.079084 -0.181348 0.980234
vn -0.049704 -0.262892 0.963544
vn 0.037541 -0.999295 0.000000
vn 0.051197 -0.190981 0.980258
vn 0.124927 -0.236314 0.963613
vn 0.174614 -0.202858 0.963514
vn 0.216154 -0.159469 0.963248
vn 0.342295 -0.149270 0.927660
vn 0.491181 -0.092865 0.866093
vn 0.999295 0.037541 0.000000
vn 0.257045 0.019167 -0.966209
vn 0.998795 0.000572 -0.049073
vn 0.508256 -0.011959 -0.861123
vn 0.831536 -0.003308 -0.555460
vn 0.269270 0.525481 -0.807071
vn 0.711920 0.443216 -0.544729
vn 0.269262 0.858606 -0.436227
vn 0.735642 0.632935 -0.241296
vn 0.444801 0.895593 -0.008027
vn 0.831736 0.555168 -0.002031
vn 0.989192 -0.146620 -0.001058
vn 0.196105 -0.980527 -0.010476
vn 0.269270 -0.807071 -0.525481
vn 0.711920 -0.544729 -0.443216
vn 0.290094 -0.448616 -0.845334
vn 0.735642 -0.241296 -0.632935
vn 0.991012 0.133771 0.000966
vn 0.196105 0.980527 0.010476
vn 0.444801 -0.895593 0.008027
vn 0.999210 -0.039746 0.000145
vn 0.269270 0.807071 0.525481
vn 0.711920 0.544729 0.443216
vn 0.269262 0.436227 0.858606
vn 0.735642 0.241296 0.632935
vn 0.443317 0.012914 0.896272
vn 0.897090 0.002631 0.441839
vn 0.779518 -0.007298 0.626338
vn 0.196089 -0.016772 0.980443
vn 0.269270 -0.525481 0.807071
vn 0.711920 -0.443216 0.544729
vn 0.269262 -0.858606 0.436227
vn 0.735642 -0.632935 0.241296
vn 0.870866 0.008407 0.491448
vn 0.991779 -0.002189 0.127946
vn 0.660523 0.750780 0.006206
vn 0.804550 0.538691 0.250022
vn 0.911281 0.236803 0.336884
vn 0.185798 0.982537 -0.009977
vn 0.994094 0.004274 -0.108439
vn 0.518119 0.221409 0.826154
vn 0.179342 0.414169 -0.892357
vn 0.179347 0.804842 -0.565741
vn 0.937133 -0.019570 -0.348424
vn 0.338963 -0.940756 -0.009100
vn 0.179342 -0.892357 -0.414169
vn 0.162908 -0.539369 -0.826161
vn 0.518119 -0.221409 0.826154
vn 0.444339 -0.895820 0.008350
vn 0.911277 -0.173363 0.373524
vn 0.804558 -0.485852 0.341516
vn 0.006500 0.072840 -0.997322
vn -0.104096 0.224363 -0.968930
vn 0.079693 -0.007111 -0.996794
vn -0.072538 0.050985 -0.996062
vn 0.072538 -0.050985 -0.996062
vn -0.005528 0.000493 -0.999985
vn -0.903308 -0.003075 -0.428981
vn -0.552855 0.007161 -0.833247
vn 0.014362 -0.030954 -0.999418
vn -0.297698 0.641641 -0.706875
vn -0.675198 0.474577 -0.564698
vn 0.786250 -0.388172 -0.480764
vn 0.739237 -0.005788 -0.673421
vn -0.038673 -0.017943 -0.999091
vn 0.000478 0.005359 -0.999986
vn 0.810007 0.004204 -0.586405
vn -0.014362 0.030954 -0.999418
vn 0.641641 0.297698 -0.706875
vn -0.834018 -0.282394 -0.473991
vn 0.815054 -0.072728 -0.574802
vn 0.786346 -0.552700 -0.276012
vn 0.003075 -0.903308 -0.428981
vn -0.007401 -0.571359 -0.820667
vn 0.035449 0.016447 -0.999236
vn 0.577154 -0.405665 -0.708752
vn 0.925307 -0.082566 -0.370123
vn 0.074010 0.034338 -0.996666
vn 0.050284 0.071541 -0.996169
vn -0.007111 -0.079693 -0.996794
vn 0.000502 0.005621 -0.999984
vn -0.003129 -0.004452 -0.999985
vn -0.104096 0.224363 -0.968930
vn 0.005489 -0.000490 -0.999985
vn -0.072538 0.050985 -0.996062
vn 0.072538 -0.050985 -0.996062
vn -0.079693 0.007111 -0.996794
vn 0.104096 -0.224363 -0.968930
vn -0.006500 -0.072840 -0.997322
vn -0.786346 0.552700 -0.276012
vn -0.815054 0.072728 -0.574802
vn 0.834018 0.282394 -0.473991
vn -0.739061 -0.342898 -0.579836
vn 0.662885 0.580196 -0.473240
vn -0.405665 -0.577154 -0.708752
vn -0.003075 0.903308 -0.428981
vn 0.007401 0.571359 -0.820667
vn -0.035449 -0.016447 -0.999236
vn 0.474577 0.675198 -0.564698
vn -0.388172 -0.786250 -0.480764
vn -0.695273 -0.608544 -0.382453
vn 0.608544 -0.695273 -0.382453
vn 0.282394 -0.834018 -0.473991
vn 0.072728 0.815054 -0.574802
vn 0.552700 0.786346 -0.276012
vn -0.925307 0.082566 -0.370123
vn -0.074010 -0.034338 -0.996666
vn -0.050284 -0.071541 -0.996169
vn -0.000518 -0.005801 -0.999983
vn 0.104096 -0.224363 -0.968930
vn 0.410646 0.831772 -0.373529
vn -0.831772 0.410646 -0.373529
vn -0.580196 0.662885 -0.473240
vn 0.342898 -0.739061 -0.579836
vn -0.282394 0.834018 -0.473991
vn -0.072728 -0.815054 -0.574802
vn -0.552700 -0.786346 -0.276012
vn 0.050538 0.023448 -0.998447
vn 0.049113 0.069875 -0.996346
vn -0.815054 -0.072728 0.574802
vn -0.190164 -0.133661 0.972611
vn -0.139776 -0.301265 0.943240
vn 0.037971 -0.425532 0.904146
vn 0.120024 -0.170762 0.977975
vn 0.224341 -0.104086 0.968936
vn 0.111751 0.009972 0.993686
vn 0.577154 0.405665 0.708752
vn 0.925307 0.082566 0.370123
vn -0.895444 -0.011599 0.445024
vn 0.558127 0.794010 0.240921
vn 0.894146 0.436992 0.097676
vn 0.708739 0.026570 0.704971
vn 0.267874 0.035894 0.962785
vn 0.062018 0.133669 0.989084
vn 0.204843 0.975397 0.081484
vn 0.374416 0.925880 0.050589
vn 0.010666 -0.823390 0.567376
vn 0.410646 -0.831772 0.373529
vn -0.405665 0.577154 0.708752
vn 0.662885 -0.580196 0.473240
vn -0.739061 0.342898 0.579836
vn 0.834018 -0.282394 0.473991
vn 0.811296 -0.016787 0.584395
vn 0.050452 -0.982484 0.179390
vn 0.360091 -0.932912 0.003142
vn 0.694281 -0.712594 0.100911
vn -0.814954 0.572849 0.087709
vn -0.404958 0.872512 0.273372
vn -0.933502 0.003178 0.358558
vn 0.111847 0.078614 0.990611
vn 0.113755 0.010150 0.993457
vn -0.005679 0.438452 0.898737
vn 0.051631 -0.023955 0.998379
vn 0.003075 0.903308 0.428981
vn 0.885622 -0.118668 0.448990
vn 0.853574 -0.518270 0.052992
vn 0.417774 -0.900124 0.123455
vn 0.042060 -0.993945 0.101508
vn -0.113436 -0.987629 0.108260
vn -0.570666 -0.811849 0.123459
vn 0.020480 -0.229523 0.973088
vn -0.060051 0.027861 0.997806
vn -0.552700 0.786346 0.276012
vn -0.002536 -0.745013 0.667045
vn -0.072728 0.815054 0.574802
vn -0.282394 -0.834018 0.473991
vn 0.342898 0.739061 0.579836
vn -0.580196 -0.662885 0.473240
vn -0.831772 -0.410646 0.373529
vn 0.263659 -0.122328 0.956828
vn 0.240869 -0.342693 0.908044
vn -0.998818 -0.006983 0.048095
vn 0.530904 0.843895 0.077342
vn 0.669876 0.735196 0.103690
vn -0.012086 0.135445 0.990711
vn 0.689623 0.707813 0.153037
vn 0.492806 0.863953 0.103575
vn -0.297698 -0.641641 0.706875
vn 0.282394 0.834018 0.473991
vn 0.072728 -0.815054 0.574802
vn 0.552700 -0.786346 0.276012
vn 0.000000 0.000000 1.000000
vn 0.043450 0.030540 0.998589
vn 0.146793 -0.986438 0.073434
vn 0.318600 -0.945289 0.070155
vn -0.082566 0.925307 0.370123
vn 0.031603 0.068115 0.997177
vn -0.136618 -0.012191 0.990549
vn -0.205400 -0.978050 0.035067
vn 0.051153 0.996132 0.071443
vn 0.113034 0.984131 0.136781
vn -0.251344 0.357595 0.899417
vn -0.341295 0.158349 0.926522
vn -0.925307 -0.082566 0.370123
vn -0.906445 -0.420707 0.036902
vn -0.051071 -0.994548 0.090916
vn -0.078314 -0.168792 0.982536
vn -0.492950 -0.864205 0.100744
vn -0.675198 -0.474577 0.564698
vn 0.786250 0.388172 0.480764
vn 0.608544 0.695273 0.382453
vn 0.624773 -0.773127 0.109242
vn 0.479388 -0.872730 0.092355
vn -0.120024 0.170762 0.977975
vn -0.694281 0.712594 0.100911
vn -0.224341 0.104086 0.968936
vn -0.624773 0.773127 0.109242
vn -0.111751 -0.009972 0.993686
vn -0.479388 0.872730 0.092355
vn -0.360091 0.932912 0.003142
vn -0.050452 0.982484 0.179390
vn -0.042060 0.993945 0.101508
vn -0.037971 0.425532 0.904146
vn 0.133022 0.286708 0.948738
vn 0.786346 0.552700 0.276012
vn 0.815054 0.072728 0.574802
vn -0.834018 0.282394 0.473991
vn 0.641641 -0.297698 0.706875
vn -0.695273 0.608544 0.382453
vn -0.404518 -0.871873 0.276050
vn -0.095741 -0.067294 0.993129
vn -0.999357 0.025919 0.024785
vn -0.373972 -0.924783 0.070149
vn -0.529594 -0.841814 0.104299
vn -0.195318 -0.137284 0.971084
vn -0.669795 -0.735107 0.104844
vn -0.690800 -0.709021 0.141720
vn -0.388172 0.786250 0.480764
vn 0.474577 -0.675198 0.564698
vn 0.082566 -0.925307 0.370123
vn 0.000000 0.000000 1.000000
vn -0.146793 0.986438 0.073434
vn -0.318600 0.945289 0.070155
vn 0.370771 0.196007 0.907805
vn 0.383058 0.102688 0.917999
vn -0.316087 -0.818909 0.479038
vn 0.000000 0.000000 1.000000
vn 0.023946 0.466325 0.884290
vn 0.316087 0.818909 0.479038
vn -0.047640 -0.927724 0.370215
vn 0.000000 0.000000 1.000000
vn -0.030667 -0.724729 0.688351
vn 0.443546 -0.777594 0.445662
vn 0.050690 -0.987120 0.151741
vn 0.110810 -0.964759 0.238664
vn 0.559703 -0.796251 0.229602
vn 0.964699 0.008527 0.263219
vn 0.836483 0.547975 0.004317
vn 0.420928 0.906921 0.017703
vn -0.443546 0.777594 0.445662
vn -0.050690 0.987120 0.151741
vn -0.110810 0.964759 0.238664
vn -0.559703 0.796251 0.229602
vn 0.849575 -0.451224 0.273164
vn 0.671144 -0.009871 0.741261
vn 0.042261 0.998698 0.028583
vn -0.818098 -0.575059 0.004744
vn -0.420928 -0.906921 0.017703
vn -0.998380 -0.025893 0.050670
vn -0.989972 0.006921 0.141091
vn -0.886360 0.411385 0.212434
vn 0.273397 0.235332 0.932670
vn -0.690359 -0.708568 0.146071
vn 0.159919 0.216763 0.963037
vn -0.619855 -0.767041 0.165612
vn 0.079084 0.181348 0.980234
vn -0.668676 0.686313 0.286091
vn -0.664279 0.729053 0.164971
vn -0.525219 0.834859 0.164790
vn -0.369773 0.914398 0.164756
vn 0.690359 0.708568 0.146071
vn 0.619855 0.767041 0.165612
vn -0.051197 0.190981 0.980258
vn 0.369773 -0.914398 0.164756
vn -0.124927 0.236314 0.963613
vn 0.525219 -0.834859 0.164790
vn -0.174614 0.202858 0.963514
vn 0.664279 -0.729053 0.164971
vn -0.216154 0.159469 0.963248
vn 0.668676 -0.686313 0.286091
vn -0.342295 0.149270 0.927660
vn -0.491181 0.092865 0.866093
vn -0.478060 -0.870313 0.118380
vn -0.315022 -0.934672 0.164769
vn 0.049704 0.262892 0.963544
vn -0.145174 -0.975564 0.164921
vn 0.000000 0.000000 1.000000
vn 0.000000 0.000000 1.000000
vn 0.204093 -0.971827 0.117887
vn 0.478060 0.870313 0.118380
vn 0.315022 0.934672 0.164769
vn 0.145174 0.975564 0.164921
vn 0.000000 0.000000 1.000000
vn 0.000000 0.000000 1.000000
vn -0.204093 0.971827 0.117887
vn -0.029621 0.999561 0.000000
vn 0.029621 0.999561 0.000000
vn 0.029621 -0.999561 0.000000
vn -0.029621 -0.999561 0.000000
vn -0.037541 0.999295 0.000000
vn -0.993709 0.111994 0.000000
# 344 vertices, 0 vertices normals

f 1//1 2//2 3//3
f 4//4 5//5 6//6
f 6//6 5//5 7//7
f 8//8 9//9 10//10
f 10//10 9//9 5//5
f 10//10 5//5 11//11
f 11//11 5//5 4//4
f 8//8 10//10 3//3
f 3//3 10//10 12//12
f 3//3 12//12 1//1
f 5//5 13//13 7//7
f 7//7 13//13 14//14
f 7//7 14//14 15//15
f 15//15 16//16 7//7
f 7//7 16//16 17//17
f 7//7 17//17 18//18
f 18//18 19//19 7//7
f 7//7 19//19 20//20
f 7//7 20//20 21//21
f 22//22 23//23 24//24
f 24//24 23//23 25//25
f 24//24 25//25 26//26
f 2//2 27//27 3//3
f 3//3 27//27 23//23
f 3//3 23//23 28//28
f 28//28 23//23 22//22
f 29//29 30//30 4//4
f 4//4 30//30 31//31
f 4//4 31//31 11//11
f 11//11 31//31 32//32
f 11//11 32//32 10//10
f 10//10 32//32 33//33
f 10//10 33//33 12//12
f 12//12 33//33 34//34
f 12//12 34//34 1//1
f 1//1 34//34 35//35
f 1//1 35//35 2//2
f 2//2 35//35 36//36
f 2//2 36//36 27//27
f 27//27 36//36 37//37
f 27//27 37//37 23//23
f 23//23 37//37 38//38
f 23//23 38//38 25//25
f 25//25 38//38 39//39
f 25//25 39//39 26//26
f 26//26 39//39 40//40
f 26//26 40//40 24//24
f 24//24 40//40 41//41
f 24//24 41//41 22//22
f 22//22 41//41 42//42
f 22//22 42//42 28//28
f 28//28 42//42 43//43
f 28//28 43//43 3//3
f 3//3 43//43 44//44
f 45//45 46//46 47//47
f 47//47 46//46 48//48
f 46//46 45//45 49//49
f 46//46 49//49 50//50
f 50//50 49//49 51//51
f 50//50 51//51 52//52
f 52//52 51//51 53//53
f 52//52 53//53 54//54
f 55//55 56//56 57//57
f 55//55 57//57 58//58
f 58//58 57//57 59//59
f 58//58 59//59 60//60
f 60//60 59//59 47//47
f 60//60 47//47 48//48
f 54//54 53//53 61//61
f 61//61 53//53 62//62
f 56//56 55//55 63//63
f 63//63 55//55 64//64
f 61//61 62//62 65//65
f 61//61 65//65 66//66
f 66//66 65//65 67//67
f 66//66 67//67 68//68
f 68//68 67//67 69//69
f 68//68 69//69 70//70
f 71//71 72//72 73//73
f 71//71 73//73 74//74
f 74//74 73//73 75//75
f 74//74 75//75 76//76
f 76//76 75//75 63//63
f 76//76 63//63 64//64
f 72//72 71//71 69//69
f 69//69 71//71 70//70
f 61//61 66//66 68//68
f 74//74 76//76 71//71
f 71//71 76//76 64//64
f 71//71 64//64 70//70
f 55//55 58//58 60//60
f 50//50 52//52 46//46
f 46//46 52//52 54//54
f 46//46 54//54 61//61
f 68//68 70//70 61//61
f 61//61 70//70 64//64
f 61//61 64//64 46//46
f 46//46 64//64 55//55
f 46//46 55//55 48//48
f 48//48 55//55 60//60
f 69//69 77//77 72//72
f 72//72 77//77 78//78
f 62//62 79//79 80//80
f 62//62 80//80 65//65
f 65//65 80//80 81//81
f 65//65 81//81 67//67
f 67//67 81//81 77//77
f 67//67 77//77 69//69
f 53//53 82//82 62//62
f 62//62 82//82 79//79
f 83//83 84//84 85//85
f 83//83 85//85 45//45
f 45//45 85//85 49//49
f 49//49 85//85 86//86
f 49//49 86//86 51//51
f 51//51 86//86 82//82
f 51//51 82//82 53//53
f 47//47 87//87 45//45
f 45//45 87//87 83//83
f 56//56 88//88 89//89
f 90//90 91//91 87//87
f 56//56 89//89 57//57
f 57//57 89//89 90//90
f 57//57 90//90 59//59
f 59//59 90//90 87//87
f 59//59 87//87 47//47
f 63//63 92//92 56//56
f 56//56 92//92 88//88
f 72//72 78//78 93//93
f 72//72 93//93 73//73
f 73//73 93//93 94//94
f 73//73 94//94 75//75
f 75//75 94//94 92//92
f 75//75 92//92 63//63
f 95//95 96//96 97//97
f 97//97 96//96 98//98
f 97//97 98//98 99//99
f 99//99 98//98 100//100
f 101//101 102//102 103//103
f 104//104 105//105 106//106
f 106//106 105//105 107//107
f 100//100 108//108 109//109
f 110//110 107//107 111//111
f 112//112 113//113 114//114
f 114//114 113//113 101//101
f 114//114 101//101 115//115
f 115//115 101//101 103//103
f 116//116 117//117 118//118
f 119//119 120//120 102//102
f 102//102 120//120 121//121
f 102//102 121//121 103//103
f 103//103 121//121 122//122
f 103//103 122//122 123//123
f 123//123 122//122 124//124
f 123//123 124//124 125//125
f 124//124 126//126 127//127
f 127//127 126//126 128//128
f 127//127 128//128 129//129
f 129//129 128//128 130//130
f 129//129 130//130 131//131
f 131//131 130//130 132//132
f 111//111 133//133 110//110
f 110//110 133//133 134//134
f 110//110 134//134 135//135
f 135//135 134//134 136//136
f 135//135 136//136 137//137
f 137//137 136//136 138//138
f 139//139 140//140 141//141
f 97//97 118//118 95//95
f 95//95 118//118 117//117
f 95//95 117//117 142//142
f 142//142 117//117 143//143
f 142//142 143//143 112//112
f 112//112 143//143 144//144
f 112//112 144//144 113//113
f 106//106 145//145 104//104
f 104//104 145//145 146//146
f 104//104 146//146 147//147
f 147//147 146//146 116//116
f 147//147 116//116 148//148
f 148//148 116//116 118//118
f 105//105 149//149 107//107
f 107//107 149//149 150//150
f 107//107 150//150 111//111
f 111//111 150//150 151//151
f 111//111 151//151 109//109
f 109//109 151//151 152//152
f 109//109 152//152 100//100
f 100//100 152//152 153//153
f 100//100 153//153 99//99
f 130//130 141//141 132//132
f 132//132 141//141 140//140
f 132//132 140//140 138//138
f 138//138 140//140 154//154
f 138//138 154//154 137//137
f 102//102 155//155 119//119
f 119//119 155//155 156//156
f 119//119 156//156 157//157
f 157//157 156//156 158//158
f 157//157 158//158 159//159
f 159//159 158//158 139//139
f 159//159 139//139 160//160
f 160//160 139//139 141//141
f 124//124 127//127 125//125
f 125//125 127//127 161//161
f 125//125 161//161 108//108
f 108//108 161//161 162//162
f 108//108 162//162 109//109
f 149//149 163//163 150//150
f 150//150 163//163 164//164
f 150//150 164//164 151//151
f 151//151 164//164 165//165
f 151//151 165//165 152//152
f 152//152 165//165 166//166
f 152//152 166//166 153//153
f 153//153 166//166 167//167
f 153//153 167//167 99//99
f 99//99 167//167 168//168
f 99//99 168//168 97//97
f 97//97 168//168 169//169
f 170//170 171//171 172//172
f 173//173 174//174 175//175
f 175//175 174//174 176//176
f 175//175 176//176 83//83
f 83//83 176//176 84//84
f 177//177 178//178 179//179
f 180//180 181//181 182//182
f 182//182 181//181 183//183
f 182//182 183//183 184//184
f 184//184 183//183 185//185
f 184//184 185//185 163//163
f 163//163 185//185 186//186
f 163//163 186//186 164//164
f 164//164 186//186 87//87
f 164//164 87//87 165//165
f 187//187 188//188 189//189
f 190//190 191//191 192//192
f 193//193 194//194 195//195
f 195//195 194//194 196//196
f 195//195 196//196 197//197
f 91//91 198//198 87//87
f 87//87 198//198 199//199
f 87//87 199//199 165//165
f 165//165 199//199 200//200
f 165//165 200//200 166//166
f 166//166 200//200 201//201
f 166//166 201//201 167//167
f 202//202 203//203 204//204
f 205//205 206//206 207//207
f 207//207 206//206 208//208
f 207//207 208//208 209//209
f 209//209 208//208 210//210
f 209//209 210//210 211//211
f 211//211 210//210 170//170
f 211//211 170//170 212//212
f 212//212 170//170 172//172
f 213//213 214//214 215//215
f 179//179 216//216 177//177
f 177//177 216//216 217//217
f 177//177 217//217 218//218
f 218//218 217//217 219//219
f 218//218 219//219 220//220
f 221//221 222//222 223//223
f 223//223 222//222 197//197
f 223//223 197//197 224//224
f 224//224 197//197 196//196
f 225//225 226//226 227//227
f 227//227 226//226 169//169
f 227//227 169//169 228//228
f 182//182 229//229 180//180
f 180//180 229//229 230//230
f 180//180 230//230 207//207
f 207//207 230//230 226//226
f 207//207 226//226 205//205
f 205//205 226//226 225//225
f 205//205 225//225 231//231
f 231//231 225//225 232//232
f 220//220 233//233 218//218
f 218//218 233//233 234//234
f 218//218 234//234 235//235
f 235//235 234//234 173//173
f 235//235 173//173 236//236
f 236//236 173//173 175//175
f 236//236 175//175 237//237
f 204//204 203//203 214//214
f 214//214 203//203 238//238
f 214//214 238//238 215//215
f 202//202 204//204 239//239
f 239//239 204//204 240//240
f 239//239 240//240 241//241
f 237//237 175//175 242//242
f 242//242 175//175 243//243
f 242//242 243//243 221//221
f 221//221 243//243 244//244
f 221//221 244//244 222//222
f 201//201 187//187 167//167
f 167//167 187//187 189//189
f 167//167 189//189 168//168
f 168//168 189//189 245//245
f 168//168 245//245 169//169
f 169//169 245//245 246//246
f 169//169 246//246 228//228
f 247//247 248//248 249//249
f 249//249 248//248 250//250
f 249//249 250//250 251//251
f 251//251 250//250 252//252
f 253//253 248//248 254//254
f 254//254 248//248 247//247
f 254//254 247//247 255//255
f 255//255 247//247 256//256
f 255//255 256//256 191//191
f 191//191 256//256 257//257
f 191//191 257//257 192//192
f 257//257 258//258 192//192
f 192//192 258//258 259//259
f 192//192 259//259 260//260
f 260//260 259//259 261//261
f 260//260 261//261 262//262
f 195//195 263//263 264//264
f 171//171 213//213 172//172
f 172//172 213//213 215//215
f 172//172 215//215 192//192
f 192//192 215//215 265//265
f 192//192 265//265 190//190
f 232//232 266//266 231//231
f 231//231 266//266 267//267
f 231//231 267//267 268//268
f 268//268 267//267 269//269
f 268//268 269//269 240//240
f 240//240 269//269 270//270
f 240//240 270//270 241//241
f 262//262 261//261 271//271
f 271//271 261//261 272//272
f 271//271 272//272 195//195
f 195//195 272//272 273//273
f 195//195 273//273 263//263
f 177//177 193//193 178//178
f 178//178 193//193 195//195
f 178//178 195//195 274//274
f 274//274 195//195 264//264
f 274//274 264//264 275//275
f 275//275 264//264 251//251
f 275//275 251//251 276//276
f 276//276 251//251 252//252
f 134//134 237//237 136//136
f 136//136 237//237 242//242
f 136//136 242//242 138//138
f 138//138 242//242 221//221
f 138//138 221//221 132//132
f 132//132 221//221 223//223
f 132//132 223//223 131//131
f 131//131 223//223 224//224
f 131//131 224//224 129//129
f 129//129 224//224 196//196
f 129//129 196//196 127//127
f 127//127 196//196 194//194
f 130//130 251//251 141//141
f 141//141 251//251 264//264
f 141//141 264//264 160//160
f 160//160 264//264 263//263
f 160//160 263//263 159//159
f 159//159 263//263 273//273
f 159//159 273//273 157//157
f 157//157 273//273 272//272
f 157//157 272//272 119//119
f 119//119 272//272 261//261
f 119//119 261//261 120//120
f 120//120 261//261 259//259
f 100//100 231//231 108//108
f 108//108 231//231 268//268
f 108//108 268//268 125//125
f 125//125 268//268 240//240
f 125//125 240//240 123//123
f 123//123 240//240 204//204
f 123//123 204//204 103//103
f 103//103 204//204 214//214
f 103//103 214//214 115//115
f 115//115 214//214 213//213
f 115//115 213//213 114//114
f 114//114 213//213 171//171
f 117//117 207//207 209//209
f 117//117 209//209 143//143
f 143//143 209//209 211//211
f 143//143 211//211 144//144
f 144//144 211//211 212//212
f 144//144 212//212 113//113
f 113//113 212//212 172//172
f 113//113 172//172 101//101
f 172//172 192//192 101//101
f 101//101 192//192 102//102
f 102//102 192//192 260//260
f 102//102 260//260 155//155
f 155//155 260//260 262//262
f 155//155 262//262 156//156
f 156//156 262//262 271//271
f 156//156 271//271 158//158
f 158//158 271//271 195//195
f 158//158 195//195 139//139
f 195//195 197//197 139//139
f 139//139 197//197 140//140
f 140//140 197//197 222//222
f 140//140 222//222 154//154
f 154//154 222//222 244//244
f 154//154 244//244 137//137
f 137//137 244//244 243//243
f 137//137 243//243 135//135
f 135//135 243//243 175//175
f 135//135 175//175 110//110
f 87//87 186//186 107//107
f 87//87 107//107 83//83
f 83//83 107//107 110//110
f 83//83 110//110 175//175
f 107//107 186//186 185//185
f 107//107 185//185 106//106
f 106//106 185//185 183//183
f 106//106 183//183 145//145
f 145//145 183//183 181//181
f 145//145 181//181 146//146
f 146//146 181//181 180//180
f 146//146 180//180 116//116
f 180//180 207//207 116//116
f 116//116 207//207 117//117
f 277//277 278//278 279//279
f 280//280 281//281 31//31
f 31//31 281//281 282//282
f 31//31 282//282 32//32
f 279//279 278//278 283//283
f 283//283 278//278 284//284
f 283//283 284//284 285//285
f 286//286 287//287 280//280
f 280//280 287//287 288//288
f 280//280 288//288 289//289
f 290//290 291//291 292//292
f 293//293 294//294 284//284
f 284//284 294//294 295//295
f 284//284 295//295 296//296
f 289//289 297//297 280//280
f 280//280 297//297 298//298
f 280//280 298//298 281//281
f 281//281 298//298 290//290
f 281//281 290//290 299//299
f 299//299 290//290 292//292
f 300//300 301//301 302//302
f 302//302 301//301 285//285
f 302//302 285//285 303//303
f 303//303 285//285 284//284
f 303//303 284//284 304//304
f 304//304 284//284 296//296
f 277//277 279//279 305//305
f 305//305 279//279 306//306
f 305//305 306//306 307//307
f 307//307 306//306 308//308
f 307//307 308//308 309//309
f 284//284 43//43 293//293
f 293//293 43//43 42//42
f 293//293 42//42 310//310
f 310//310 42//42 41//41
f 310//310 41//41 311//311
f 311//311 41//41 40//40
f 311//311 40//40 312//312
f 312//312 40//40 39//39
f 312//312 39//39 313//313
f 313//313 39//39 38//38
f 32//32 282//282 33//33
f 33//33 282//282 314//314
f 33//33 314//314 34//34
f 34//34 314//314 315//315
f 34//34 315//315 35//35
f 316//316 317//317 318//318
f 318//318 317//317 319//319
f 318//318 319//319 320//320
f 320//320 319//319 321//321
f 320//320 321//321 322//322
f 322//322 321//321 323//323
f 322//322 323//323 324//324
f 324//324 323//323 286//286
f 324//324 286//286 325//325
f 325//325 286//286 280//280
f 308//308 326//326 309//309
f 309//309 326//326 327//327
f 309//309 327//327 328//328
f 328//328 327//327 329//329
f 328//328 329//329 330//330
f 330//330 329//329 331//331
f 330//330 331//331 316//316
f 316//316 331//331 332//332
f 316//316 332//332 317//317
f 315//315 333//333 35//35
f 35//35 333//333 334//334
f 35//35 334//334 36//36
f 36//36 334//334 335//335
f 36//36 335//335 336//336
f 336//336 335//335 337//337
f 336//336 337//337 38//38
f 38//38 337//337 338//338
f 38//38 338//338 313//313
f 281//281 299//299 233//233
f 233//233 299//299 234//234
f 219//219 314//314 220//220
f 220//220 314//314 282//282
f 220//220 282//282 233//233
f 233//233 282//282 281//281
f 248//248 310//310 311//311
f 248//248 311//311 250//250
f 250//250 311//311 312//312
f 250//250 312//312 252//252
f 252//252 312//312 313//313
f 252//252 313//313 276//276
f 276//276 313//313 338//338
f 276//276 338//338 275//275
f 275//275 338//338 339//339
f 275//275 339//339 340//340
f 340//340 339//339 335//335
f 340//340 335//335 178//178
f 178//178 335//335 334//334
f 178//178 334//334 179//179
f 179//179 334//334 333//333
f 179//179 333//333 216//216
f 216//216 333//333 315//315
f 216//216 315//315 217//217
f 217//217 315//315 314//314
f 217//217 314//314 219//219
f 254//254 294//294 253//253
f 253//253 294//294 293//293
f 253//253 293//293 248//248
f 248//248 293//293 310//310
f 295//295 294//294 255//255
f 255//255 294//294 254//254
f 265//265 303//303 304//304
f 265//265 304//304 190//190
f 190//190 304//304 296//296
f 190//190 296//296 191//191
f 191//191 296//296 295//295
f 191//191 295//295 255//255
f 302//302 303//303 215//215
f 215//215 303//303 265//265
f 202//202 285//285 301//301
f 202//202 301//301 203//203
f 203//203 301//301 300//300
f 203//203 300//300 238//238
f 238//238 300//300 302//302
f 238//238 302//302 215//215
f 283//283 285//285 239//239
f 239//239 285//285 202//202
f 270//270 306//306 241//241
f 241//241 306//306 279//279
f 241//241 279//279 239//239
f 239//239 279//279 283//283
f 189//189 323//323 321//321
f 189//189 321//321 245//245
f 245//245 321//321 319//319
f 245//245 319//319 246//246
f 246//246 319//319 317//317
f 246//246 317//317 228//228
f 228//228 317//317 332//332
f 228//228 332//332 227//227
f 227//227 332//332 341//341
f 227//227 341//341 342//342
f 342//342 341//341 329//329
f 342//342 329//329 232//232
f 232//232 329//329 327//327
f 232//232 327//327 266//266
f 266//266 327//327 326//326
f 266//266 326//326 267//267
f 267//267 326//326 308//308
f 267//267 308//308 269//269
f 269//269 308//308 306//306
f 269//269 306//306 270//270
f 187//187 287//287 188//188
f 188//188 287//287 286//286
f 188//188 286//286 189//189
f 189//189 286//286 323//323
f 288//288 287//287 201//201
f 201//201 287//287 187//187
f 92//92 298//298 297//297
f 198//198 88//88 199//199
f 199//199 88//88 92//92
f 92//92 297//297 199//199
f 199//199 297//297 289//289
f 199//199 289//289 200//200
f 200//200 289//289 288//288
f 200//200 288//288 201//201
f 82//82 176//176 174//174
f 234//234 299//299 292//292
f 291//291 290//290 79//79
f 234//234 292//292 173//173
f 173//173 292//292 291//291
f 173//173 291//291 174//174
f 174//174 291//291 79//79
f 174//174 79//79 82//82
f 80//80 79//79 290//290
f 298//298 92//92 94//94
f 80//80 290//290 81//81
f 94//94 93//93 298//298
f 298//298 93//93 78//78
f 298//298 78//78 290//290
f 290//290 78//78 77//77
f 290//290 77//77 81//81
f 82//82 86//86 176//176
f 176//176 86//86 85//85
f 176//176 85//85 84//84
f 91//91 90//90 198//198
f 198//198 90//90 89//89
f 198//198 89//89 88//88
f 114//114 171//171 112//112
f 112//112 171//171 170//170
f 112//112 170//170 142//142
f 142//142 170//170 210//210
f 142//142 210//210 95//95
f 95//95 210//210 208//208
f 95//95 208//208 96//96
f 96//96 208//208 206//206
f 96//96 206//206 98//98
f 98//98 206//206 205//205
f 98//98 205//205 100//100
f 100//100 205//205 231//231
f 120//120 259//259 121//121
f 121//121 259//259 258//258
f 121//121 258//258 122//122
f 122//122 258//258 257//257
f 122//122 257//257 124//124
f 124//124 257//257 256//256
f 124//124 256//256 126//126
f 126//126 256//256 247//247
f 126//126 247//247 128//128
f 128//128 247//247 249//249
f 128//128 249//249 130//130
f 130//130 249//249 251//251
f 127//127 194//194 161//161
f 161//161 194//194 193//193
f 161//161 193//193 162//162
f 162//162 193//193 177//177
f 162//162 177//177 109//109
f 109//109 177//177 218//218
f 109//109 218//218 111//111
f 111//111 218//218 235//235
f 111//111 235//235 133//133
f 133//133 235//235 236//236
f 133//133 236//236 134//134
f 134//134 236//236 237//237
f 97//97 169//169 118//118
f 118//118 169//169 226//226
f 118//118 226//226 148//148
f 148//148 226//226 230//230
f 148//148 230//230 147//147
f 147//147 230//230 229//229
f 147//147 229//229 104//104
f 104//104 229//229 182//182
f 104//104 182//182 105//105
f 105//105 182//182 184//184
f 105//105 184//184 149//149
f 149//149 184//184 163//163
f 3//3 44//44 8//8
f 8//8 44//44 278//278
f 8//8 278//278 9//9
f 9//9 278//278 277//277
f 9//9 277//277 5//5
f 5//5 277//277 305//305
f 5//5 305//305 13//13
f 13//13 305//305 307//307
f 13//13 307//307 14//14
f 14//14 307//307 309//309
f 14//14 309//309 15//15
f 15//15 309//309 328//328
f 15//15 328//328 16//16
f 16//16 328//328 343//343
f 16//16 343//343 17//17
f 17//17 343//343 316//316
f 17//17 316//316 18//18
f 18//18 316//316 318//318
f 18//18 318//318 19//19
f 19//19 318//318 320//320
f 19//19 320//320 20//20
f 20//20 320//320 322//322
f 20//20 322//322 21//21
f 21//21 322//322 324//324
f 21//21 324//324 7//7
f 7//7 324//324 325//325
f 7//7 325//325 6//6
f 6//6 325//325 344//344
# 680 faces, 0 coords texture

# End of File
