####
#
# OBJ File Generated by Meshlab
#
####
# Object link_1.obj
#
# Vertices: 300
# Faces: 596
#
####
v 0.015155 0.008750 0.004000
v 0.012374 0.012374 0.004000
v 0.021500 0.036325 0.004000
v -0.021500 -0.036325 0.004000
v -0.015155 -0.008750 0.004000
v -0.012374 -0.012374 0.004000
v -0.004529 0.016904 0.004000
v -0.008750 0.015155 0.004000
v -0.021500 0.036325 0.004000
v -0.012374 0.012374 0.004000
v -0.015155 0.008750 0.004000
v -0.008750 -0.015155 0.004000
v -0.004529 -0.016904 0.004000
v 0.021500 -0.036325 0.004000
v 0.000000 -0.017500 0.004000
v 0.004529 -0.016904 0.004000
v 0.015155 -0.008750 0.004000
v 0.016904 -0.004529 0.004000
v 0.017500 -0.000000 0.004000
v 0.016904 0.004529 0.004000
v 0.008750 0.015155 0.004000
v 0.004529 0.016904 0.004000
v -0.000000 0.017500 0.004000
v 0.008750 -0.015155 0.004000
v 0.012374 -0.012374 0.004000
v -0.016904 0.004529 0.004000
v -0.017500 -0.000000 0.004000
v -0.016904 -0.004529 0.004000
v 0.008750 0.015155 0.000000
v -0.008750 -0.015155 0.000000
v -0.012374 -0.012374 0.000000
v 0.012374 0.012374 0.000000
v 0.015155 0.008750 0.000000
v 0.016904 0.004529 0.000000
v 0.008750 -0.015155 0.000000
v 0.012374 -0.012374 0.000000
v 0.015155 -0.008750 0.000000
v -0.000000 0.017500 0.000000
v -0.016904 -0.004529 0.000000
v -0.004529 0.016904 0.000000
v -0.017500 -0.000000 0.000000
v -0.016904 0.004529 0.000000
v -0.015155 -0.008750 0.000000
v 0.004529 0.016904 0.000000
v 0.017500 0.000000 0.000000
v 0.016904 -0.004529 0.000000
v 0.004529 -0.016904 0.000000
v 0.000000 -0.017500 0.000000
v -0.004529 -0.016904 0.000000
v -0.015155 0.008750 0.000000
v -0.012374 0.012374 0.000000
v -0.008750 0.015155 0.000000
v 0.017500 0.000000 0.004000
v -0.022500 0.036325 0.009000
v -0.022500 -0.036325 0.009000
v -0.021500 0.036325 0.010000
v -0.021500 -0.036325 0.010000
v -0.022500 0.036325 0.005000
v -0.022500 -0.036325 0.005000
v 0.022500 0.036325 0.005000
v 0.022500 -0.036325 0.005000
v 0.022500 0.036325 0.009000
v 0.022500 -0.036325 0.009000
v 0.021500 0.036325 0.010000
v 0.021500 -0.036325 0.010000
v 0.003000 0.048325 0.013000
v 0.008000 0.043325 0.013000
v 0.003000 0.048325 0.003000
v 0.008000 0.043325 0.003000
v 0.008277 0.043325 0.015562
v 0.003392 0.048325 0.016629
v 0.009094 0.043325 0.018005
v 0.004549 0.048325 0.020091
v 0.010414 0.043325 0.020218
v 0.006419 0.048325 0.023226
v 0.026391 0.043325 0.041438
v 0.022397 0.048325 0.044445
v 0.017603 0.048325 0.048055
v 0.013609 0.043325 0.051062
v 0.015640 0.043325 0.052958
v 0.018365 0.048325 0.048765
v 0.018197 0.043325 0.054044
v 0.019324 0.048325 0.049173
v 0.020972 0.043325 0.054191
v 0.020364 0.048325 0.049228
v 0.023629 0.043325 0.053379
v 0.021361 0.048325 0.048924
v 0.025849 0.043325 0.051708
v 0.022193 0.048325 0.048297
v 0.027363 0.043325 0.049379
v 0.022761 0.048325 0.047423
v 0.027989 0.043325 0.046672
v 0.022996 0.048325 0.046408
v 0.027651 0.043325 0.043914
v 0.022869 0.048325 0.045374
v -0.002368 0.043325 0.029842
v 0.001626 0.048325 0.026835
v -0.003000 0.048325 0.013000
v -0.008000 0.043325 0.013000
v -0.007636 0.043325 0.017498
v -0.002701 0.048325 0.016695
v -0.006555 0.043325 0.021879
v -0.001813 0.048325 0.020294
v -0.004783 0.043325 0.026030
v -0.000358 0.048325 0.023703
v -0.008000 0.043325 0.003000
v -0.003000 0.048325 0.003000
v -0.010000 0.043325 0.005000
v -0.010000 0.043325 0.004000
v -0.010000 0.041325 0.005000
v -0.010000 0.041325 0.004000
v -0.010285 0.043325 0.006277
v -0.010285 0.041325 0.006277
v -0.011086 0.043325 0.007310
v -0.011086 0.041325 0.007310
v -0.012251 0.043325 0.007905
v -0.012251 0.041325 0.007905
v -0.020749 0.043325 0.010095
v -0.020749 0.041325 0.010095
v -0.022060 0.041325 0.010819
v -0.022060 0.043325 0.010819
v -0.022858 0.041325 0.012087
v -0.022858 0.043325 0.012087
v -0.022943 0.041325 0.013582
v -0.022943 0.043325 0.013582
v -0.022295 0.041325 0.014932
v -0.022295 0.043325 0.014932
v 0.005705 0.043325 0.048182
v 0.005705 0.041325 0.048182
v 0.006000 0.041325 0.048486
v 0.006000 0.043325 0.048486
v 0.012667 0.043325 0.054449
v 0.012667 0.041325 0.054449
v 0.015336 0.041325 0.056212
v 0.015336 0.043325 0.056212
v 0.018400 0.041325 0.057133
v 0.018400 0.043325 0.057133
v 0.021600 0.041325 0.057133
v 0.021600 0.043325 0.057133
v 0.024664 0.041325 0.056212
v 0.024664 0.043325 0.056212
v 0.027333 0.041325 0.054449
v 0.027333 0.043325 0.054449
v 0.034000 0.043325 0.048486
v 0.034000 0.041325 0.048486
v 0.034707 0.041325 0.047542
v 0.034707 0.043325 0.047542
v 0.034996 0.041325 0.046398
v 0.034996 0.043325 0.046398
v 0.034822 0.041325 0.045232
v 0.034822 0.043325 0.045232
v 0.022822 0.043325 0.011982
v 0.022822 0.041325 0.011982
v 0.022019 0.041325 0.010781
v 0.022019 0.043325 0.010781
v 0.020749 0.041325 0.010095
v 0.020749 0.043325 0.010095
v 0.012251 0.043325 0.007905
v 0.012251 0.041325 0.007905
v 0.011086 0.043325 0.007310
v 0.011086 0.041325 0.007310
v 0.010285 0.043325 0.006277
v 0.010285 0.041325 0.006277
v 0.010000 0.043325 0.005000
v 0.010000 0.041325 0.005000
v 0.010000 0.043325 0.004000
v 0.010000 0.041325 0.004000
v 0.009866 0.041325 0.003500
v 0.009866 0.043325 0.003500
v 0.009500 0.041325 0.003134
v 0.009500 0.043325 0.003134
v 0.009000 0.041325 0.003000
v 0.009000 0.043325 0.003000
v -0.009000 0.043325 0.003000
v -0.009000 0.041325 0.003000
v -0.009500 0.041325 0.003134
v -0.009500 0.043325 0.003134
v -0.009866 0.041325 0.003500
v -0.009866 0.043325 0.003500
v -0.028673 0.036325 0.019599
v -0.028762 0.036325 0.019823
v -0.023336 0.036325 0.004815
v 0.020750 0.036325 0.003000
v -0.020750 0.036325 0.003000
v -0.021841 0.036325 0.003226
v -0.022753 0.036325 0.003866
v -0.009509 0.036325 0.020684
v -0.009198 0.036325 0.018751
v 0.036414 0.036325 0.040181
v 0.037387 0.036325 0.044267
v 0.037359 0.036325 0.048468
v -0.009840 0.036325 0.016902
v -0.011284 0.036325 0.015579
v -0.013182 0.036325 0.015100
v -0.013877 0.036325 0.015160
v -0.025695 0.036325 0.017244
v -0.027481 0.036325 0.018046
v 0.007775 0.036325 0.058772
v -0.027794 0.036325 0.024045
v -0.026898 0.036325 0.024704
v 0.031564 0.036325 0.059385
v 0.028100 0.036325 0.061762
v -0.010701 0.036325 0.022237
v 0.011371 0.036325 0.061475
v 0.015538 0.036325 0.063172
v 0.020000 0.036325 0.063750
v -0.025000 0.036325 0.025183
v -0.024305 0.036325 0.025123
v 0.021835 0.036325 0.003223
v 0.022744 0.036325 0.003856
v 0.023329 0.036325 0.004796
v 0.036330 0.036325 0.052540
v 0.034361 0.036325 0.056251
v -0.012488 0.036325 0.023039
v 0.024170 0.036325 0.063246
v -0.026898 -0.036325 0.024704
v -0.027794 -0.036325 0.024045
v 0.007775 -0.036325 0.058772
v -0.028673 -0.036325 0.019599
v 0.036414 -0.036325 0.040181
v -0.027481 -0.036325 0.018046
v -0.025695 -0.036325 0.017244
v -0.028762 -0.036325 0.019823
v -0.023336 -0.036325 0.004815
v -0.022753 -0.036325 0.003866
v -0.021841 -0.036325 0.003226
v 0.037359 -0.036325 0.048468
v 0.037387 -0.036325 0.044267
v 0.023329 -0.036325 0.004796
v 0.022744 -0.036325 0.003856
v -0.011284 -0.036325 0.015579
v -0.013182 -0.036325 0.015100
v -0.013877 -0.036325 0.015160
v 0.031564 -0.036325 0.059385
v 0.034361 -0.036325 0.056251
v -0.009509 -0.036325 0.020684
v 0.021835 -0.036325 0.003223
v 0.020750 -0.036325 0.003000
v -0.020750 -0.036325 0.003000
v -0.009840 -0.036325 0.016902
v -0.009198 -0.036325 0.018751
v 0.036330 -0.036325 0.052540
v 0.015538 -0.036325 0.063172
v 0.020000 -0.036325 0.063750
v -0.010701 -0.036325 0.022237
v 0.024170 -0.036325 0.063246
v 0.028100 -0.036325 0.061762
v -0.012488 -0.036325 0.023039
v -0.024305 -0.036325 0.025123
v -0.025000 -0.036325 0.025183
v 0.011371 -0.036325 0.061475
v -0.020750 0.041325 0.003000
v 0.020750 0.041325 0.003000
v -0.021841 0.041325 0.003226
v -0.022753 0.041325 0.003866
v -0.028762 0.041325 0.019823
v -0.023336 0.041325 0.004815
v 0.022744 0.041325 0.003856
v 0.021835 0.041325 0.003223
v 0.023329 0.041325 0.004796
v 0.036414 0.041325 0.040181
v 0.037387 0.041325 0.044267
v 0.037359 0.041325 0.048468
v 0.007775 0.041325 0.058772
v 0.011371 0.041325 0.061475
v 0.015538 0.041325 0.063172
v 0.020000 0.041325 0.063750
v 0.024170 0.041325 0.063246
v 0.028100 0.041325 0.061762
v 0.036330 0.041325 0.052540
v 0.034361 0.041325 0.056251
v 0.031564 0.041325 0.059385
v -0.028985 0.041325 0.021532
v -0.027794 0.041325 0.024045
v -0.028342 0.041325 0.023381
v -0.028762 -0.041325 0.019823
v -0.023336 -0.041325 0.004815
v 0.020750 -0.041325 0.003000
v 0.007775 -0.041325 0.058772
v -0.027794 -0.041325 0.024045
v 0.023329 -0.041325 0.004796
v 0.031564 -0.041325 0.059385
v 0.028100 -0.041325 0.061762
v -0.022753 -0.041325 0.003866
v -0.021841 -0.041325 0.003226
v -0.020750 -0.041325 0.003000
v 0.036414 -0.041325 0.040181
v 0.037387 -0.041325 0.044267
v 0.037359 -0.041325 0.048468
v -0.028985 -0.041325 0.021532
v -0.028342 -0.041325 0.023381
v 0.021835 -0.041325 0.003223
v 0.022744 -0.041325 0.003856
v 0.036330 -0.041325 0.052540
v 0.034361 -0.041325 0.056251
v 0.024170 -0.041325 0.063246
v 0.020000 -0.041325 0.063750
v 0.011371 -0.041325 0.061475
v 0.015538 -0.041325 0.063172
v 0.017500 -0.000000 0.000000
vn 0.250734 0.159832 -0.954770
vn 0.167987 0.183403 -0.968578
vn 0.084590 -0.051071 -0.995106
vn -0.084590 0.051076 -0.995106
vn -0.250734 -0.159832 -0.954770
vn -0.167987 -0.183403 -0.968578
vn -0.075579 0.239458 -0.967961
vn -0.126953 0.199155 -0.971710
vn -0.040156 -0.025554 -0.998867
vn -0.183403 0.167987 -0.968578
vn -0.263784 0.137270 -0.954764
vn -0.109032 -0.209521 -0.971706
vn -0.011526 -0.052041 -0.998578
vn 0.040156 0.025549 -0.998867
vn 0.013320 -0.303647 -0.952692
vn 0.075579 -0.239458 -0.967961
vn 0.263784 -0.137270 -0.954764
vn 0.418180 -0.092617 -0.903630
vn 0.048885 -0.006433 -0.998784
vn 0.408475 0.128926 -0.903619
vn 0.109032 0.209521 -0.971706
vn 0.011526 0.052041 -0.998578
vn -0.013320 0.303647 -0.952692
vn 0.126953 -0.199155 -0.971710
vn 0.183403 -0.167987 -0.968578
vn -0.418180 0.092617 -0.903630
vn -0.145274 -0.006372 -0.989371
vn -0.408475 -0.128926 -0.903619
vn 0.039370 0.061761 -0.997314
vn -0.026323 -0.041293 -0.998800
vn -0.126815 -0.116155 -0.985102
vn 0.126815 0.116155 -0.985102
vn 0.160460 0.083501 -0.983504
vn 0.192418 0.042616 -0.980387
vn 0.261218 -0.501968 -0.824496
vn 0.283802 -0.309847 -0.907442
vn 0.273730 -0.174491 -0.945846
vn 0.011527 0.262778 -0.964788
vn -0.098042 -0.021714 -0.994945
vn -0.044449 0.200694 -0.978645
vn -0.419759 0.018413 -0.907449
vn -0.539681 0.170338 -0.824457
vn -0.160460 -0.083501 -0.983504
vn 0.067130 0.212688 -0.974811
vn 0.075966 0.009997 -0.997060
vn 0.250843 -0.079173 -0.964785
vn 0.164461 -0.742561 -0.649273
vn -0.040822 -0.930615 -0.363715
vn -0.299516 -0.948955 -0.098866
vn -0.641453 0.408899 -0.649106
vn -0.629208 0.686950 -0.363589
vn -0.459366 0.882738 -0.098769
vn 0.991452 0.130472 0.000000
vn -0.989114 -0.097855 0.109902
vn -0.942816 0.111044 0.314272
vn -0.044166 -0.102722 0.993729
vn -0.011480 0.049244 0.998721
vn -0.948612 -0.012257 -0.316204
vn -0.992022 0.061184 -0.110225
vn 0.993848 -0.008516 -0.110428
vn 0.931012 0.192110 -0.310337
vn 0.911405 -0.277571 0.303802
vn 0.982430 0.151381 0.109159
vn 0.011001 -0.289638 0.957073
vn 0.038807 0.485887 0.873160
vn 0.341569 0.939751 -0.014113
vn 0.593714 0.804643 -0.007289
vn 0.457869 0.732590 -0.503655
vn 0.340569 0.530156 -0.776497
vn 0.540150 0.836418 -0.092965
vn 0.326161 0.941843 -0.080942
vn 0.463199 0.866095 -0.187950
vn 0.350989 0.920225 -0.173184
vn 0.134150 0.986224 -0.096780
vn 0.403997 0.864221 -0.299847
vn 0.452750 0.827245 -0.332689
vn 0.219870 0.961763 -0.163304
vn -0.423101 0.845264 0.326366
vn -0.340132 0.902275 0.264972
vn -0.273955 0.875988 0.396982
vn -0.255064 0.830562 0.495084
vn -0.121858 0.875734 0.467161
vn -0.072065 0.822626 0.563997
vn 0.045412 0.875098 0.481810
vn 0.129442 0.809503 0.572669
vn 0.208297 0.874002 0.439015
vn 0.330388 0.791532 0.514121
vn 0.347755 0.872525 0.343171
vn 0.507885 0.769893 0.386417
vn 0.305414 0.941880 0.139943
vn 0.635051 0.746809 0.197452
vn 0.358931 0.932915 0.028969
vn 0.687223 0.725702 -0.032881
vn 0.378573 0.919689 -0.104186
vn 0.648884 0.710707 -0.271745
vn -0.318026 0.918723 0.234108
vn -0.236453 0.955864 0.174398
vn -0.498260 0.866948 0.011717
vn -0.527024 0.849747 0.013232
vn -0.618656 0.780962 0.085807
vn -0.487416 0.868021 0.094686
vn -0.163046 0.985336 0.050281
vn -0.401321 0.903903 0.147991
vn -0.336811 0.926626 0.167102
vn -0.372193 0.903981 0.210453
vn -0.417814 0.509733 -0.752066
vn -0.278207 0.945905 -0.166924
vn -0.161433 0.986677 -0.020206
vn -0.963361 0.263190 -0.051636
vn -0.201879 0.979084 -0.025268
vn -0.134010 0.990817 -0.017957
vn -0.486746 0.853503 -0.186041
vn -0.866950 0.094458 -0.489361
vn -0.120954 0.984658 -0.125772
vn -0.103242 0.983970 -0.145412
vn -0.071335 0.966256 -0.247509
vn -0.078255 0.959247 -0.271518
vn -0.045852 0.989068 -0.140152
vn -0.132608 0.869589 -0.475637
vn -0.241401 0.921588 -0.303974
vn -0.081606 0.994005 -0.072770
vn -0.130390 0.989971 -0.054375
vn -0.967677 0.123315 -0.219989
vn -0.396595 0.916954 0.043680
vn -0.118205 0.992403 0.034123
vn -0.145572 0.982210 0.118628
vn -0.342314 0.895064 0.285798
vn -0.178733 0.972253 0.150924
vn -0.174537 0.973604 0.147081
vn -0.206709 0.951397 0.228289
vn -0.518383 0.630526 0.577681
vn -0.343053 0.833035 0.434014
vn -0.308375 0.880308 0.360503
vn -0.123298 0.964640 0.232955
vn -0.217527 0.819096 0.530814
vn -0.036341 0.982248 0.184033
vn -0.055454 0.819890 0.569829
vn 0.025716 0.964111 0.264251
vn 0.110526 0.821286 0.559709
vn 0.100903 0.963946 0.246226
vn 0.265478 0.823368 0.501585
vn 0.143128 0.972998 0.181079
vn 0.413144 0.772037 0.482982
vn 0.252397 0.932096 0.259792
vn 0.304004 0.893074 0.331664
vn 0.284865 0.945120 0.160002
vn 0.393233 0.906049 0.156344
vn 0.768389 0.633641 0.089875
vn 0.192248 0.981341 -0.003263
vn 0.452363 0.877909 -0.156983
vn 0.202133 0.976692 -0.072213
vn 0.127761 0.990606 -0.048758
vn 0.495844 0.849199 -0.181658
vn 0.361047 0.869813 -0.336260
vn 0.605901 0.114729 -0.787224
vn 0.094878 0.951082 -0.294010
vn 0.065438 0.969561 -0.235944
vn 0.044306 0.987119 -0.153728
vn 0.140467 0.861822 -0.487372
vn 0.068139 0.993049 -0.095971
vn 0.197923 0.958368 -0.205807
vn 0.199749 0.973338 -0.112751
vn 0.221866 0.971383 -0.084800
vn 0.910220 0.398146 -0.113927
vn 0.111620 0.993653 -0.013971
vn 0.748783 0.655177 -0.100337
vn 0.293901 0.955706 -0.015753
vn 0.269601 0.954808 -0.125130
vn 0.817299 0.044433 -0.574498
vn 0.267156 0.885539 -0.380065
vn 0.415311 0.163752 -0.894819
vn 0.001252 0.003677 -0.999992
vn 0.081035 0.413034 -0.907103
vn -0.100337 0.655177 -0.748783
vn -0.001427 0.008386 -0.999964
vn -0.195584 0.885533 -0.421400
vn -0.574498 0.044433 -0.817299
vn -0.243155 0.954810 -0.170919
vn -0.894819 0.163752 -0.415311
vn -0.789170 -0.231449 -0.568895
vn -0.980827 -0.000309 -0.194882
vn -0.912214 -0.223296 -0.343517
vn 0.007955 -0.151310 -0.988454
vn -0.003040 -0.229840 -0.973224
vn -0.330734 -0.111797 -0.937079
vn -0.666790 -0.192190 -0.720037
vn 0.219186 -0.972920 0.073372
vn 0.947253 -0.275536 -0.163679
vn 0.826869 -0.479123 -0.294498
vn 0.995076 -0.066965 -0.073069
vn 0.036694 -0.999307 0.006200
vn 0.758495 -0.264339 -0.595659
vn 0.324616 -0.581831 -0.745719
vn 0.108451 -0.040497 -0.993277
vn -0.168235 -0.087390 -0.981866
vn -0.207269 -0.049659 -0.977023
vn -0.683355 -0.036606 -0.729168
vn -0.487659 -0.708392 0.510264
vn -0.694019 -0.011925 0.719857
vn -0.310232 -0.568863 0.761677
vn 0.083969 -0.991076 0.103524
vn 0.059858 -0.990118 0.126817
vn 0.206718 -0.953200 0.220630
vn -0.528627 -0.076819 0.845371
vn -0.283708 -0.290090 0.913979
vn -0.002767 -0.998451 0.055569
vn -0.102834 -0.319957 0.941835
vn 0.143090 -0.531245 0.835047
vn 0.453521 -0.111848 -0.884199
vn 0.756041 -0.192843 -0.625471
vn 0.851453 -0.415158 -0.320423
vn 0.101489 -0.993869 0.043857
vn 0.105107 -0.991265 0.079660
vn 0.197624 -0.305197 0.931558
vn 0.030663 -0.988061 0.150979
vn -0.365580 0.246422 0.897567
vn -0.688434 0.014060 0.725163
vn -0.420207 0.793790 0.439685
vn -0.804483 0.128389 -0.579934
vn 0.631309 0.742222 -0.224847
vn -0.552026 0.036605 -0.833023
vn -0.206507 0.098953 -0.973429
vn -0.967596 0.000389 -0.252503
vn -0.922830 0.166190 -0.347514
vn -0.759312 0.192212 -0.621691
vn -0.456123 0.111797 -0.882867
vn 0.035871 0.999352 0.003120
vn 0.985979 0.066969 -0.152841
vn 0.932576 0.084470 -0.350951
vn 0.663576 0.192813 -0.722835
vn 0.537390 0.183970 -0.823023
vn 0.156839 0.600137 -0.784371
vn -0.168719 0.043821 -0.984690
vn 0.091419 0.991195 0.095786
vn 0.111361 0.991237 0.071051
vn 0.260879 0.955235 0.139526
vn 0.328644 0.111848 -0.937808
vn 0.004860 0.372317 -0.928093
vn -0.005280 0.099110 -0.995062
vn 0.847416 0.264389 -0.460417
vn 0.269891 0.962890 -0.000945
vn 0.129824 0.990556 0.044099
vn -0.047379 0.974932 0.217399
vn 0.005943 0.984206 0.176930
vn 0.268431 0.873914 0.405240
vn 0.033860 0.992517 0.117319
vn 0.068809 0.990414 0.119770
vn 0.182677 0.474484 0.861100
vn 0.163237 0.256651 0.952620
vn -0.191475 0.215318 0.957588
vn -0.139818 0.951632 0.273582
vn -0.030786 0.314050 -0.948907
vn 0.015184 0.485809 -0.873933
vn -0.458794 0.029985 -0.888037
vn -0.091409 0.992997 -0.074842
vn -0.858936 0.415115 -0.299849
vn -0.774807 0.560841 -0.291773
vn 0.091863 0.990731 -0.100067
vn 0.330573 0.029663 -0.943314
vn 0.885817 0.322803 -0.333355
vn 0.624005 0.749149 -0.222246
vn 0.931521 0.333792 -0.144400
vn 0.908358 0.410661 0.079010
vn -0.548438 0.608195 0.573859
vn -0.293362 0.764485 0.574022
vn -0.160247 0.658531 0.735295
vn 0.021539 0.767012 0.641271
vn 0.177983 0.766825 0.616686
vn 0.319403 0.767392 0.555960
vn 0.835140 0.471235 0.283687
vn 0.455122 0.841750 0.290380
vn 0.521900 0.654671 0.546833
vn -0.980732 0.057227 0.186790
vn -0.223192 0.947790 0.227771
vn -0.875301 0.085278 0.476000
vn -0.099367 -0.994484 -0.033578
vn -0.213135 -0.973720 -0.080261
vn 0.002073 -0.918293 -0.395896
vn -0.042471 -0.998109 0.044439
vn -0.130152 -0.982525 0.133063
vn 0.047406 -0.998716 -0.017840
vn 0.265131 -0.907115 0.326877
vn 0.225570 -0.848960 0.477896
vn -0.679151 -0.030004 -0.733385
vn -0.330638 -0.114336 -0.936806
vn -0.004992 -0.338928 -0.940799
vn 0.271565 -0.957548 -0.096721
vn 0.234245 -0.972025 -0.017201
vn 0.254966 -0.965990 0.043083
vn -0.999164 -0.003538 0.040730
vn -0.796987 -0.500542 0.338037
vn 0.051614 -0.993584 -0.100629
vn 0.770164 -0.029676 -0.637155
vn 0.269850 -0.955815 0.116613
vn 0.275466 -0.938367 0.208773
vn 0.133917 -0.739794 0.659372
vn -0.040351 -0.584546 0.810356
vn -0.507391 -0.290116 0.811411
vn -0.295579 -0.076849 0.952222
vn 0.991452 -0.130472 0.000000
# 300 vertices, 0 vertices normals

f 1//1 2//2 3//3
f 4//4 5//5 6//6
f 7//7 8//8 9//9
f 9//9 8//8 10//10
f 9//9 10//10 11//11
f 6//6 12//12 4//4
f 4//4 12//12 13//13
f 4//4 13//13 14//14
f 14//14 13//13 15//15
f 14//14 15//15 16//16
f 17//17 18//18 14//14
f 14//14 18//18 19//19
f 14//14 19//19 3//3
f 3//3 19//19 20//20
f 3//3 20//20 1//1
f 2//2 21//21 3//3
f 3//3 21//21 22//22
f 3//3 22//22 9//9
f 9//9 22//22 23//23
f 9//9 23//23 7//7
f 16//16 24//24 14//14
f 14//14 24//24 25//25
f 14//14 25//25 17//17
f 11//11 26//26 9//9
f 9//9 26//26 27//27
f 9//9 27//27 4//4
f 4//4 27//27 28//28
f 4//4 28//28 5//5
f 29//29 30//30 31//31
f 29//29 32//32 30//30
f 30//30 32//32 33//33
f 30//30 33//33 34//34
f 35//35 30//30 36//36
f 36//36 30//30 37//37
f 38//38 39//39 40//40
f 40//40 39//39 41//41
f 40//40 41//41 42//42
f 31//31 43//43 29//29
f 29//29 43//43 39//39
f 29//29 39//39 44//44
f 44//44 39//39 38//38
f 34//34 45//45 30//30
f 30//30 45//45 46//46
f 30//30 46//46 37//37
f 35//35 47//47 30//30
f 30//30 47//47 48//48
f 30//30 48//48 49//49
f 42//42 50//50 40//40
f 40//40 50//50 51//51
f 40//40 51//51 52//52
f 53//53 45//45 34//34
f 53//53 34//34 20//20
f 20//20 34//34 33//33
f 20//20 33//33 1//1
f 1//1 33//33 32//32
f 1//1 32//32 2//2
f 2//2 32//32 29//29
f 2//2 29//29 21//21
f 21//21 29//29 44//44
f 21//21 44//44 22//22
f 22//22 44//44 38//38
f 22//22 38//38 23//23
f 23//23 38//38 40//40
f 23//23 40//40 7//7
f 7//7 40//40 52//52
f 7//7 52//52 8//8
f 8//8 52//52 51//51
f 8//8 51//51 10//10
f 10//10 51//51 50//50
f 10//10 50//50 11//11
f 11//11 50//50 42//42
f 11//11 42//42 26//26
f 26//26 42//42 41//41
f 26//26 41//41 27//27
f 54//54 55//55 56//56
f 56//56 55//55 57//57
f 58//58 59//59 54//54
f 54//54 59//59 55//55
f 9//9 4//4 58//58
f 58//58 4//4 59//59
f 60//60 61//61 3//3
f 3//3 61//61 14//14
f 62//62 63//63 60//60
f 60//60 63//63 61//61
f 64//64 65//65 62//62
f 62//62 65//65 63//63
f 56//56 57//57 64//64
f 64//64 57//57 65//65
f 66//66 67//67 68//68
f 68//68 67//67 69//69
f 67//67 66//66 70//70
f 70//70 66//66 71//71
f 70//70 71//71 72//72
f 72//72 71//71 73//73
f 72//72 73//73 74//74
f 74//74 73//73 75//75
f 74//74 75//75 76//76
f 76//76 75//75 77//77
f 78//78 79//79 80//80
f 78//78 80//80 81//81
f 81//81 80//80 82//82
f 81//81 82//82 83//83
f 83//83 82//82 84//84
f 83//83 84//84 85//85
f 85//85 84//84 86//86
f 85//85 86//86 87//87
f 87//87 86//86 88//88
f 87//87 88//88 89//89
f 89//89 88//88 90//90
f 89//89 90//90 91//91
f 91//91 90//90 92//92
f 91//91 92//92 93//93
f 93//93 92//92 94//94
f 93//93 94//94 95//95
f 95//95 94//94 76//76
f 95//95 76//76 77//77
f 79//79 78//78 96//96
f 96//96 78//78 97//97
f 98//98 99//99 100//100
f 98//98 100//100 101//101
f 101//101 100//100 102//102
f 101//101 102//102 103//103
f 103//103 102//102 104//104
f 103//103 104//104 105//105
f 105//105 104//104 96//96
f 105//105 96//96 97//97
f 99//99 98//98 106//106
f 106//106 98//98 107//107
f 68//68 107//107 66//66
f 66//66 107//107 98//98
f 66//66 98//98 71//71
f 98//98 101//101 71//71
f 71//71 101//101 103//103
f 71//71 103//103 73//73
f 73//73 103//103 105//105
f 73//73 105//105 75//75
f 75//75 105//105 97//97
f 75//75 97//97 77//77
f 97//97 78//78 77//77
f 77//77 78//78 81//81
f 77//77 81//81 83//83
f 83//83 85//85 77//77
f 77//77 85//85 87//87
f 77//77 87//87 89//89
f 89//89 91//91 77//77
f 77//77 91//91 93//93
f 77//77 93//93 95//95
f 108//108 109//109 110//110
f 110//110 109//109 111//111
f 108//108 110//110 112//112
f 112//112 110//110 113//113
f 112//112 113//113 114//114
f 114//114 113//113 115//115
f 114//114 115//115 116//116
f 116//116 115//115 117//117
f 118//118 116//116 119//119
f 119//119 116//116 117//117
f 118//118 119//119 120//120
f 118//118 120//120 121//121
f 121//121 120//120 122//122
f 121//121 122//122 123//123
f 123//123 122//122 124//124
f 123//123 124//124 125//125
f 125//125 124//124 126//126
f 125//125 126//126 127//127
f 128//128 127//127 129//129
f 129//129 127//127 126//126
f 129//129 130//130 128//128
f 128//128 130//130 131//131
f 132//132 131//131 133//133
f 133//133 131//131 130//130
f 132//132 133//133 134//134
f 132//132 134//134 135//135
f 135//135 134//134 136//136
f 135//135 136//136 137//137
f 137//137 136//136 138//138
f 137//137 138//138 139//139
f 139//139 138//138 140//140
f 139//139 140//140 141//141
f 141//141 140//140 142//142
f 141//141 142//142 143//143
f 144//144 143//143 145//145
f 145//145 143//143 142//142
f 144//144 145//145 146//146
f 144//144 146//146 147//147
f 147//147 146//146 148//148
f 147//147 148//148 149//149
f 149//149 148//148 150//150
f 149//149 150//150 151//151
f 152//152 151//151 153//153
f 153//153 151//151 150//150
f 152//152 153//153 154//154
f 152//152 154//154 155//155
f 155//155 154//154 156//156
f 155//155 156//156 157//157
f 158//158 157//157 159//159
f 159//159 157//157 156//156
f 158//158 159//159 160//160
f 160//160 159//159 161//161
f 160//160 161//161 162//162
f 162//162 161//161 163//163
f 162//162 163//163 164//164
f 164//164 163//163 165//165
f 166//166 164//164 167//167
f 167//167 164//164 165//165
f 166//166 167//167 168//168
f 166//166 168//168 169//169
f 169//169 168//168 170//170
f 169//169 170//170 171//171
f 171//171 170//170 172//172
f 171//171 172//172 173//173
f 174//174 175//175 176//176
f 174//174 176//176 177//177
f 177//177 176//176 178//178
f 177//177 178//178 179//179
f 179//179 178//178 111//111
f 179//179 111//111 109//109
f 180//180 181//181 182//182
f 183//183 3//3 184//184
f 184//184 3//3 9//9
f 184//184 9//9 185//185
f 185//185 9//9 186//186
f 186//186 9//9 58//58
f 186//186 58//58 182//182
f 182//182 58//58 54//54
f 182//182 54//54 180//180
f 187//187 188//188 64//64
f 189//189 190//190 191//191
f 188//188 192//192 64//64
f 64//64 192//192 193//193
f 64//64 193//193 56//56
f 56//56 193//193 194//194
f 194//194 195//195 56//56
f 56//56 195//195 196//196
f 56//56 196//196 54//54
f 54//54 196//196 197//197
f 54//54 197//197 180//180
f 198//198 199//199 200//200
f 201//201 202//202 203//203
f 204//204 198//198 205//205
f 205//205 198//198 206//206
f 198//198 200//200 206//206
f 206//206 200//200 207//207
f 206//206 207//207 208//208
f 183//183 209//209 3//3
f 3//3 209//209 210//210
f 3//3 210//210 60//60
f 60//60 210//210 211//211
f 60//60 211//211 62//62
f 62//62 211//211 189//189
f 62//62 189//189 64//64
f 64//64 189//189 191//191
f 64//64 191//191 187//187
f 187//187 191//191 212//212
f 187//187 212//212 203//203
f 203//203 212//212 213//213
f 203//203 213//213 201//201
f 208//208 214//214 206//206
f 206//206 214//214 203//203
f 206//206 203//203 215//215
f 215//215 203//203 202//202
f 216//216 217//217 218//218
f 219//219 55//55 59//59
f 61//61 63//63 220//220
f 219//219 221//221 55//55
f 55//55 221//221 222//222
f 55//55 222//222 57//57
f 223//223 219//219 224//224
f 224//224 219//219 59//59
f 224//224 59//59 225//225
f 225//225 59//59 4//4
f 225//225 4//4 226//226
f 63//63 65//65 220//220
f 220//220 65//65 227//227
f 220//220 227//227 228//228
f 220//220 229//229 61//61
f 61//61 229//229 230//230
f 61//61 230//230 14//14
f 231//231 65//65 232//232
f 232//232 65//65 57//57
f 232//232 57//57 233//233
f 233//233 57//57 222//222
f 234//234 235//235 236//236
f 230//230 237//237 14//14
f 14//14 237//237 238//238
f 14//14 238//238 4//4
f 4//4 238//238 239//239
f 4//4 239//239 226//226
f 231//231 240//240 65//65
f 65//65 240//240 241//241
f 65//65 241//241 227//227
f 227//227 241//241 236//236
f 227//227 236//236 242//242
f 242//242 236//236 235//235
f 243//243 244//244 245//245
f 245//245 244//244 246//246
f 245//245 246//246 236//236
f 236//236 246//246 247//247
f 236//236 247//247 234//234
f 248//248 249//249 218//218
f 218//218 249//249 250//250
f 218//218 250//250 216//216
f 248//248 218//218 245//245
f 245//245 218//218 251//251
f 245//245 251//251 243//243
f 248//248 214//214 249//249
f 249//249 214//214 208//208
f 214//214 248//248 245//245
f 214//214 245//245 203//203
f 203//203 245//245 236//236
f 203//203 236//236 187//187
f 187//187 236//236 241//241
f 187//187 241//241 188//188
f 188//188 241//241 240//240
f 188//188 240//240 192//192
f 192//192 240//240 231//231
f 192//192 231//231 193//193
f 193//193 231//231 232//232
f 193//193 232//232 194//194
f 222//222 196//196 233//233
f 233//233 196//196 195//195
f 208//208 207//207 249//249
f 249//249 207//207 250//250
f 176//176 175//175 252//252
f 176//176 252//252 178//178
f 172//172 170//170 253//253
f 253//253 170//170 168//168
f 252//252 254//254 255//255
f 256//256 122//122 257//257
f 257//257 122//122 120//120
f 257//257 120//120 255//255
f 258//258 259//259 253//253
f 161//161 159//159 258//258
f 258//258 159//159 156//156
f 258//258 156//156 260//260
f 120//120 119//119 255//255
f 255//255 119//119 117//117
f 255//255 117//117 115//115
f 156//156 154//154 260//260
f 260//260 154//154 153//153
f 260//260 153//153 261//261
f 261//261 153//153 150//150
f 261//261 150//150 262//262
f 262//262 150//150 263//263
f 178//178 252//252 111//111
f 111//111 252//252 255//255
f 111//111 255//255 110//110
f 110//110 255//255 115//115
f 110//110 115//115 113//113
f 168//168 167//167 253//253
f 253//253 167//167 165//165
f 253//253 165//165 258//258
f 258//258 165//165 163//163
f 258//258 163//163 161//161
f 133//133 264//264 134//134
f 134//134 264//264 265//265
f 134//134 265//265 136//136
f 265//265 266//266 136//136
f 136//136 266//266 267//267
f 136//136 267//267 138//138
f 138//138 267//267 268//268
f 138//138 268//268 140//140
f 140//140 268//268 269//269
f 140//140 269//269 142//142
f 150//150 148//148 263//263
f 263//263 148//148 146//146
f 263//263 146//146 270//270
f 270//270 146//146 145//145
f 270//270 145//145 271//271
f 271//271 145//145 142//142
f 271//271 142//142 272//272
f 272//272 142//142 269//269
f 273//273 126//126 256//256
f 256//256 126//126 124//124
f 256//256 124//124 122//122
f 133//133 130//130 264//264
f 264//264 130//130 129//129
f 264//264 129//129 274//274
f 274//274 129//129 126//126
f 274//274 126//126 275//275
f 275//275 126//126 273//273
f 276//276 277//277 278//278
f 279//279 280//280 281//281
f 282//282 283//283 279//279
f 284//284 285//285 277//277
f 277//277 285//285 286//286
f 277//277 286//286 278//278
f 281//281 287//287 279//279
f 279//279 287//287 288//288
f 279//279 288//288 289//289
f 290//290 276//276 291//291
f 291//291 276//276 278//278
f 291//291 278//278 280//280
f 280//280 278//278 292//292
f 280//280 292//292 281//281
f 281//281 292//292 293//293
f 289//289 294//294 279//279
f 279//279 294//294 295//295
f 279//279 295//295 282//282
f 283//283 296//296 279//279
f 279//279 296//296 297//297
f 279//279 297//297 298//298
f 298//298 297//297 299//299
f 189//189 261//261 262//262
f 189//189 262//262 190//190
f 190//190 262//262 263//263
f 190//190 263//263 191//191
f 191//191 263//263 270//270
f 191//191 270//270 212//212
f 212//212 270//270 271//271
f 212//212 271//271 213//213
f 213//213 271//271 272//272
f 213//213 272//272 201//201
f 201//201 272//272 269//269
f 201//201 269//269 202//202
f 202//202 269//269 268//268
f 202//202 268//268 215//215
f 215//215 268//268 267//267
f 215//215 267//267 206//206
f 287//287 220//220 228//228
f 287//287 228//228 288//288
f 288//288 228//228 227//227
f 288//288 227//227 289//289
f 289//289 227//227 242//242
f 289//289 242//242 294//294
f 294//294 242//242 235//235
f 294//294 235//235 295//295
f 295//295 235//235 234//234
f 295//295 234//234 282//282
f 282//282 234//234 247//247
f 282//282 247//247 283//283
f 283//283 247//247 246//246
f 283//283 246//246 296//296
f 296//296 246//246 244//244
f 296//296 244//244 297//297
f 198//198 264//264 199//199
f 199//199 264//264 274//274
f 217//217 280//280 218//218
f 218//218 280//280 279//279
f 181//181 256//256 182//182
f 182//182 256//256 257//257
f 224//224 277//277 223//223
f 223//223 277//277 276//276
f 182//182 257//257 255//255
f 182//182 255//255 186//186
f 186//186 255//255 254//254
f 186//186 254//254 185//185
f 185//185 254//254 252//252
f 185//185 252//252 184//184
f 277//277 224//224 225//225
f 277//277 225//225 284//284
f 284//284 225//225 226//226
f 284//284 226//226 285//285
f 285//285 226//226 239//239
f 285//285 239//239 286//286
f 69//69 173//173 172//172
f 253//253 183//183 172//172
f 172//172 183//183 184//184
f 175//175 174//174 106//106
f 106//106 107//107 68//68
f 68//68 69//69 106//106
f 106//106 69//69 172//172
f 106//106 172//172 175//175
f 175//175 172//172 184//184
f 175//175 184//184 252//252
f 238//238 278//278 239//239
f 239//239 278//278 286//286
f 183//183 253//253 259//259
f 183//183 259//259 209//209
f 209//209 259//259 258//258
f 209//209 258//258 210//210
f 210//210 258//258 260//260
f 210//210 260//260 211//211
f 278//278 238//238 237//237
f 278//278 237//237 292//292
f 292//292 237//237 230//230
f 292//292 230//230 293//293
f 293//293 230//230 229//229
f 293//293 229//229 281//281
f 211//211 260//260 189//189
f 189//189 260//260 261//261
f 220//220 287//287 229//229
f 229//229 287//287 281//281
f 72//72 74//74 160//160
f 69//69 67//67 162//162
f 160//160 74//74 158//158
f 166//166 169//169 171//171
f 102//102 100//100 114//114
f 114//114 100//100 99//99
f 114//114 99//99 112//112
f 112//112 99//99 108//108
f 162//162 67//67 160//160
f 160//160 67//67 70//70
f 160//160 70//70 72//72
f 162//162 164//164 69//69
f 69//69 164//164 166//166
f 69//69 166//166 173//173
f 173//173 166//166 171//171
f 174//174 177//177 179//179
f 99//99 106//106 108//108
f 108//108 106//106 174//174
f 108//108 174//174 109//109
f 109//109 174//174 179//179
f 151//151 152//152 74//74
f 158//158 74//74 157//157
f 157//157 74//74 152//152
f 157//157 152//152 155//155
f 74//74 76//76 151//151
f 151//151 76//76 94//94
f 151//151 94//94 149//149
f 149//149 94//94 92//92
f 127//127 128//128 96//96
f 96//96 128//128 79//79
f 128//128 131//131 79//79
f 79//79 131//131 132//132
f 79//79 132//132 80//80
f 80//80 132//132 135//135
f 80//80 135//135 82//82
f 82//82 135//135 137//137
f 82//82 137//137 84//84
f 84//84 137//137 139//139
f 84//84 139//139 86//86
f 86//86 139//139 141//141
f 86//86 141//141 88//88
f 88//88 141//141 143//143
f 88//88 143//143 90//90
f 90//90 143//143 144//144
f 90//90 144//144 92//92
f 92//92 144//144 147//147
f 92//92 147//147 149//149
f 114//114 116//116 102//102
f 102//102 116//116 118//118
f 102//102 118//118 121//121
f 96//96 104//104 127//127
f 127//127 104//104 102//102
f 127//127 102//102 125//125
f 125//125 102//102 121//121
f 125//125 121//121 123//123
f 297//297 244//244 243//243
f 297//297 243//243 299//299
f 299//299 243//243 251//251
f 299//299 251//251 298//298
f 298//298 251//251 218//218
f 298//298 218//218 279//279
f 206//206 267//267 266//266
f 206//206 266//266 205//205
f 205//205 266//266 265//265
f 205//205 265//265 204//204
f 204//204 265//265 264//264
f 204//204 264//264 198//198
f 223//223 276//276 290//290
f 199//199 274//274 275//275
f 291//291 280//280 217//217
f 273//273 256//256 181//181
f 181//181 180//180 219//219
f 219//219 180//180 197//197
f 219//219 197//197 221//221
f 221//221 197//197 196//196
f 221//221 196//196 222//222
f 217//217 216//216 200//200
f 200//200 216//216 250//250
f 200//200 250//250 207//207
f 219//219 223//223 181//181
f 181//181 223//223 290//290
f 181//181 290//290 273//273
f 273//273 290//290 291//291
f 273//273 291//291 275//275
f 275//275 291//291 217//217
f 275//275 217//217 199//199
f 199//199 217//217 200//200
f 232//232 233//233 194//194
f 194//194 233//233 195//195
f 27//27 41//41 39//39
f 27//27 39//39 28//28
f 28//28 39//39 43//43
f 28//28 43//43 5//5
f 5//5 43//43 31//31
f 5//5 31//31 6//6
f 6//6 31//31 30//30
f 6//6 30//30 12//12
f 12//12 30//30 49//49
f 12//12 49//49 13//13
f 13//13 49//49 48//48
f 13//13 48//48 15//15
f 15//15 48//48 47//47
f 15//15 47//47 16//16
f 16//16 47//47 35//35
f 16//16 35//35 24//24
f 24//24 35//35 36//36
f 24//24 36//36 25//25
f 25//25 36//36 37//37
f 25//25 37//37 17//17
f 17//17 37//37 46//46
f 17//17 46//46 18//18
f 18//18 46//46 300//300
f 18//18 300//300 19//19
# 596 faces, 0 coords texture

# End of File
