####
#
# OBJ File Generated by Meshlab
#
####
# Object link_4.obj
#
# Vertices: 786
# Faces: 1568
#
####
v 0.012254 0.043700 0.022426
v 0.004189 0.043700 0.013541
v 0.011506 0.043547 0.021829
v 0.004337 0.043691 0.013718
v 0.010480 0.043025 0.021476
v 0.010033 0.042716 0.021443
v 0.008952 0.041781 0.021644
v 0.004834 0.043416 0.014674
v 0.004904 0.043287 0.014942
v 0.004902 0.042457 0.016177
v 0.004819 0.042186 0.016488
v 0.003984 0.040700 0.017779
v 0.003358 0.039700 0.018578
v 0.007161 0.039700 0.022766
v 0.003637 0.040193 0.018152
v 0.007612 0.040193 0.022530
v 0.008016 0.040700 0.022221
v 0.011650 0.043700 0.003907
v 0.011500 0.043691 0.003729
v 0.004443 0.043700 -0.004033
v 0.011006 0.043419 0.002780
v 0.010899 0.042629 0.001486
v 0.010484 0.039700 -0.003328
v 0.007404 0.039700 -0.006721
v 0.010700 0.040063 -0.002550
v 0.010959 0.040951 -0.000944
v 0.004049 0.039700 -0.009144
v 0.002429 0.043700 -0.005486
v 0.000000 0.039700 -0.010000
v 0.000000 0.043700 -0.006000
v 0.002017 0.043547 0.011376
v 0.002765 0.043700 0.011973
v -0.004443 0.043700 0.004033
v 0.000486 0.042673 0.010990
v 0.000544 0.042716 0.010989
v 0.000992 0.043025 0.011023
v -0.007404 0.039700 0.006721
v -0.004324 0.039700 0.010114
v -0.003766 0.039965 0.010335
v -0.001997 0.040951 0.010817
v 0.000427 0.042629 0.010992
v 0.003585 0.039700 -0.012172
v 0.002409 0.039700 -0.011219
v -0.014652 0.039700 0.001403
v -0.013689 0.039700 0.002480
v -0.012333 0.039700 0.002981
v 0.008512 0.039700 -0.007696
v 0.009034 0.039700 -0.006276
v 0.006000 0.039700 -0.013392
v 0.004647 0.039700 -0.013070
v 0.008749 0.039700 -0.009190
v -0.012333 0.039700 -0.002981
v -0.013689 0.039700 -0.002480
v -0.014652 0.039700 -0.001403
v -0.009385 0.039700 0.003452
v -0.009952 0.039700 0.004685
v -0.007425 0.039700 0.008116
v -0.010921 0.039700 0.003523
v -0.010921 0.039700 -0.003523
v -0.015000 0.039700 -0.000000
v 0.000919 0.039700 -0.010962
v 0.000000 0.039700 -0.011000
v -0.003752 0.039700 -0.009269
v -0.004049 0.039700 -0.010228
v -0.006956 0.039700 -0.007184
v -0.007529 0.039700 -0.008019
v -0.009144 0.039700 -0.004049
v -0.009952 0.039700 -0.004685
v -0.009995 0.039700 -0.000322
v 0.008990 0.039700 -0.010643
v 0.008511 0.039700 -0.012035
v 0.007427 0.039700 -0.013031
v 0.003143 0.039700 0.019084
v 0.003068 0.039700 0.020636
v 0.003779 0.039700 0.022016
v 0.006636 0.039700 0.022932
v 0.005084 0.039700 0.022857
v 0.030992 0.043700 0.025214
v 0.030992 0.037700 0.025214
v 0.011650 0.037700 0.003907
v 0.030958 0.043700 0.025921
v 0.030958 0.037700 0.025921
v 0.031074 0.037700 0.025764
v 0.031074 0.043700 0.025764
v 0.031121 0.037700 0.025575
v 0.031121 0.043700 0.025575
v 0.031092 0.037700 0.025382
v 0.031092 0.043700 0.025382
v 0.022813 0.043700 0.033314
v 0.022813 0.037700 0.033314
v 0.022107 0.043700 0.033280
v 0.022107 0.037700 0.033280
v 0.022324 0.037700 0.033420
v 0.022324 0.043700 0.033420
v 0.022583 0.037700 0.033432
v 0.022583 0.043700 0.033432
v 0.002765 0.037700 0.011973
v 0.004189 0.037700 0.013541
v 0.057464 0.014158 0.045500
v 0.062342 0.016643 0.045500
v 0.081908 0.010286 0.045500
v 0.053592 0.010286 0.045500
v 0.084393 0.005408 0.045500
v 0.085250 0.000000 0.045500
v 0.073158 -0.016643 0.045500
v 0.067750 -0.017500 0.045500
v 0.051107 -0.005408 0.045500
v 0.067750 0.017500 0.045500
v 0.073158 0.016643 0.045500
v 0.078036 0.014158 0.045500
v 0.050250 0.000000 0.045500
v 0.051107 0.005408 0.045500
v 0.081908 -0.010286 0.045500
v 0.084393 -0.005408 0.045500
v 0.078036 -0.014158 0.045500
v 0.062342 -0.016643 0.045500
v 0.057464 -0.014158 0.045500
v 0.053592 -0.010286 0.045500
v 0.085250 0.000000 0.046500
v 0.084393 -0.005408 0.046500
v 0.081908 -0.010286 0.046500
v 0.078036 -0.014158 0.046500
v 0.073158 -0.016643 0.046500
v 0.067750 -0.017500 0.046500
v 0.062342 -0.016643 0.046500
v 0.057464 -0.014158 0.046500
v 0.053592 -0.010286 0.046500
v 0.051107 -0.005408 0.046500
v 0.050250 0.000000 0.046500
v 0.040675 -0.008900 0.046500
v 0.040707 -0.008996 0.046509
v 0.034000 -0.008900 0.046500
v 0.031350 -0.009150 0.046567
v 0.031350 -0.008900 0.046500
v 0.040831 -0.009359 0.046804
v 0.040845 -0.009400 0.047000
v 0.031350 -0.009400 0.047000
v 0.040733 -0.009072 0.046531
v 0.040782 -0.009218 0.046614
v 0.031350 -0.009254 0.046646
v 0.031350 -0.009333 0.046750
v 0.031100 -0.009275 0.046783
v 0.030996 -0.008900 0.046646
v 0.031100 -0.008900 0.046567
v 0.031100 -0.009117 0.046625
v 0.031159 -0.008900 0.046538
v 0.030917 -0.009025 0.046783
v 0.030850 -0.008900 0.047000
v 0.030888 -0.008900 0.046809
v 0.030917 -0.008900 0.046750
v 0.031100 -0.009333 0.047000
v 0.030917 -0.009117 0.046875
v 0.030917 -0.009150 0.047000
v 0.031350 -0.009400 0.076500
v 0.031100 -0.009333 0.076500
v 0.030917 -0.009150 0.076500
v 0.030850 -0.008900 0.076500
v 0.029850 -0.008900 0.082500
v 0.030598 -0.008900 0.079541
v 0.029913 -0.009150 0.082522
v 0.030664 -0.009150 0.079552
v 0.030086 -0.009333 0.082581
v 0.030845 -0.009333 0.079582
v 0.030323 -0.009400 0.082662
v 0.031091 -0.009400 0.079624
v 0.029595 -0.009400 0.085541
v 0.029348 -0.009333 0.085500
v 0.029168 -0.009150 0.085470
v 0.029102 -0.008900 0.085459
v 0.029350 -0.009400 0.088500
v 0.029100 -0.009333 0.088500
v 0.028917 -0.009150 0.088500
v 0.028850 -0.008900 0.088500
v 0.029350 -0.009400 0.097086
v 0.029100 -0.009333 0.097086
v 0.028917 -0.009150 0.097086
v 0.028850 -0.008900 0.097086
v 0.029496 -0.009400 0.097439
v 0.029361 -0.009362 0.097575
v 0.029388 -0.009400 0.097277
v 0.029157 -0.009333 0.097373
v 0.029320 -0.009333 0.097616
v 0.029246 -0.009254 0.097689
v 0.028988 -0.009150 0.097443
v 0.028926 -0.008900 0.097468
v 0.029143 -0.008900 0.097793
v 0.029170 -0.009091 0.097766
v 0.029190 -0.009150 0.097746
v 0.030911 -0.009400 0.098854
v 0.030775 -0.009362 0.098989
v 0.030734 -0.009333 0.099030
v 0.030661 -0.009254 0.099104
v 0.030604 -0.009150 0.099160
v 0.030584 -0.009091 0.099180
v 0.030557 -0.008900 0.099207
v 0.030977 -0.009333 0.099193
v 0.031073 -0.009400 0.098962
v 0.031264 -0.009400 0.099000
v 0.030907 -0.009150 0.099362
v 0.030882 -0.008900 0.099424
v 0.031264 -0.009333 0.099250
v 0.031264 -0.009254 0.099354
v 0.031264 -0.009150 0.099433
v 0.031264 -0.008900 0.099500
v 0.040845 -0.009400 0.099000
v 0.040843 -0.009396 0.099062
v 0.040675 -0.008900 0.099500
v 0.040757 -0.009145 0.099436
v 0.040834 -0.009368 0.099173
v 0.040814 -0.009312 0.099283
v 0.040794 -0.009253 0.099354
v 0.034000 0.008900 0.046500
v 0.031350 0.008900 0.046500
v 0.031350 0.009150 0.046567
v 0.040757 0.009145 0.046564
v 0.040675 0.008900 0.046500
v 0.031350 0.009254 0.046646
v 0.040814 0.009312 0.046717
v 0.031350 0.009333 0.046750
v 0.040834 0.009368 0.046827
v 0.040843 0.009396 0.046938
v 0.031350 0.009400 0.047000
v 0.040845 0.009400 0.047000
v 0.031254 0.009131 0.046567
v 0.031119 0.008996 0.046567
v 0.030950 0.009066 0.046750
v 0.031044 0.009206 0.046750
v 0.030888 0.008900 0.046809
v 0.030850 0.008900 0.047000
v 0.030888 0.009091 0.047000
v 0.030917 0.008900 0.046750
v 0.030917 0.009150 0.047000
v 0.030996 0.009254 0.047000
v 0.031100 0.009333 0.047000
v 0.031159 0.009362 0.047000
v 0.031184 0.009300 0.046750
v 0.031159 0.008900 0.046538
v 0.031100 0.008900 0.046567
v 0.030996 0.008900 0.046646
v 0.031173 0.009077 0.046567
v 0.030850 0.008900 0.076500
v 0.030917 0.009150 0.076500
v 0.031100 0.009333 0.076500
v 0.031350 0.009400 0.076500
v 0.030598 0.008900 0.079541
v 0.030664 0.009150 0.079552
v 0.030845 0.009333 0.079582
v 0.031091 0.009400 0.079624
v 0.029850 0.008900 0.082500
v 0.029913 0.009150 0.082522
v 0.030086 0.009333 0.082581
v 0.030323 0.009400 0.082662
v 0.029350 0.009400 0.088500
v 0.029595 0.009400 0.085541
v 0.029100 0.009333 0.088500
v 0.029348 0.009333 0.085500
v 0.028917 0.009150 0.088500
v 0.029168 0.009150 0.085470
v 0.028850 0.008900 0.088500
v 0.029102 0.008900 0.085459
v 0.028850 0.008900 0.097086
v 0.028888 0.009091 0.097086
v 0.028917 0.009150 0.097086
v 0.028996 0.009254 0.097086
v 0.029350 0.009400 0.097086
v 0.029159 0.009362 0.097086
v 0.029100 0.009333 0.097086
v 0.029320 0.009333 0.097616
v 0.029361 0.009362 0.097575
v 0.029211 0.009362 0.097350
v 0.029496 0.009400 0.097439
v 0.029388 0.009400 0.097277
v 0.029061 0.009254 0.097412
v 0.028961 0.009091 0.097454
v 0.029190 0.009150 0.097746
v 0.029246 0.009254 0.097689
v 0.028926 0.008900 0.097468
v 0.029143 0.008900 0.097793
v 0.029170 0.009091 0.097766
v 0.030557 0.008900 0.099207
v 0.030604 0.009150 0.099160
v 0.030734 0.009333 0.099030
v 0.030911 0.009400 0.098854
v 0.031264 0.009400 0.099000
v 0.031073 0.009400 0.098962
v 0.031264 0.009333 0.099250
v 0.030977 0.009333 0.099193
v 0.031264 0.009254 0.099354
v 0.030907 0.009150 0.099362
v 0.030882 0.008900 0.099424
v 0.031264 0.008900 0.099500
v 0.031264 0.009150 0.099433
v 0.040675 0.008900 0.099500
v 0.040707 0.008996 0.099491
v 0.040831 0.009359 0.099196
v 0.040845 0.009400 0.099000
v 0.040733 0.009072 0.099469
v 0.040782 0.009218 0.099386
v 0.060750 0.025184 0.099500
v 0.060750 0.025184 0.101500
v 0.061077 0.026546 0.101500
v 0.061077 0.026546 0.099500
v 0.061986 0.027611 0.101500
v 0.061986 0.027611 0.099500
v 0.063279 0.028147 0.101500
v 0.063279 0.028147 0.099500
v 0.063279 -0.028147 0.099500
v 0.063279 -0.028147 0.101500
v 0.061986 -0.027611 0.101500
v 0.061986 -0.027611 0.099500
v 0.061077 -0.026546 0.101500
v 0.061077 -0.026546 0.099500
v 0.060750 -0.025184 0.101500
v 0.060750 -0.025184 0.099500
v 0.061802 -0.027872 0.099500
v 0.055337 -0.025655 0.099500
v 0.041489 0.011072 0.099500
v 0.061802 0.027872 0.099500
v 0.044880 0.017006 0.099500
v 0.055337 0.025655 0.099500
v 0.049586 0.021962 0.099500
v 0.041489 -0.011072 0.099500
v 0.049586 -0.021962 0.099500
v 0.044880 -0.017006 0.099500
v 0.087204 -0.020828 0.046500
v 0.084883 -0.022775 0.046500
v 0.085910 -0.021541 0.046500
v 0.085910 0.021541 0.046500
v 0.084883 0.022775 0.046500
v 0.087204 0.020828 0.046500
v 0.091603 -0.015598 0.046500
v 0.086279 0.019978 0.046500
v 0.091603 0.015598 0.046500
v 0.086012 0.018639 0.046500
v 0.051006 -0.007868 0.046500
v 0.049448 -0.002699 0.046500
v 0.049448 0.002699 0.046500
v 0.051107 0.005408 0.046500
v 0.051006 0.007868 0.046500
v 0.053592 0.010286 0.046500
v 0.053991 0.012367 0.046500
v 0.057464 0.014158 0.046500
v 0.058147 0.015812 0.046500
v 0.062342 0.016643 0.046500
v 0.063120 0.017911 0.046500
v 0.067750 0.017500 0.046500
v 0.068488 0.018485 0.046500
v 0.073158 0.016643 0.046500
v 0.073793 0.017485 0.046500
v 0.078036 0.014158 0.046500
v 0.078584 0.014996 0.046500
v 0.081908 0.010286 0.046500
v 0.080092 0.014375 0.046500
v 0.084393 0.005408 0.046500
v 0.094631 0.009470 0.046500
v 0.081718 -0.014505 0.046500
v 0.096112 0.002798 0.046500
v 0.083108 -0.015358 0.046500
v 0.086279 -0.019978 0.046500
v 0.086012 -0.018639 0.046500
v 0.094631 -0.009470 0.046500
v 0.085254 -0.017504 0.046500
v 0.096112 -0.002798 0.046500
v 0.096250 -0.000000 0.046500
v 0.080092 -0.014375 0.046500
v 0.078584 -0.014996 0.046500
v 0.073793 -0.017485 0.046500
v 0.068488 -0.018485 0.046500
v 0.063120 -0.017911 0.046500
v 0.058147 -0.015812 0.046500
v 0.053991 -0.012367 0.046500
v 0.081718 0.014505 0.046500
v 0.083108 0.015358 0.046500
v 0.085254 0.017504 0.046500
v 0.040750 0.022500 0.041500
v 0.040750 -0.022500 0.041500
v 0.039375 0.022500 0.041132
v 0.039375 -0.022500 0.041132
v 0.038368 0.022500 0.040125
v 0.038368 -0.022500 0.040125
v 0.038000 0.022500 0.038750
v 0.038000 -0.022500 0.038750
v 0.081718 0.014505 0.041500
v 0.080092 0.014375 0.041500
v 0.078584 0.014996 0.041500
v 0.049358 -0.023128 0.041500
v 0.044383 -0.022500 0.041500
v 0.053991 -0.012367 0.041500
v 0.051006 -0.007868 0.041500
v 0.054019 -0.024974 0.041500
v 0.058147 -0.015812 0.041500
v 0.055337 -0.025655 0.041500
v 0.063120 -0.017911 0.041500
v 0.061802 -0.027872 0.041500
v 0.044383 0.022500 0.041500
v 0.053991 0.012367 0.041500
v 0.049358 0.023128 0.041500
v 0.058147 0.015812 0.041500
v 0.051006 0.007868 0.041500
v 0.049448 0.002699 0.041500
v 0.049448 -0.002699 0.041500
v 0.084883 0.022775 0.041500
v 0.085910 0.021541 0.041500
v 0.086279 0.019978 0.041500
v 0.068609 -0.028487 0.041500
v 0.068488 -0.018485 0.041500
v 0.075366 -0.027464 0.041500
v 0.073793 -0.017485 0.041500
v 0.081686 -0.024861 0.041500
v 0.078584 -0.014996 0.041500
v 0.080092 -0.014375 0.041500
v 0.083108 0.015358 0.041500
v 0.081686 0.024861 0.041500
v 0.085254 0.017504 0.041500
v 0.086012 0.018639 0.041500
v 0.075366 0.027464 0.041500
v 0.073793 0.017485 0.041500
v 0.068609 0.028487 0.041500
v 0.068488 0.018485 0.041500
v 0.061802 0.027872 0.041500
v 0.063120 0.017911 0.041500
v 0.055337 0.025655 0.041500
v 0.054019 0.024974 0.041500
v 0.086279 -0.019978 0.041500
v 0.085910 -0.021541 0.041500
v 0.086012 -0.018639 0.041500
v 0.084883 -0.022775 0.041500
v 0.085254 -0.017504 0.041500
v 0.083108 -0.015358 0.041500
v 0.081718 -0.014505 0.041500
v 0.037464 -0.022500 0.044500
v 0.044383 -0.022500 0.046500
v 0.036000 -0.022500 0.045964
v 0.034000 -0.022500 0.046500
v 0.038000 -0.022500 0.042500
v 0.054019 -0.024974 0.046500
v 0.049358 -0.023128 0.046500
v 0.044383 0.022500 0.046500
v 0.049358 0.023128 0.046500
v 0.054019 0.024974 0.046500
v 0.037464 0.022500 0.044500
v 0.036000 0.022500 0.045964
v 0.034000 0.022500 0.046500
v 0.038000 0.022500 0.042500
v 0.021588 0.022252 0.041693
v 0.021549 0.021227 0.041913
v 0.021572 0.021926 0.042026
v 0.021559 0.021227 0.042129
v 0.021675 0.021974 0.042221
v 0.021659 0.021227 0.042321
v 0.021856 0.022001 0.042354
v 0.021830 0.021227 0.042453
v 0.022057 0.022003 0.042397
v 0.022042 0.021227 0.042500
v 0.022101 0.022727 0.042098
v 0.021902 0.022721 0.042054
v 0.021723 0.022668 0.041931
v 0.021619 0.022577 0.041755
v 0.022171 0.023348 0.041621
v 0.021976 0.023336 0.041575
v 0.021799 0.023261 0.041469
v 0.021694 0.023134 0.041323
v 0.021691 0.023062 0.041110
v 0.021770 0.023392 0.040663
v 0.021794 0.023568 0.040769
v 0.021899 0.023714 0.040872
v 0.022066 0.023804 0.040954
v 0.022262 0.023825 0.041000
v 0.021549 -0.021227 0.041913
v 0.021559 -0.021227 0.042129
v 0.021659 -0.021227 0.042321
v 0.021830 -0.021227 0.042453
v 0.022042 -0.021227 0.042500
v 0.023514 0.027923 0.033901
v 0.023318 0.027903 0.033855
v 0.023151 0.027812 0.033773
v 0.023046 0.027666 0.033671
v 0.023021 0.027490 0.033565
v 0.021632 -0.022683 0.041445
v 0.021770 -0.023392 0.040663
v 0.021694 -0.023134 0.041323
v 0.021794 -0.023567 0.040769
v 0.021799 -0.023261 0.041469
v 0.021898 -0.023712 0.040871
v 0.021976 -0.023336 0.041575
v 0.022063 -0.023803 0.040953
v 0.022171 -0.023348 0.041621
v 0.022262 -0.023825 0.041000
v 0.022101 -0.022727 0.042098
v 0.021902 -0.022721 0.042054
v 0.021723 -0.022668 0.041931
v 0.021619 -0.022577 0.041755
v 0.022057 -0.022003 0.042397
v 0.021856 -0.022001 0.042354
v 0.021675 -0.021974 0.042221
v 0.021572 -0.021926 0.042026
v 0.021561 -0.021799 0.041847
v 0.023227 0.027987 0.032399
v 0.023253 0.028165 0.032456
v 0.023360 0.028333 0.032524
v 0.023532 0.028440 0.032585
v 0.023719 0.028467 0.032626
v 0.023447 0.028195 0.031151
v 0.023479 0.028376 0.031165
v 0.023588 0.028547 0.031192
v 0.023756 0.028660 0.031226
v 0.023939 0.028694 0.031260
v 0.023021 -0.027490 0.033565
v 0.023046 -0.027665 0.033670
v 0.023149 -0.027810 0.033772
v 0.023315 -0.027902 0.033854
v 0.023514 -0.027923 0.033901
v 0.023960 0.028699 0.031130
v 0.023981 0.028700 0.031000
v 0.023793 0.028662 0.030967
v 0.023526 0.028391 0.030920
v 0.023489 0.028200 0.030913
v 0.023468 0.028199 0.031032
v 0.023633 0.028554 0.030939
v 0.023255 -0.028168 0.032447
v 0.023227 -0.027988 0.032398
v 0.023447 -0.028195 0.031151
v 0.023757 -0.028660 0.031226
v 0.023939 -0.028694 0.031260
v 0.023722 -0.028471 0.032612
v 0.023480 -0.028379 0.031165
v 0.023590 -0.028549 0.031192
v 0.023362 -0.028336 0.032515
v 0.023533 -0.028443 0.032576
v 0.024246 0.028700 0.029500
v 0.024156 0.028692 0.029484
v 0.024061 0.028663 0.029467
v 0.023899 0.028555 0.029439
v 0.023791 0.028392 0.029420
v 0.023753 0.028200 0.029413
v 0.023960 -0.028699 0.031130
v 0.023468 -0.028199 0.031032
v 0.023489 -0.028200 0.030913
v 0.023526 -0.028391 0.030920
v 0.023633 -0.028554 0.030939
v 0.023793 -0.028662 0.030967
v 0.023981 -0.028700 0.031000
v 0.024301 0.028677 0.029126
v 0.024398 0.028515 0.028462
v 0.024327 0.028459 0.028342
v 0.024076 0.028324 0.028353
v 0.024497 0.028163 0.027788
v 0.024557 0.027822 0.027379
v 0.024473 0.027809 0.027376
v 0.024485 0.026826 0.026751
v 0.024653 0.026848 0.026728
v 0.024687 0.025700 0.026500
v 0.024188 0.026107 0.026947
v 0.024161 0.026657 0.027103
v 0.024214 0.026720 0.026959
v 0.023964 0.028171 0.028397
v 0.023941 0.027962 0.028349
v 0.024114 0.027588 0.027534
v 0.024106 0.027198 0.027412
v 0.024520 0.025700 0.026529
v 0.024462 0.025700 0.026553
v 0.024328 0.026782 0.026831
v 0.024363 0.025700 0.026618
v 0.024285 0.025700 0.026701
v 0.024238 0.028430 0.028338
v 0.024386 0.027785 0.027385
v 0.024227 0.027702 0.027439
v 0.024194 0.025700 0.026913
v 0.024636 0.027090 0.026842
v 0.023753 -0.028200 0.029413
v 0.023791 -0.028391 0.029420
v 0.023898 -0.028554 0.029439
v 0.024057 -0.028662 0.029467
v 0.024246 -0.028700 0.029500
v 0.024194 -0.025700 0.026913
v 0.024687 -0.025700 0.026500
v 0.024520 -0.025700 0.026529
v 0.024462 -0.025700 0.026553
v 0.024363 -0.025700 0.026618
v 0.024285 -0.025700 0.026701
v 0.024659 -0.026739 0.026686
v 0.024653 -0.026848 0.026728
v 0.024485 -0.026826 0.026751
v 0.024557 -0.027822 0.027379
v 0.024454 -0.028346 0.028086
v 0.024317 -0.028154 0.027830
v 0.024238 -0.028430 0.028338
v 0.024076 -0.028324 0.028353
v 0.023830 -0.028162 0.028980
v 0.023922 -0.028010 0.028456
v 0.023964 -0.028171 0.028397
v 0.024021 -0.027688 0.027898
v 0.024153 -0.028603 0.028891
v 0.024332 -0.028642 0.028915
v 0.024227 -0.027702 0.027439
v 0.024114 -0.027588 0.027534
v 0.024214 -0.026720 0.026959
v 0.024153 -0.026756 0.027147
v 0.024683 -0.026063 0.026522
v 0.024328 -0.026782 0.026831
v 0.024611 -0.027383 0.027017
v 0.024386 -0.027785 0.027385
v 0.030000 0.028515 0.028462
v 0.030000 0.028700 0.029500
v 0.030000 0.027821 0.027379
v 0.030000 0.026738 0.026685
v 0.030000 0.025700 0.026500
v 0.030000 -0.025700 0.026500
v 0.030000 -0.027821 0.027379
v 0.030000 -0.026738 0.026685
v 0.030000 -0.028515 0.028462
v 0.030000 -0.028700 0.029500
v 0.030000 -0.028700 0.031000
v 0.030000 -0.028694 0.031260
v 0.030000 -0.028467 0.032627
v 0.030000 -0.027923 0.033901
v 0.030000 -0.023825 0.041000
v 0.030000 -0.023195 0.041764
v 0.030000 -0.022203 0.042337
v 0.030000 -0.021227 0.042500
v 0.030000 0.021227 0.042500
v 0.030000 0.022203 0.042337
v 0.030000 0.023195 0.041764
v 0.030000 0.023825 0.041000
v 0.030000 0.027923 0.033901
v 0.030000 0.028467 0.032627
v 0.030000 0.028694 0.031260
v 0.030000 0.028700 0.031000
v 0.030304 -0.032700 0.044031
v -0.010527 -0.032700 0.013980
v 0.031172 -0.032700 0.045328
v 0.031594 -0.032700 0.045695
v 0.030536 -0.032700 0.024500
v 0.000566 -0.032700 -0.017491
v -0.004898 -0.032700 -0.016800
v 0.037323 -0.032700 0.024274
v 0.014539 -0.032700 -0.009739
v 0.036000 -0.032700 0.023036
v 0.034000 -0.032700 0.022500
v 0.032000 -0.032700 0.023036
v 0.010792 -0.032700 -0.013776
v 0.005975 -0.032700 -0.016448
v 0.030000 -0.032700 0.042500
v 0.030000 -0.032700 0.026500
v -0.014351 -0.032700 0.010016
v -0.016753 -0.032700 0.005059
v -0.017495 -0.032700 -0.000399
v -0.016505 -0.032700 -0.005818
v -0.013879 -0.032700 -0.010660
v -0.009878 -0.032700 -0.014446
v -0.014351 -0.037700 0.010016
v -0.016753 -0.037700 0.005059
v -0.017495 -0.037700 -0.000399
v 0.037464 -0.037700 0.024500
v 0.038000 -0.037700 0.026500
v 0.031594 -0.037700 0.045695
v 0.038000 -0.037700 0.042500
v 0.032469 -0.037700 0.046196
v 0.010792 -0.037700 -0.013776
v -0.010527 -0.037700 0.013980
v 0.014539 -0.037700 -0.009739
v 0.037323 -0.037700 0.024274
v 0.000566 -0.037700 -0.017491
v 0.005975 -0.037700 -0.016448
v 0.037464 -0.037700 0.044500
v 0.036000 -0.037700 0.045964
v 0.034000 -0.037700 0.046500
v -0.009878 -0.037700 -0.014446
v -0.004898 -0.037700 -0.016800
v -0.013879 -0.037700 -0.010660
v -0.016505 -0.037700 -0.005818
v 0.030000 0.032700 0.042500
v 0.030000 0.032700 0.026500
v 0.030304 0.032700 0.044031
v -0.010527 0.032700 0.013980
v 0.031172 0.032700 0.045328
v 0.031594 0.032700 0.045695
v 0.014539 0.032700 -0.009739
v 0.037323 0.032700 0.024274
v 0.036000 0.032700 0.023036
v 0.034000 0.032700 0.022500
v 0.032000 0.032700 0.023036
v 0.010792 0.032700 -0.013776
v 0.005975 0.032700 -0.016448
v 0.030536 0.032700 0.024500
v 0.000566 0.032700 -0.017491
v -0.009878 0.032700 -0.014446
v -0.004898 0.032700 -0.016800
v -0.014351 0.032700 0.010016
v -0.013879 0.032700 -0.010660
v -0.016505 0.032700 -0.005818
v -0.017495 0.032700 -0.000399
v -0.016753 0.032700 0.005059
v 0.014539 0.037700 -0.009739
v 0.037323 0.037700 0.024274
v 0.010792 0.037700 -0.013776
v 0.005975 0.037700 -0.016448
v 0.000566 0.037700 -0.017491
v -0.004898 0.037700 -0.016800
v -0.009878 0.037700 -0.014446
v -0.013879 0.037700 -0.010660
v -0.016505 0.037700 -0.005818
v -0.017495 0.037700 -0.000399
v -0.016753 0.037700 0.005059
v -0.014351 0.037700 0.010016
v -0.010527 0.037700 0.013980
v 0.031594 0.037700 0.045695
v 0.034000 0.037700 0.046500
v 0.032469 0.037700 0.046196
v 0.038000 0.037700 0.026500
v 0.038000 0.037700 0.042500
v 0.037464 0.037700 0.024500
v 0.049586 0.021962 0.046500
v 0.041489 0.011072 0.046500
v 0.044880 0.017006 0.046500
v 0.094631 -0.009470 0.101500
v 0.096112 -0.002798 0.101500
v 0.068609 -0.028487 0.101500
v 0.075366 -0.027464 0.101500
v 0.081686 -0.024861 0.101500
v 0.087204 -0.020828 0.101500
v 0.096112 0.002798 0.101500
v 0.094631 0.009470 0.101500
v 0.096250 -0.000000 0.101500
v 0.091603 -0.015598 0.101500
v 0.091603 0.015598 0.101500
v 0.087204 0.020828 0.101500
v 0.081686 0.024861 0.101500
v 0.068609 0.028487 0.101500
v 0.075366 0.027464 0.101500
v 0.041489 -0.011072 0.046500
v 0.044880 -0.017006 0.046500
v 0.049586 -0.021962 0.046500
v 0.007427 0.037700 -0.013031
v 0.008511 0.037700 -0.012035
v 0.008016 0.037700 0.022221
v 0.006636 0.037700 0.022932
v 0.005084 0.037700 0.022857
v 0.003779 0.037700 0.022016
v 0.036000 0.037700 0.045964
v 0.037464 0.037700 0.044500
v -0.012333 0.037700 0.002981
v -0.010921 0.037700 0.003523
v -0.009952 0.037700 0.004685
v -0.007425 0.037700 0.008116
v -0.003783 0.037700 0.010329
v 0.000427 0.037700 0.010992
v -0.013689 0.037700 0.002480
v -0.014652 0.037700 0.001403
v -0.015000 0.037700 -0.000000
v 0.008990 0.037700 -0.010643
v 0.008749 0.037700 -0.009190
v 0.008512 0.037700 -0.007696
v 0.012254 0.037700 0.022426
v 0.011247 0.037700 0.021700
v 0.010033 0.037700 0.021443
v 0.003984 0.037700 0.017779
v 0.001759 0.037700 0.011246
v -0.014652 0.037700 -0.001403
v -0.013689 0.037700 -0.002480
v -0.012333 0.037700 -0.002981
v 0.008952 0.037700 0.021644
v 0.004824 0.037700 0.016473
v 0.004899 0.037700 0.014922
v 0.003068 0.037700 0.020636
v 0.003143 0.037700 0.019084
v 0.000544 0.037700 0.010989
v 0.011006 0.037700 0.002780
v 0.010899 0.037700 0.001486
v 0.010695 0.037700 -0.002571
v 0.009034 0.037700 -0.006276
v -0.010921 0.037700 -0.003523
v -0.009952 0.037700 -0.004685
v -0.007529 0.037700 -0.008019
v -0.004049 0.037700 -0.010228
v 0.000000 0.037700 -0.011000
v 0.000919 0.037700 -0.010962
v 0.006000 0.037700 -0.013392
v 0.004647 0.037700 -0.013070
v 0.003585 0.037700 -0.012172
v 0.002409 0.037700 -0.011219
v -0.002251 0.043700 -0.005562
v -0.005997 0.043700 -0.000193
v -0.005631 0.043700 0.002071
v -0.005486 0.043700 -0.002429
v -0.004174 0.043700 -0.004310
vn -0.195413 0.964214 0.179178
vn -0.069031 0.995671 0.062244
vn -0.563394 0.279898 0.777331
vn -0.636219 0.580897 0.507724
vn -0.413016 0.366832 0.833578
vn -0.384528 0.570338 0.725846
vn -0.385629 0.626719 0.677136
vn -0.882149 0.131810 0.452149
vn -0.898253 0.250992 0.360754
vn -0.864252 0.431006 0.259428
vn -0.919895 0.391574 0.021520
vn -0.651797 0.675029 0.345683
vn -0.473290 0.878628 0.063315
vn -0.139721 0.674445 0.724984
vn -0.679325 0.667879 0.304065
vn -0.372774 0.669380 0.642628
vn -0.118293 0.551990 0.825417
vn 0.303393 0.912220 -0.275331
vn 0.838469 0.163416 -0.519870
vn 0.227697 0.944784 -0.235662
vn 0.869633 0.341351 -0.356677
vn 0.780733 0.516281 -0.352007
vn 0.787682 0.470261 -0.398009
vn 0.412586 0.794194 -0.446126
vn 0.734498 0.544473 -0.405046
vn 0.781564 0.508273 -0.361685
vn 0.227068 0.862670 -0.451929
vn 0.114988 0.931198 -0.345901
vn 0.037793 0.795300 -0.605036
vn -0.029841 0.922785 -0.384158
vn -0.562068 0.259627 0.785286
vn -0.148374 0.978610 0.142505
vn -0.117692 0.987856 0.101431
vn -0.288092 0.417157 0.861965
vn -0.412217 0.522596 0.746305
vn -0.404677 0.346513 0.846265
vn -0.498133 0.788402 0.360950
vn -0.539875 0.554096 0.633650
vn -0.508266 0.596204 0.621455
vn -0.404136 0.437553 0.803257
vn -0.415556 0.524550 0.743075
vn -0.110253 0.984923 -0.133304
vn -0.287410 0.810418 -0.510508
vn -0.298491 0.935141 0.190826
vn -0.489116 0.115039 0.864599
vn -0.061909 0.984466 0.164300
vn 0.283270 0.957589 -0.052746
vn 0.867084 0.309686 -0.390204
vn -0.039763 0.813136 -0.580714
vn -0.256406 0.870101 -0.420928
vn 0.348193 0.935720 0.056476
vn -0.130386 0.929119 -0.346030
vn -0.624755 0.115062 -0.772296
vn -0.649612 0.707794 -0.277545
vn -0.535322 0.827347 0.170081
vn -0.733073 0.388919 0.557984
vn -0.618656 0.453825 0.641333
vn -0.184991 0.931761 0.312409
vn -0.159195 0.969552 -0.186079
vn -0.990006 0.114841 0.081854
vn -0.088445 0.213661 -0.972896
vn -0.148491 0.433014 -0.889072
vn -0.203690 0.791426 -0.576329
vn -0.382624 0.441444 -0.811619
vn -0.405396 0.791017 -0.458200
vn -0.653884 0.443060 -0.613297
vn -0.548179 0.790619 -0.272804
vn -0.547187 0.728122 -0.412824
vn -0.626983 0.777527 -0.048423
vn 0.978957 0.119159 -0.165663
vn 0.717914 0.411400 -0.561560
vn 0.295208 0.674510 -0.676675
vn -0.606514 0.781020 -0.148821
vn -0.946107 0.132412 0.295549
vn -0.606799 0.445721 0.658125
vn 0.015312 0.936815 0.349490
vn -0.155379 0.705675 0.691289
vn 0.229904 0.950695 -0.208140
vn 0.677623 0.405558 -0.613474
vn 0.501145 0.741408 -0.446282
vn 0.674768 0.082294 0.733428
vn 0.260978 0.921841 0.286529
vn 0.026189 0.999551 0.014526
vn 0.930849 0.004218 0.365380
vn 0.211069 0.977176 0.024027
vn 0.999685 0.016238 -0.019124
vn 0.630801 0.754801 -0.179904
vn 0.917170 0.034070 -0.397036
vn 0.667346 0.086530 0.739704
vn 0.249940 0.926312 0.281915
vn -0.328290 0.894553 0.303316
vn -0.619448 0.545166 0.564870
vn -0.276955 0.700901 0.657293
vn -0.217768 0.007448 0.975972
vn 0.068002 0.838187 0.541126
vn 0.297330 0.027606 0.954376
vn -0.615658 0.405936 0.675411
vn -0.789322 0.220444 0.573040
vn -0.046545 0.071739 -0.996337
vn -0.031863 0.119090 -0.992372
vn 0.032838 0.021306 -0.999234
vn -0.013028 0.010558 -0.999859
vn 0.052147 0.013952 -0.998542
vn 0.047328 -0.002500 -0.998876
vn 0.022105 -0.082620 -0.996336
vn -0.006503 -0.123103 -0.992373
vn -0.027185 -0.007273 -0.999604
vn 0.010753 0.203563 -0.979003
vn 0.147041 0.382655 -0.912115
vn 0.546919 0.674867 -0.495414
vn -0.047328 0.002500 -0.998876
vn -0.041025 0.015765 -0.999034
vn 0.014690 -0.011905 -0.999821
vn 0.041025 -0.015765 -0.999034
vn 0.035613 -0.054889 -0.997857
vn -0.073122 -0.190289 -0.979001
vn -0.258087 -0.318465 -0.912125
vn -0.728701 -0.472789 -0.495445
vn 0.105074 0.005550 -0.994449
vn 0.363939 -0.097374 -0.926319
vn 0.453983 -0.294549 -0.840916
vn 0.450605 -0.556021 -0.698423
vn 0.254286 -0.661745 -0.705289
vn 0.037867 -0.716873 -0.696175
vn -0.188120 -0.703109 -0.685746
vn -0.402306 -0.620067 -0.673548
vn -0.460760 -0.373404 -0.805152
vn -0.632911 -0.243206 -0.735034
vn -0.676729 -0.035747 -0.735364
vn -0.001412 -0.004867 0.999987
vn -0.020978 -0.225821 -0.973943
vn -0.175373 -0.003839 0.984495
vn -0.006057 -0.387423 -0.921882
vn -0.013374 -0.003712 -0.999904
vn -0.089946 -0.915634 -0.391822
vn -0.107236 -0.994233 -0.000482
vn -0.013325 -0.999905 -0.003528
vn -0.091327 -0.450821 -0.887930
vn -0.104184 -0.685137 -0.720925
vn -0.006723 -0.753794 -0.657076
vn -0.007157 -0.924438 -0.381265
vn -0.464903 -0.776229 -0.425833
vn -0.738144 -0.003030 -0.674636
vn -0.573514 -0.001618 -0.819194
vn -0.480343 -0.448327 -0.753839
vn -0.258859 -0.003701 -0.965908
vn -0.809222 -0.344520 -0.475884
vn -0.999997 -0.001875 -0.001283
vn -0.965913 -0.001187 -0.258865
vn -0.850911 -0.000764 -0.525310
vn -0.574913 -0.818214 -0.001394
vn -0.821523 -0.520819 -0.232049
vn -0.906958 -0.421221 -0.000370
vn -0.002674 -0.999996 -0.000021
vn -0.420948 -0.907079 -0.003305
vn -0.818031 -0.575139 -0.006371
vn -0.999879 -0.006712 -0.014002
vn -0.969489 -0.005485 -0.245075
vn -0.981486 -0.003706 -0.191500
vn -0.841057 -0.497411 -0.212614
vn -0.854337 -0.500823 -0.138870
vn -0.486753 -0.864820 -0.123112
vn -0.493192 -0.866603 -0.075904
vn -0.006712 -0.999976 -0.001698
vn -0.007522 -0.999971 -0.001043
vn -0.007243 -0.999973 -0.001415
vn -0.493170 -0.865389 -0.088793
vn -0.854341 -0.498715 -0.146235
vn -0.981631 -0.003703 -0.190752
vn -0.010986 -0.999940 -0.000234
vn -0.575231 -0.817898 -0.012362
vn -0.906924 -0.420837 -0.019619
vn -0.999763 -0.001868 -0.021669
vn -0.005617 -0.999984 0.000024
vn -0.421574 -0.906791 0.002523
vn -0.818360 -0.574673 0.006131
vn -0.999937 -0.007312 0.008467
vn -0.006161 -0.999963 0.006050
vn -0.193985 -0.965707 0.172565
vn -0.223718 -0.972022 0.071581
vn -0.530055 -0.827279 0.186147
vn -0.383190 -0.847136 0.368138
vn -0.500909 -0.733668 0.459153
vn -0.832133 -0.458685 0.311710
vn -0.946670 -0.003126 0.322189
vn -0.729393 -0.001066 0.684094
vn -0.706098 -0.256885 0.659876
vn -0.590487 -0.573600 0.567722
vn -0.003690 -0.999986 0.003821
vn -0.177360 -0.965786 0.189213
vn -0.399516 -0.819052 0.411752
vn -0.495903 -0.681954 0.537605
vn -0.586843 -0.527031 0.614698
vn -0.642316 -0.256668 0.722185
vn -0.684296 -0.003867 0.729194
vn -0.183733 -0.863432 0.469817
vn -0.080433 -0.974750 0.208309
vn -0.002080 -0.987821 0.155580
vn -0.332239 -0.509706 0.793610
vn -0.441731 -0.004257 0.897137
vn -0.002182 -0.928469 0.371404
vn -0.005886 -0.693168 0.720752
vn -0.011490 -0.378200 0.925653
vn -0.007710 -0.003576 0.999964
vn -0.205050 -0.978752 0.000044
vn -0.072076 -0.972447 0.221704
vn -0.000209 -0.000984 0.999999
vn -0.041536 -0.393841 0.918240
vn -0.166066 -0.928817 0.331243
vn -0.100363 -0.833477 0.543363
vn -0.133473 -0.693863 0.707629
vn -0.109001 0.014011 0.993943
vn -0.013413 0.001934 -0.999908
vn -0.000722 0.361701 -0.932294
vn -0.059659 0.459631 -0.886104
vn -0.001212 0.004179 0.999991
vn -0.002464 0.692781 -0.721144
vn -0.108550 0.782575 -0.613019
vn -0.002785 0.928498 -0.371326
vn -0.167441 0.928656 -0.331001
vn -0.072709 0.972413 -0.221644
vn -0.001459 0.999999 -0.000892
vn -0.298343 0.954459 -0.000063
vn -0.215141 0.485268 -0.847484
vn -0.504561 0.279823 -0.816772
vn -0.793535 0.341740 -0.503503
vn -0.633299 0.613971 -0.471140
vn -0.965911 0.002262 -0.258864
vn -0.999997 0.002112 -0.001280
vn -0.965875 0.258997 -0.002610
vn -0.819170 0.000922 -0.573550
vn -0.920253 0.391319 -0.001680
vn -0.707107 0.707107 -0.000847
vn -0.552369 0.833588 -0.004383
vn -0.258865 0.965913 -0.000905
vn -0.328446 0.818768 -0.470896
vn -0.258865 0.000987 -0.965913
vn -0.526473 0.002387 -0.850189
vn -0.674415 0.001525 -0.738351
vn -0.371031 0.432331 -0.821843
vn -0.999985 0.003712 -0.004059
vn -0.859194 0.511586 -0.008052
vn -0.521052 0.853513 -0.004478
vn -0.010641 0.999943 -0.000094
vn -0.990541 0.003712 -0.137170
vn -0.853225 0.500746 -0.145807
vn -0.491328 0.866492 -0.088252
vn -0.007455 0.999971 -0.001453
vn -0.969499 0.002778 -0.245078
vn -0.840195 0.498946 -0.212427
vn -0.484939 0.865907 -0.122633
vn -0.006654 0.999976 -0.001682
vn -0.007866 0.999969 -0.000141
vn -0.007310 0.999973 -0.001010
vn -0.489876 0.871729 -0.010510
vn -0.495120 0.865507 -0.075855
vn -0.846888 0.531408 -0.019653
vn -0.855561 0.498785 -0.138665
vn -0.999745 0.006161 -0.021735
vn -0.990436 0.003697 -0.137924
vn -0.999964 0.001062 0.008474
vn -0.966171 0.257824 0.006387
vn -0.833516 0.552335 0.013301
vn -0.707106 0.707106 0.001616
vn -0.003350 0.999994 0.000033
vn -0.258865 0.965914 0.000041
vn -0.552373 0.833559 0.007960
vn -0.412145 0.831704 0.372028
vn -0.182856 0.966371 0.180808
vn -0.344870 0.928546 0.137358
vn -0.003759 0.999986 0.003631
vn -0.005608 0.999980 0.002872
vn -0.661563 0.697999 0.274101
vn -0.849922 0.352675 0.391476
vn -0.620966 0.552508 0.556000
vn -0.503499 0.708724 0.494166
vn -0.897105 0.002069 0.441812
vn -0.729577 0.002440 0.683895
vn -0.692729 0.256923 0.673882
vn -0.684169 0.002734 0.729318
vn -0.587675 0.499353 0.636620
vn -0.356375 0.850463 0.386923
vn -0.010101 0.999889 0.010944
vn -0.000932 0.983728 0.179661
vn -0.072630 0.970718 0.228981
vn -0.003189 0.925092 0.379729
vn -0.189695 0.872973 0.449371
vn -0.005042 0.753384 0.657562
vn -0.315245 0.496182 0.808965
vn -0.322569 0.003610 0.946539
vn -0.007840 0.004314 0.999960
vn -0.004859 0.399470 0.916733
vn -0.000056 0.000263 1.000000
vn -0.017292 0.231361 0.972714
vn -0.089169 0.915654 0.391952
vn -0.080132 0.996784 0.000363
vn -0.090525 0.450634 0.888107
vn -0.103281 0.685031 0.721155
vn -0.090824 0.001119 0.995866
vn -0.442992 0.001419 0.896524
vn -0.855172 0.352767 0.379785
vn -0.353365 0.217058 0.909955
vn -0.646908 0.754888 0.107958
vn -0.518746 0.848393 0.105510
vn -0.115923 0.649892 0.751134
vn -0.090624 0.995884 -0.001255
vn -0.091326 -0.995821 -0.000644
vn -0.006847 -0.051763 0.998636
vn -0.518608 -0.848168 0.107971
vn -0.470325 -0.548830 0.691072
vn -0.042337 -0.026006 0.998765
vn -0.497735 -0.205321 0.842676
vn -0.039550 -0.000487 0.999217
vn -0.325811 -0.001044 0.945434
vn -0.299379 -0.954120 0.005243
vn -0.430598 -0.902184 0.025475
vn -0.678662 0.342368 0.649771
vn -0.227093 0.904873 0.360047
vn -0.821779 0.561139 0.099004
vn -0.432917 0.899856 0.053317
vn -0.646728 0.762669 0.008866
vn -0.820604 -0.449877 0.352448
vn -0.408261 -0.493605 0.767904
vn -0.702206 -0.567357 0.430131
vn 0.729940 -0.683461 -0.008313
vn 0.591957 -0.805969 0.000644
vn 0.836866 -0.338777 -0.429983
vn 0.851794 0.512006 -0.110895
vn 0.589937 0.807448 0.001229
vn 0.702862 0.711285 -0.007632
vn 0.813639 -0.580064 -0.038962
vn 0.765201 0.080719 -0.638711
vn 0.817922 0.489041 -0.303054
vn 0.724491 -0.245487 -0.644087
vn 0.867278 0.460850 -0.188273
vn 0.963503 0.190790 -0.187780
vn 0.977566 -0.095399 -0.187788
vn -0.655013 0.175252 -0.735013
vn 0.908321 -0.373503 -0.188278
vn -0.570122 0.369901 -0.733576
vn 0.761624 -0.619802 -0.189142
vn -0.429626 0.530134 -0.731013
vn 0.550135 -0.813053 -0.190516
vn -0.246033 0.640269 -0.727683
vn 0.291941 -0.936878 -0.192431
vn -0.036429 0.689651 -0.723225
vn 0.009049 -0.980812 -0.194744
vn 0.179969 0.672643 -0.717749
vn -0.274314 -0.941125 -0.197573
vn 0.382677 0.589813 -0.711111
vn -0.431941 -0.874854 -0.219219
vn 0.630297 0.510799 -0.584645
vn -0.056211 -0.741179 -0.668950
vn 0.412806 0.158627 -0.896899
vn 0.928558 0.285644 -0.237038
vn 0.016542 0.068994 -0.997480
vn 0.951022 0.136204 -0.277499
vn 0.114866 0.146893 -0.982460
vn 0.815917 0.031744 -0.577298
vn 0.334307 0.165162 -0.927880
vn 0.925908 -0.368690 -0.082227
vn 0.212402 0.197647 -0.956986
vn 0.970457 -0.186372 -0.153226
vn 0.987419 -0.016233 -0.157293
vn -0.188658 0.787546 -0.586668
vn -0.416452 0.843483 -0.339270
vn -0.364836 0.908551 -0.203543
vn -0.086959 0.974351 -0.207553
vn 0.197815 0.957028 -0.212055
vn 0.465145 0.858233 -0.216969
vn 0.702545 0.696870 -0.144232
vn 0.239143 -0.573892 -0.783236
vn 0.151692 -0.167524 -0.974128
vn 0.566722 -0.469958 -0.676732
vn 0.025239 0.024741 -0.999375
vn 0.043184 -0.066273 -0.996867
vn 0.420231 0.054183 -0.905798
vn 0.574188 -0.054174 -0.816929
vn 0.817928 0.022216 -0.574891
vn 0.906907 -0.022220 -0.420745
vn 0.999800 0.000833 -0.020000
vn 0.999835 -0.001511 -0.018129
vn 0.103694 -0.432478 -0.895662
vn -0.232664 -0.971247 -0.050457
vn -0.097369 -0.197211 -0.975514
vn -0.157378 -0.520841 -0.839021
vn -0.054354 -0.587814 -0.807168
vn 0.204099 0.166094 -0.964757
vn 0.403116 0.165762 -0.900011
vn -0.097184 -0.229943 -0.968340
vn 0.307783 0.454878 -0.835677
vn -0.337645 -0.901765 -0.269846
vn 0.092759 0.297676 -0.950150
vn -0.242013 -0.964323 -0.107293
vn -0.026867 0.602108 -0.797962
vn 0.221906 -0.220114 -0.949899
vn -0.084591 0.398440 -0.913285
vn 0.193262 -0.356586 -0.914055
vn 0.384910 -0.204532 -0.900006
vn 0.151194 -0.029939 -0.988051
vn 0.544362 0.053123 -0.837167
vn 0.537241 0.619466 -0.572393
vn 0.925823 0.374789 -0.048833
vn 0.983872 -0.038278 -0.174731
vn 0.004674 -0.985772 -0.168024
vn 0.003829 0.414990 -0.909818
vn 0.225519 -0.962132 -0.153112
vn -0.115688 0.396904 -0.910540
vn 0.412775 -0.890333 -0.192155
vn -0.309636 0.627137 -0.714720
vn -0.033633 0.443470 -0.895658
vn 0.392204 -0.501557 -0.771114
vn 0.432885 0.870911 -0.232646
vn 0.472037 -0.439246 -0.764358
vn 0.846376 -0.418146 -0.329852
vn 0.302081 0.940675 -0.154527
vn -0.156045 -0.388599 -0.908097
vn 0.031259 0.992547 -0.117786
vn -0.036965 -0.414184 -0.909442
vn -0.202883 0.950800 -0.234133
vn 0.083784 -0.405346 -0.910316
vn -0.334935 0.929740 -0.152976
vn -0.251458 0.611826 -0.749959
vn 0.993664 -0.104819 -0.040566
vn 0.846297 -0.508702 -0.158128
vn 0.877391 0.297296 -0.376563
vn 0.466402 -0.593398 -0.656010
vn 0.420787 0.348941 -0.837364
vn 0.385110 0.425306 -0.819027
vn 0.384155 0.921888 -0.050479
vn 0.804312 -0.462306 0.373304
vn -0.024620 -0.697761 0.715908
vn 0.563527 -0.199313 0.801693
vn 0.021720 -0.016033 0.999636
vn 0.993241 -0.069992 0.092587
vn -0.518293 -0.855054 0.015963
vn -0.205132 -0.966212 0.156060
vn -0.047052 0.771472 0.634521
vn -0.254805 0.843274 0.473247
vn -0.533448 0.845786 0.008910
vn 0.663993 0.584185 0.466735
vn 0.412548 0.199308 0.888865
vn -0.001836 0.016807 0.999857
vn 0.998838 0.017041 0.045084
vn -0.996205 0.051664 -0.070047
vn -0.992932 0.000183 -0.118684
vn -0.971087 0.112560 0.210524
vn -0.943851 0.001095 0.330369
vn -0.759421 0.209098 0.616082
vn -0.717954 0.001955 0.696088
vn -0.421407 0.254582 0.870404
vn -0.355089 0.002324 0.934830
vn -0.004459 0.222359 0.974955
vn -0.002940 0.001219 0.999995
vn -0.002959 0.499126 0.866524
vn -0.417345 0.485932 0.767915
vn -0.754125 0.389915 0.528451
vn -0.946693 0.239605 0.215317
vn -0.004072 0.731815 0.681491
vn -0.409773 0.680385 0.607588
vn -0.743341 0.536923 0.398945
vn -0.956066 0.275567 0.100000
vn -0.990418 0.045456 -0.130406
vn -0.984838 0.000334 -0.173476
vn -0.955832 0.293872 0.004940
vn -0.771566 0.597669 0.217897
vn -0.400006 0.818833 0.411713
vn -0.005625 0.860569 0.509303
vn -0.985393 0.000001 -0.170296
vn -0.981969 -0.000712 0.189041
vn -0.811951 -0.001655 0.583723
vn -0.489472 -0.002286 0.872016
vn -0.011206 -0.002382 0.999934
vn -0.005221 0.874141 0.485643
vn -0.381155 0.838158 0.390144
vn -0.674674 0.689473 0.263519
vn -0.909535 0.410113 0.067480
vn -0.984949 0.001458 -0.172840
vn -0.994859 -0.065251 -0.077452
vn -0.988056 -0.044373 -0.147567
vn -0.957610 -0.265213 0.112451
vn -0.912201 -0.402358 0.077439
vn -0.738223 -0.531215 0.415738
vn -0.680314 -0.676752 0.281389
vn -0.405451 -0.678342 0.612749
vn -0.334269 -0.835415 0.436286
vn -0.004353 -0.733243 0.679953
vn -0.003093 -0.862994 0.505205
vn -0.003074 -0.500825 0.865543
vn -0.413544 -0.484361 0.770958
vn -0.753418 -0.376757 0.538902
vn -0.948188 -0.212286 0.236378
vn -0.004321 -0.224400 0.974488
vn -0.420108 -0.250446 0.872231
vn -0.763285 -0.193638 0.616361
vn -0.970640 -0.097487 0.219897
vn -0.993853 -0.016664 -0.109450
vn -0.984824 0.000947 -0.173554
vn -0.924363 0.376671 -0.060600
vn -0.715082 0.695415 0.071100
vn -0.391352 0.899844 0.192679
vn -0.005816 0.969759 0.243997
vn -0.984828 0.000599 -0.173531
vn -0.938975 0.322922 -0.118524
vn -0.755504 0.653993 -0.038811
vn -0.441795 0.895815 0.048299
vn -0.010741 0.988366 0.151712
vn -0.986153 -0.015801 -0.165086
vn -0.951710 -0.306998 -0.000297
vn -0.759297 -0.617056 0.206664
vn -0.441482 -0.815659 0.373891
vn -0.011294 -0.875335 0.483384
vn -0.005848 0.999742 0.021947
vn -0.007239 0.999974 -0.000474
vn -0.405175 0.911708 -0.067989
vn -0.927957 0.335640 -0.161992
vn -0.984812 0.000171 -0.173626
vn -0.984783 0.001283 -0.173783
vn -0.727643 0.674407 -0.125347
vn -0.922377 -0.380368 -0.067390
vn -0.983619 -0.124461 -0.130396
vn -0.982016 -0.103232 -0.158075
vn -0.374718 -0.924462 0.070399
vn -0.003104 -0.987559 0.157216
vn -0.007632 -0.948525 0.316609
vn -0.911413 -0.396865 -0.108745
vn -0.739981 -0.671673 -0.035818
vn -0.716160 -0.694376 0.070399
vn -0.425913 -0.881511 0.203807
vn -0.000732 0.999976 -0.006853
vn -0.245985 0.964910 -0.091868
vn -0.450394 0.874041 -0.182200
vn -0.652581 0.740295 -0.161561
vn -0.877142 0.441081 -0.189920
vn -0.984019 0.028588 -0.175752
vn -0.002835 -0.999740 0.022613
vn -0.984805 -0.000003 -0.173662
vn -0.984856 -0.001294 -0.173370
vn -0.891023 -0.426157 -0.156423
vn -0.663663 -0.739224 -0.114453
vn -0.333266 -0.941191 -0.055623
vn -0.003822 -0.999993 -0.000301
vn -0.006594 0.984222 -0.176818
vn 0.002274 0.959326 -0.282292
vn -0.342184 0.862843 -0.372038
vn -0.671486 0.658782 -0.339282
vn 0.001606 0.842252 -0.539081
vn 0.007083 0.691870 -0.721988
vn -0.349444 0.662102 -0.662955
vn -0.345873 0.325762 -0.879915
vn -0.019741 0.249152 -0.968263
vn -0.005376 0.007743 -0.999956
vn -0.982458 0.002204 -0.186470
vn -0.982071 0.006486 -0.188400
vn -0.854655 0.160723 -0.493693
vn -0.892970 0.330211 -0.305884
vn -0.975074 0.070631 -0.210339
vn -0.899050 0.223736 -0.376365
vn -0.978265 0.027751 -0.205493
vn -0.205058 0.002307 -0.978747
vn -0.466031 0.004950 -0.884755
vn -0.645514 0.224054 -0.730145
vn -0.611382 0.001790 -0.791334
vn -0.867167 0.001223 -0.498015
vn -0.447466 0.770333 -0.454270
vn -0.375818 0.586646 -0.717361
vn -0.655539 0.476672 -0.585707
vn -0.983422 0.000002 -0.181331
vn 0.003807 0.555940 -0.831214
vn -0.984791 -0.000672 -0.173740
vn -0.908054 -0.370480 -0.195404
vn -0.715448 -0.673381 -0.186256
vn -0.400563 -0.911251 -0.095760
vn -0.010576 -0.999524 -0.028983
vn -0.976863 -0.000116 -0.213868
vn -0.005292 -0.000213 -0.999986
vn -0.264855 -0.003342 -0.964283
vn -0.514855 -0.004048 -0.857268
vn -0.670960 -0.001813 -0.741492
vn -0.866771 -0.002357 -0.498700
vn 0.001056 -0.210285 -0.977640
vn -0.026562 -0.459752 -0.887650
vn -0.399898 -0.329213 -0.855395
vn 0.002796 -0.791727 -0.610869
vn -0.000206 -0.883030 -0.469317
vn -0.370856 -0.735092 -0.567543
vn -0.480761 -0.800062 -0.358845
vn -0.699836 -0.604085 -0.381197
vn -0.984804 -0.000193 -0.173667
vn -0.983306 -0.017260 -0.181139
vn -0.879081 -0.352486 -0.320889
vn -0.978840 -0.034688 -0.201666
vn -0.368670 -0.887027 -0.277967
vn -0.003244 -0.976741 -0.214399
vn -0.677002 -0.440582 -0.589538
vn -0.898231 -0.217983 -0.381661
vn -0.868405 -0.142104 -0.475057
vn -0.970631 -0.037056 -0.237702
vn -0.014046 -0.176363 -0.984225
vn -0.645514 -0.224054 -0.730145
vn 0.000036 -0.547309 -0.836931
vn -0.447593 -0.551694 -0.703771
vn -0.469287 0.793445 -0.387576
vn -0.460961 0.882790 -0.090542
vn -0.598923 0.566256 -0.566256
vn -0.221029 0.374494 -0.900500
vn -0.198534 0.001652 -0.980093
vn -0.578906 -0.004598 -0.815381
vn -0.519189 -0.594062 -0.614438
vn -0.323787 -0.379854 -0.866529
vn -0.423769 -0.822326 -0.379735
vn -0.367853 -0.928659 -0.047705
vn -0.524559 -0.851368 0.003161
vn -0.449717 -0.885081 0.119942
vn -0.955673 -0.285643 0.071391
vn -0.511482 -0.750958 0.417669
vn -0.705915 -0.603672 0.370492
vn -0.520595 -0.536562 0.664140
vn -0.329484 -0.338548 0.881377
vn -0.246376 -0.002823 0.969170
vn -0.223458 0.005598 0.974697
vn -0.329484 0.338548 0.881377
vn -0.520595 0.536562 0.664140
vn -0.508122 0.738967 0.442425
vn -0.789643 0.536616 0.297501
vn -0.582405 0.770388 0.259434
vn -0.966453 0.254031 0.037901
vn -0.330692 0.943737 0.001993
vn -0.872503 0.345743 0.345253
vn -0.333817 0.835636 0.436210
vn -0.785993 0.104539 0.609333
vn -0.587824 0.005598 0.808970
vn -0.139710 0.985559 -0.095676
vn -0.003738 0.983633 -0.180145
vn -0.049497 0.988714 -0.141404
vn 0.783237 0.025393 -0.621204
vn 0.645032 0.607120 -0.464046
vn 0.452606 0.276353 -0.847807
vn 0.084564 0.311089 -0.946611
vn -0.370659 0.474163 -0.798612
vn 0.166910 0.956796 -0.238079
vn 0.070482 0.970252 -0.231608
vn -0.249704 0.968310 0.004812
vn -0.126340 0.991978 -0.004334
vn -0.158556 0.979574 0.123670
vn -0.175055 0.982531 0.063157
vn -0.097235 0.995257 0.002941
vn -0.953126 0.114724 -0.279981
vn -0.074433 0.995914 -0.051130
vn -0.082241 0.990791 -0.107561
vn -0.127807 -0.988611 0.079458
vn -0.964908 -0.114673 0.236227
vn -0.120908 -0.992621 -0.009185
vn 0.954089 -0.078185 -0.289139
vn 0.997517 -0.067037 -0.021571
vn -0.119877 -0.979876 0.159602
vn 0.945030 -0.324191 0.042656
vn -0.342344 -0.043626 0.938562
vn 0.055270 -0.996462 -0.063320
vn -0.090184 -0.989469 0.113220
vn 0.133326 -0.986864 -0.091239
vn 0.238616 -0.957881 -0.159767
vn 0.016621 -0.980861 -0.194000
vn 0.388239 -0.114627 -0.914402
vn 0.817883 -0.023402 0.574908
vn 0.419397 -0.087033 0.903621
vn 0.063674 -0.238272 0.969109
vn -0.516337 -0.114719 -0.848667
vn -0.208481 -0.410478 -0.887718
vn -0.514417 -0.735810 -0.440408
vn -0.483893 -0.851969 -0.199991
vn -0.255378 -0.966829 0.004805
vn -0.136370 -0.990645 -0.005049
vn -0.900695 -0.205147 0.382965
vn -0.199534 -0.947331 0.250501
vn -0.773417 -0.205733 0.599584
vn -0.587239 -0.002780 0.809409
vn 0.751543 -0.413126 -0.514305
vn 0.788322 -0.046616 -0.613494
vn 0.466153 -0.142312 -0.873183
vn -0.084564 -0.311089 -0.946611
vn -0.433280 -0.657512 -0.616398
vn 0.280867 -0.904199 -0.321772
vn 0.075955 -0.980932 -0.178892
vn -0.144499 -0.987150 -0.068222
vn 0.009430 -0.993879 -0.110068
vn -0.036665 -0.997509 -0.060263
vn -0.227125 -0.114548 -0.967105
vn -0.123926 -0.989296 0.077045
vn -0.754627 -0.114657 -0.646059
vn -0.083456 -0.995914 -0.034492
vn -0.113015 -0.993556 -0.008586
vn -0.964908 -0.114673 0.236227
vn 0.466083 0.818740 -0.335307
vn 0.469725 0.824863 -0.314579
vn 0.523359 0.410864 -0.746516
vn 0.263425 0.425792 -0.865626
vn -0.012073 0.813238 -0.581806
vn -0.210582 0.770545 -0.601595
vn -0.384980 0.773480 -0.503507
vn -0.539458 0.756083 -0.370572
vn -0.833016 0.496193 -0.244698
vn -0.932807 0.359270 0.028210
vn -0.794031 0.536141 0.286475
vn -0.469141 0.803747 0.365919
vn -0.522073 0.511888 0.682210
vn -0.299258 0.866561 0.399395
vn 0.104049 0.653960 0.749340
vn -0.283713 0.174424 0.942912
vn 0.995250 0.081829 -0.052735
vn 0.844190 0.535454 0.025138
vn 0.952225 0.090629 -0.291639
vn -0.657043 0.753604 0.019406
vn -0.869255 0.476548 0.131520
vn -0.767874 0.620415 0.159546
vn 0.933330 -0.287112 0.215549
vn 0.769583 -0.110218 0.628962
vn 0.081595 -0.915857 0.393126
vn 0.305557 -0.951499 0.035854
vn 0.498665 -0.866706 0.012397
vn 0.700383 -0.708775 0.084273
vn 0.905262 0.173852 0.387654
vn 0.822084 0.327348 0.465855
vn 0.918463 0.015100 0.395218
vn 0.849080 -0.507671 0.146061
vn 0.703416 0.501483 0.503708
vn 0.497439 0.532559 0.684788
vn 0.440116 0.793248 0.420779
vn 0.037517 0.685069 0.727511
vn 0.195116 0.832422 0.518655
vn -0.839305 -0.423409 0.341015
vn -0.815954 -0.557161 0.154241
vn -0.646459 -0.762353 0.030145
vn 0.438308 0.599530 -0.669663
vn 0.265189 0.953495 -0.143258
vn 0.029062 0.998383 0.048852
vn 0.017499 0.992551 0.120569
vn -0.083767 0.976529 0.198429
vn -0.052544 0.997826 0.039791
vn 0.383135 0.745733 0.545060
vn 0.906815 0.023402 0.420879
vn -0.076499 0.976182 0.203018
vn -0.644940 0.125516 0.753855
vn -0.179457 0.974237 0.136595
vn -0.229092 0.942309 0.244071
vn -0.150550 0.862364 0.483386
vn -0.023086 0.978606 0.204444
vn -0.387003 0.788268 0.478396
vn -0.313058 0.940268 0.133753
vn -0.365698 0.930242 -0.030236
vn 0.483279 0.875466 0.000337
vn 0.330562 0.942260 0.053617
vn 0.437009 0.899444 -0.004759
vn -0.651625 0.435957 0.620746
vn -0.385225 0.036173 0.922113
vn 0.015768 0.118157 0.992870
vn -0.403315 0.876121 -0.264099
vn -0.326630 0.532223 0.781058
vn -0.531561 0.775860 -0.339829
vn -0.102111 0.978260 -0.180499
vn -0.088312 0.968128 -0.234370
vn 0.384118 0.324632 0.864331
vn -0.948560 0.089133 -0.303792
vn -0.972411 0.190846 0.134141
vn -0.243989 0.969298 0.030526
vn -0.044348 0.998915 -0.014219
vn -0.119265 0.647257 0.752884
vn 0.936436 0.036691 -0.348915
vn 0.274938 0.961366 -0.013607
vn 0.058440 0.998145 -0.017049
vn 0.340222 0.929773 -0.140611
vn -0.189281 0.928437 -0.319653
vn -0.236791 0.954995 -0.178647
vn -0.174052 0.961937 -0.210672
vn -0.083008 0.963085 -0.256079
vn -0.040980 0.937110 -0.346619
vn -0.017242 0.981698 -0.189664
vn 0.035233 0.928141 -0.370558
vn -0.092964 0.969409 -0.227165
vn -0.249468 0.920210 -0.301626
vn -0.330211 0.125798 -0.935487
vn -0.196414 0.902252 -0.383880
vn -0.686607 0.726004 0.038587
vn -0.571823 0.774778 0.269699
vn -0.515335 0.838789 -0.175677
vn -0.369645 0.872401 -0.319812
# 786 vertices, 0 vertices normals

f 1//1 2//2 3//3
f 3//3 2//2 4//4
f 3//3 4//4 5//5
f 5//5 4//4 6//6
f 6//6 4//4 7//7
f 7//7 4//4 8//8
f 7//7 8//8 9//9
f 9//9 10//10 7//7
f 7//7 10//10 11//11
f 7//7 11//11 12//12
f 13//13 14//14 15//15
f 15//15 14//14 16//16
f 15//15 16//16 12//12
f 12//12 16//16 17//17
f 12//12 17//17 7//7
f 18//18 19//19 20//20
f 20//20 19//19 21//21
f 20//20 21//21 22//22
f 23//23 24//24 25//25
f 25//25 24//24 20//20
f 25//25 20//20 26//26
f 26//26 20//20 22//22
f 20//20 24//24 27//27
f 20//20 27//27 28//28
f 28//28 27//27 29//29
f 28//28 29//29 30//30
f 31//31 32//32 33//33
f 34//34 35//35 33//33
f 33//33 35//35 36//36
f 33//33 36//36 31//31
f 37//37 38//38 33//33
f 33//33 38//38 39//39
f 39//39 40//40 33//33
f 33//33 40//40 41//41
f 33//33 41//41 34//34
f 42//42 43//43 27//27
f 44//44 45//45 46//46
f 47//47 24//24 48//48
f 48//48 24//24 23//23
f 27//27 43//43 29//29
f 49//49 50//50 51//51
f 51//51 50//50 42//42
f 51//51 42//42 47//47
f 47//47 42//42 27//27
f 47//47 27//27 24//24
f 52//52 53//53 54//54
f 55//55 56//56 37//37
f 37//37 56//56 57//57
f 37//37 57//57 38//38
f 58//58 59//59 46//46
f 46//46 59//59 52//52
f 46//46 52//52 44//44
f 44//44 52//52 54//54
f 44//44 54//54 60//60
f 43//43 61//61 29//29
f 29//29 61//61 62//62
f 29//29 62//62 63//63
f 63//63 62//62 64//64
f 63//63 64//64 65//65
f 65//65 64//64 66//66
f 65//65 66//66 67//67
f 67//67 66//66 68//68
f 67//67 68//68 69//69
f 69//69 68//68 59//59
f 69//69 59//59 55//55
f 55//55 59//59 58//58
f 55//55 58//58 56//56
f 70//70 71//71 51//51
f 51//51 71//71 72//72
f 51//51 72//72 49//49
f 73//73 74//74 75//75
f 14//14 13//13 76//76
f 76//76 13//13 73//73
f 76//76 73//73 77//77
f 77//77 73//73 75//75
f 78//78 79//79 18//18
f 18//18 79//79 80//80
f 81//81 82//82 83//83
f 81//81 83//83 84//84
f 84//84 83//83 85//85
f 84//84 85//85 86//86
f 86//86 85//85 87//87
f 86//86 87//87 88//88
f 88//88 87//87 79//79
f 88//88 79//79 78//78
f 81//81 89//89 82//82
f 82//82 89//89 90//90
f 91//91 92//92 93//93
f 91//91 93//93 94//94
f 94//94 93//93 95//95
f 94//94 95//95 96//96
f 96//96 95//95 90//90
f 96//96 90//90 89//89
f 97//97 98//98 32//32
f 32//32 98//98 2//2
f 99//99 100//100 101//101
f 99//99 101//101 102//102
f 102//102 101//101 103//103
f 102//102 103//103 104//104
f 105//105 106//106 107//107
f 100//100 108//108 101//101
f 101//101 108//108 109//109
f 101//101 109//109 110//110
f 111//111 112//112 113//113
f 113//113 112//112 102//102
f 113//113 102//102 114//114
f 114//114 102//102 104//104
f 111//111 113//113 107//107
f 107//107 113//113 115//115
f 107//107 115//115 105//105
f 106//106 116//116 107//107
f 107//107 116//116 117//117
f 107//107 117//117 118//118
f 104//104 119//119 120//120
f 104//104 120//120 114//114
f 114//114 120//120 121//121
f 114//114 121//121 113//113
f 113//113 121//121 122//122
f 113//113 122//122 115//115
f 115//115 122//122 123//123
f 115//115 123//123 105//105
f 105//105 123//123 124//124
f 105//105 124//124 106//106
f 106//106 124//124 125//125
f 106//106 125//125 116//116
f 116//116 125//125 126//126
f 116//116 126//126 117//117
f 117//117 126//126 127//127
f 117//117 127//127 118//118
f 118//118 127//127 128//128
f 118//118 128//128 107//107
f 107//107 128//128 129//129
f 107//107 129//129 111//111
f 130//130 131//131 132//132
f 132//132 131//131 133//133
f 132//132 133//133 134//134
f 135//135 136//136 137//137
f 131//131 138//138 133//133
f 133//133 138//138 139//139
f 133//133 139//139 140//140
f 140//140 139//139 135//135
f 140//140 135//135 141//141
f 141//141 135//135 137//137
f 142//142 141//141 137//137
f 141//141 142//142 140//140
f 143//143 144//144 145//145
f 145//145 144//144 146//146
f 140//140 145//145 133//133
f 133//133 145//145 146//146
f 133//133 146//146 134//134
f 140//140 142//142 145//145
f 145//145 142//142 147//147
f 145//145 147//147 143//143
f 148//148 149//149 147//147
f 147//147 149//149 150//150
f 147//147 150//150 143//143
f 137//137 151//151 142//142
f 142//142 151//151 152//152
f 142//142 152//152 147//147
f 147//147 152//152 148//148
f 151//151 153//153 152//152
f 152//152 153//153 148//148
f 137//137 154//154 155//155
f 137//137 155//155 151//151
f 151//151 155//155 156//156
f 151//151 156//156 153//153
f 153//153 156//156 157//157
f 153//153 157//157 148//148
f 158//158 159//159 160//160
f 160//160 159//159 161//161
f 160//160 161//161 162//162
f 162//162 161//161 163//163
f 162//162 163//163 164//164
f 164//164 163//163 165//165
f 159//159 157//157 161//161
f 161//161 157//157 156//156
f 161//161 156//156 163//163
f 163//163 156//156 155//155
f 163//163 155//155 165//165
f 165//165 155//155 154//154
f 164//164 166//166 162//162
f 162//162 166//166 167//167
f 162//162 167//167 160//160
f 160//160 167//167 168//168
f 160//160 168//168 158//158
f 158//158 168//168 169//169
f 166//166 170//170 167//167
f 167//167 170//170 171//171
f 167//167 171//171 168//168
f 168//168 171//171 172//172
f 168//168 172//172 169//169
f 169//169 172//172 173//173
f 170//170 174//174 175//175
f 170//170 175//175 171//171
f 171//171 175//175 176//176
f 171//171 176//176 172//172
f 172//172 176//176 177//177
f 172//172 177//177 173//173
f 178//178 179//179 180//180
f 180//180 179//179 181//181
f 179//179 182//182 181//181
f 181//181 182//182 183//183
f 181//181 183//183 184//184
f 174//174 180//180 175//175
f 175//175 180//180 181//181
f 175//175 181//181 176//176
f 176//176 181//181 184//184
f 176//176 184//184 177//177
f 177//177 184//184 185//185
f 186//186 185//185 187//187
f 187//187 185//185 184//184
f 187//187 184//184 188//188
f 188//188 184//184 183//183
f 189//189 190//190 178//178
f 178//178 190//190 179//179
f 179//179 190//190 182//182
f 182//182 190//190 191//191
f 182//182 191//191 183//183
f 183//183 191//191 192//192
f 183//183 192//192 188//188
f 188//188 192//192 193//193
f 188//188 193//193 187//187
f 193//193 194//194 187//187
f 187//187 194//194 195//195
f 187//187 195//195 186//186
f 196//196 197//197 198//198
f 189//189 197//197 190//190
f 190//190 197//197 196//196
f 190//190 196//196 191//191
f 191//191 196//196 192//192
f 192//192 196//196 199//199
f 192//192 199//199 193//193
f 193//193 199//199 194//194
f 194//194 199//199 200//200
f 194//194 200//200 195//195
f 198//198 201//201 196//196
f 196//196 201//201 202//202
f 196//196 202//202 199//199
f 199//199 202//202 203//203
f 199//199 203//203 200//200
f 200//200 203//203 204//204
f 198//198 205//205 206//206
f 198//198 206//206 201//201
f 207//207 204//204 208//208
f 208//208 204//204 203//203
f 208//208 203//203 202//202
f 206//206 209//209 201//201
f 201//201 209//209 210//210
f 201//201 210//210 202//202
f 202//202 210//210 211//211
f 202//202 211//211 208//208
f 212//212 213//213 214//214
f 215//215 216//216 212//212
f 212//212 214//214 215//215
f 215//215 214//214 217//217
f 215//215 217//217 218//218
f 218//218 217//217 219//219
f 218//218 219//219 220//220
f 220//220 219//219 221//221
f 221//221 219//219 222//222
f 221//221 222//222 223//223
f 224//224 214//214 213//213
f 214//214 224//224 217//217
f 225//225 226//226 227//227
f 228//228 229//229 230//230
f 226//226 231//231 228//228
f 228//228 230//230 226//226
f 226//226 230//230 232//232
f 226//226 232//232 227//227
f 227//227 232//232 233//233
f 227//227 233//233 234//234
f 234//234 235//235 236//236
f 236//236 235//235 222//222
f 236//236 222//222 219//219
f 213//213 237//237 225//225
f 225//225 237//237 238//238
f 225//225 238//238 226//226
f 226//226 238//238 239//239
f 226//226 239//239 231//231
f 234//234 236//236 227//227
f 227//227 236//236 240//240
f 227//227 240//240 225//225
f 225//225 240//240 213//213
f 219//219 217//217 236//236
f 236//236 217//217 224//224
f 236//236 224//224 240//240
f 240//240 224//224 213//213
f 230//230 229//229 241//241
f 230//230 241//241 232//232
f 232//232 241//241 242//242
f 232//232 242//242 233//233
f 233//233 242//242 243//243
f 233//233 243//243 234//234
f 234//234 243//243 235//235
f 235//235 243//243 244//244
f 235//235 244//244 222//222
f 241//241 245//245 242//242
f 242//242 245//245 246//246
f 242//242 246//246 243//243
f 243//243 246//246 247//247
f 243//243 247//247 244//244
f 244//244 247//247 248//248
f 245//245 249//249 246//246
f 246//246 249//249 250//250
f 246//246 250//250 247//247
f 247//247 250//250 251//251
f 247//247 251//251 248//248
f 248//248 251//251 252//252
f 253//253 254//254 255//255
f 255//255 254//254 256//256
f 255//255 256//256 257//257
f 257//257 256//256 258//258
f 257//257 258//258 259//259
f 259//259 258//258 260//260
f 254//254 252//252 256//256
f 256//256 252//252 251//251
f 256//256 251//251 258//258
f 258//258 251//251 250//250
f 258//258 250//250 260//260
f 260//260 250//250 249//249
f 261//261 262//262 259//259
f 259//259 262//262 257//257
f 262//262 263//263 257//257
f 257//257 263//263 264//264
f 257//257 264//264 255//255
f 265//265 253//253 266//266
f 266//266 253//253 255//255
f 266//266 255//255 267//267
f 267//267 255//255 264//264
f 268//268 269//269 270//270
f 269//269 271//271 272//272
f 269//269 272//272 270//270
f 270//270 272//272 265//265
f 270//270 265//265 266//266
f 266//266 267//267 270//270
f 270//270 267//267 273//273
f 270//270 273//273 268//268
f 274//274 275//275 273//273
f 273//273 275//275 276//276
f 273//273 276//276 268//268
f 277//277 278//278 274//274
f 274//274 278//278 279//279
f 274//274 279//279 275//275
f 267//267 264//264 273//273
f 273//273 264//264 263//263
f 273//273 263//263 274//274
f 274//274 263//263 262//262
f 274//274 262//262 277//277
f 277//277 262//262 261//261
f 278//278 280//280 279//279
f 279//279 280//280 281//281
f 279//279 281//281 275//275
f 275//275 281//281 276//276
f 276//276 281//281 282//282
f 276//276 282//282 268//268
f 268//268 282//282 269//269
f 269//269 282//282 283//283
f 269//269 283//283 271//271
f 284//284 285//285 286//286
f 286//286 285//285 287//287
f 286//286 287//287 288//288
f 288//288 287//287 289//289
f 290//290 291//291 289//289
f 289//289 291//291 292//292
f 289//289 292//292 288//288
f 285//285 283//283 287//287
f 287//287 283//283 282//282
f 287//287 282//282 289//289
f 289//289 282//282 281//281
f 289//289 281//281 290//290
f 290//290 281//281 280//280
f 293//293 294//294 291//291
f 291//291 294//294 292//292
f 295//295 296//296 284//284
f 294//294 297//297 292//292
f 292//292 297//297 298//298
f 292//292 298//298 288//288
f 288//288 298//298 295//295
f 288//288 295//295 286//286
f 286//286 295//295 284//284
f 229//229 228//228 148//148
f 148//148 228//228 149//149
f 149//149 228//228 150//150
f 150//150 228//228 231//231
f 150//150 231//231 143//143
f 143//143 231//231 239//239
f 143//143 239//239 144//144
f 144//144 239//239 238//238
f 144//144 238//238 146//146
f 238//238 237//237 146//146
f 146//146 237//237 213//213
f 146//146 213//213 134//134
f 204//204 291//291 290//290
f 204//204 290//290 200//200
f 200//200 290//290 280//280
f 200//200 280//280 195//195
f 278//278 186//186 280//280
f 280//280 186//186 195//195
f 186//186 278//278 277//277
f 186//186 277//277 185//185
f 185//185 277//277 261//261
f 185//185 261//261 177//177
f 259//259 173//173 261//261
f 261//261 173//173 177//177
f 173//173 259//259 260//260
f 173//173 260//260 169//169
f 169//169 260//260 249//249
f 169//169 249//249 158//158
f 158//158 249//249 159//159
f 159//159 249//249 245//245
f 159//159 245//245 157//157
f 157//157 245//245 241//241
f 229//229 148//148 241//241
f 241//241 148//148 157//157
f 223//223 222//222 296//296
f 296//296 222//222 244//244
f 244//244 248//248 296//296
f 296//296 248//248 252//252
f 296//296 252//252 254//254
f 254//254 253//253 296//296
f 296//296 253//253 265//265
f 296//296 265//265 272//272
f 272//272 271//271 296//296
f 296//296 271//271 283//283
f 296//296 283//283 284//284
f 284//284 283//283 285//285
f 174//174 170//170 205//205
f 137//137 136//136 154//154
f 154//154 136//136 205//205
f 154//154 205//205 165//165
f 170//170 166//166 205//205
f 205//205 166//166 164//164
f 205//205 164//164 165//165
f 180//180 174//174 178//178
f 178//178 174//174 205//205
f 178//178 205//205 189//189
f 189//189 205//205 198//198
f 189//189 198//198 197//197
f 212//212 132//132 213//213
f 213//213 132//132 134//134
f 299//299 300//300 301//301
f 299//299 301//301 302//302
f 302//302 301//301 303//303
f 302//302 303//303 304//304
f 304//304 303//303 305//305
f 304//304 305//305 306//306
f 307//307 308//308 309//309
f 307//307 309//309 310//310
f 310//310 309//309 311//311
f 310//310 311//311 312//312
f 312//312 311//311 313//313
f 312//312 313//313 314//314
f 315//315 307//307 310//310
f 315//315 310//310 316//316
f 291//291 204//204 293//293
f 293//293 204//204 207//207
f 293//293 207//207 317//317
f 317//317 207//207 318//318
f 317//317 318//318 319//319
f 319//319 318//318 320//320
f 319//319 320//320 321//321
f 322//322 299//299 207//207
f 207//207 299//299 302//302
f 207//207 302//302 318//318
f 318//318 302//302 304//304
f 318//318 304//304 306//306
f 310//310 312//312 316//316
f 316//316 312//312 314//314
f 316//316 314//314 323//323
f 323//323 314//314 299//299
f 323//323 299//299 324//324
f 324//324 299//299 322//322
f 313//313 300//300 314//314
f 314//314 300//300 299//299
f 325//325 326//326 327//327
f 328//328 329//329 330//330
f 325//325 327//327 331//331
f 328//328 330//330 332//332
f 332//332 330//330 333//333
f 332//332 333//333 334//334
f 127//127 335//335 128//128
f 128//128 335//335 336//336
f 128//128 336//336 129//129
f 129//129 336//336 337//337
f 129//129 337//337 338//338
f 338//338 337//337 339//339
f 338//338 339//339 340//340
f 340//340 339//339 341//341
f 340//340 341//341 342//342
f 342//342 341//341 343//343
f 342//342 343//343 344//344
f 344//344 343//343 345//345
f 344//344 345//345 346//346
f 346//346 345//345 347//347
f 346//346 347//347 348//348
f 348//348 347//347 349//349
f 348//348 349//349 350//350
f 350//350 349//349 351//351
f 350//350 351//351 352//352
f 352//352 351//351 353//353
f 352//352 353//353 354//354
f 333//333 355//355 356//356
f 356//356 355//355 357//357
f 356//356 357//357 358//358
f 327//327 359//359 331//331
f 331//331 359//359 360//360
f 331//331 360//360 361//361
f 361//361 360//360 362//362
f 361//361 362//362 363//363
f 363//363 362//362 358//358
f 363//363 358//358 364//364
f 364//364 358//358 357//357
f 119//119 333//333 120//120
f 120//120 333//333 356//356
f 120//120 356//356 121//121
f 121//121 356//356 365//365
f 121//121 365//365 122//122
f 122//122 365//365 366//366
f 122//122 366//366 123//123
f 123//123 366//366 367//367
f 123//123 367//367 124//124
f 124//124 367//367 368//368
f 124//124 368//368 125//125
f 125//125 368//368 369//369
f 125//125 369//369 126//126
f 126//126 369//369 370//370
f 126//126 370//370 127//127
f 127//127 370//370 371//371
f 127//127 371//371 335//335
f 353//353 372//372 354//354
f 354//354 372//372 373//373
f 354//354 373//373 119//119
f 119//119 373//373 333//333
f 333//333 373//373 374//374
f 333//333 374//374 334//334
f 375//375 376//376 377//377
f 377//377 376//376 378//378
f 377//377 378//378 379//379
f 379//379 378//378 380//380
f 379//379 380//380 381//381
f 381//381 380//380 382//382
f 383//383 384//384 385//385
f 386//386 387//387 388//388
f 388//388 387//387 376//376
f 388//388 376//376 389//389
f 386//386 388//388 390//390
f 390//390 388//388 391//391
f 390//390 391//391 392//392
f 392//392 391//391 393//393
f 392//392 393//393 394//394
f 375//375 395//395 396//396
f 396//396 395//395 397//397
f 396//396 397//397 398//398
f 396//396 399//399 375//375
f 375//375 399//399 400//400
f 375//375 400//400 376//376
f 376//376 400//400 401//401
f 376//376 401//401 389//389
f 402//402 403//403 404//404
f 394//394 393//393 405//405
f 405//405 393//393 406//406
f 405//405 406//406 407//407
f 407//407 406//406 408//408
f 407//407 408//408 409//409
f 409//409 408//408 410//410
f 409//409 410//410 411//411
f 412//412 413//413 414//414
f 414//414 413//413 402//402
f 414//414 402//402 415//415
f 415//415 402//402 404//404
f 412//412 383//383 413//413
f 413//413 383//383 385//385
f 413//413 385//385 416//416
f 416//416 385//385 417//417
f 416//416 417//417 418//418
f 418//418 417//417 419//419
f 418//418 419//419 420//420
f 420//420 419//419 421//421
f 420//420 421//421 422//422
f 422//422 421//421 398//398
f 422//422 398//398 423//423
f 423//423 398//398 397//397
f 424//424 425//425 426//426
f 426//426 425//425 427//427
f 426//426 427//427 428//428
f 428//428 427//427 409//409
f 428//428 409//409 429//429
f 429//429 409//409 411//411
f 429//429 411//411 430//430
f 431//431 432//432 433//433
f 433//433 432//432 434//434
f 387//387 432//432 376//376
f 376//376 432//432 431//431
f 376//376 431//431 378//378
f 378//378 431//431 435//435
f 378//378 435//435 380//380
f 380//380 435//435 382//382
f 390//390 436//436 386//386
f 386//386 436//436 437//437
f 386//386 437//437 387//387
f 387//387 437//437 432//432
f 428//428 362//362 360//360
f 428//428 360//360 426//426
f 426//426 360//360 359//359
f 426//426 359//359 424//424
f 428//428 429//429 362//362
f 362//362 429//429 358//358
f 410//410 366//366 365//365
f 410//410 365//365 411//411
f 411//411 365//365 356//356
f 411//411 356//356 430//430
f 430//430 356//356 358//358
f 430//430 358//358 429//429
f 385//385 351//351 417//417
f 417//417 351//351 349//349
f 417//417 349//349 419//419
f 419//419 349//349 347//347
f 419//419 347//347 421//421
f 421//421 347//347 345//345
f 421//421 345//345 398//398
f 398//398 345//345 343//343
f 398//398 343//343 396//396
f 396//396 343//343 341//341
f 396//396 341//341 399//399
f 399//399 341//341 339//339
f 399//399 339//339 400//400
f 400//400 339//339 337//337
f 400//400 337//337 401//401
f 401//401 337//337 336//336
f 401//401 336//336 389//389
f 389//389 336//336 335//335
f 389//389 335//335 388//388
f 388//388 335//335 371//371
f 388//388 371//371 391//391
f 391//391 371//371 370//370
f 391//391 370//370 393//393
f 393//393 370//370 369//369
f 393//393 369//369 406//406
f 406//406 369//369 368//368
f 406//406 368//368 408//408
f 408//408 368//368 367//367
f 408//408 367//367 410//410
f 410//410 367//367 366//366
f 412//412 373//373 372//372
f 412//412 372//372 383//383
f 383//383 372//372 353//353
f 383//383 353//353 384//384
f 384//384 353//353 351//351
f 384//384 351//351 385//385
f 412//412 414//414 373//373
f 373//373 414//414 374//374
f 402//402 329//329 328//328
f 402//402 328//328 403//403
f 403//403 328//328 332//332
f 403//403 332//332 404//404
f 395//395 438//438 397//397
f 397//397 438//438 439//439
f 397//397 439//439 423//423
f 423//423 439//439 440//440
f 395//395 441//441 438//438
f 438//438 441//441 442//442
f 438//438 442//442 443//443
f 395//395 375//375 441//441
f 441//441 375//375 377//377
f 441//441 377//377 444//444
f 444//444 377//377 379//379
f 444//444 379//379 381//381
f 445//445 446//446 447//447
f 447//447 446//446 448//448
f 447//447 448//448 449//449
f 449//449 448//448 450//450
f 449//449 450//450 451//451
f 451//451 450//450 452//452
f 451//451 452//452 453//453
f 453//453 452//452 454//454
f 453//453 455//455 451//451
f 451//451 455//455 456//456
f 451//451 456//456 449//449
f 449//449 456//456 457//457
f 449//449 457//457 447//447
f 447//447 457//457 458//458
f 447//447 458//458 445//445
f 455//455 459//459 456//456
f 456//456 459//459 460//460
f 456//456 460//460 457//457
f 457//457 460//460 461//461
f 457//457 461//461 458//458
f 458//458 461//461 462//462
f 458//458 462//462 445//445
f 445//445 462//462 463//463
f 464//464 463//463 465//465
f 465//465 463//463 462//462
f 465//465 462//462 466//466
f 466//466 462//462 461//461
f 466//466 461//461 467//467
f 467//467 461//461 460//460
f 467//467 460//460 468//468
f 468//468 460//460 459//459
f 446//446 469//469 470//470
f 446//446 470//470 448//448
f 448//448 470//470 471//471
f 448//448 471//471 450//450
f 450//450 471//471 472//472
f 450//450 472//472 452//452
f 452//452 472//472 473//473
f 452//452 473//473 454//454
f 467//467 468//468 474//474
f 474//474 475//475 467//467
f 467//467 475//475 476//476
f 467//467 476//476 466//466
f 466//466 476//476 477//477
f 466//466 477//477 465//465
f 465//465 477//477 478//478
f 465//465 478//478 464//464
f 479//479 480//480 481//481
f 481//481 480//480 482//482
f 481//481 482//482 483//483
f 483//483 482//482 484//484
f 483//483 484//484 485//485
f 485//485 484//484 486//486
f 485//485 486//486 487//487
f 487//487 486//486 488//488
f 487//487 489//489 485//485
f 485//485 489//489 490//490
f 485//485 490//490 483//483
f 483//483 490//490 491//491
f 483//483 491//491 481//481
f 481//481 491//491 492//492
f 481//481 492//492 479//479
f 489//489 493//493 490//490
f 490//490 493//493 494//494
f 490//490 494//494 491//491
f 491//491 494//494 495//495
f 491//491 495//495 492//492
f 492//492 495//495 496//496
f 492//492 496//496 479//479
f 479//479 496//496 497//497
f 469//469 497//497 470//470
f 470//470 497//497 496//496
f 470//470 496//496 471//471
f 471//471 496//496 495//495
f 471//471 495//495 472//472
f 472//472 495//495 494//494
f 472//472 494//494 473//473
f 473//473 494//494 493//493
f 498//498 478//478 499//499
f 499//499 478//478 477//477
f 499//499 477//477 500//500
f 500//500 477//477 476//476
f 500//500 476//476 501//501
f 501//501 476//476 475//475
f 501//501 475//475 502//502
f 502//502 475//475 474//474
f 503//503 498//498 504//504
f 504//504 498//498 499//499
f 504//504 499//499 505//505
f 505//505 499//499 500//500
f 505//505 500//500 506//506
f 506//506 500//500 501//501
f 506//506 501//501 507//507
f 507//507 501//501 502//502
f 480//480 508//508 509//509
f 480//480 509//509 482//482
f 482//482 509//509 510//510
f 482//482 510//510 484//484
f 484//484 510//510 511//511
f 484//484 511//511 486//486
f 486//486 511//511 512//512
f 486//486 512//512 488//488
f 513//513 514//514 515//515
f 506//506 507//507 513//513
f 516//516 517//517 518//518
f 513//513 515//515 506//506
f 506//506 515//515 519//519
f 506//506 519//519 505//505
f 505//505 519//519 516//516
f 505//505 516//516 504//504
f 504//504 516//516 518//518
f 504//504 518//518 503//503
f 520//520 521//521 522//522
f 509//509 508//508 521//521
f 523//523 524//524 525//525
f 522//522 526//526 520//520
f 520//520 526//526 527//527
f 520//520 527//527 528//528
f 528//528 527//527 523//523
f 528//528 523//523 529//529
f 529//529 523//523 525//525
f 521//521 520//520 509//509
f 509//509 520//520 528//528
f 509//509 528//528 510//510
f 510//510 528//528 529//529
f 510//510 529//529 511//511
f 511//511 529//529 525//525
f 511//511 525//525 512//512
f 514//514 530//530 531//531
f 514//514 531//531 515//515
f 531//531 532//532 515//515
f 515//515 532//532 533//533
f 515//515 533//533 519//519
f 519//519 533//533 534//534
f 519//519 534//534 516//516
f 516//516 534//534 535//535
f 516//516 535//535 517//517
f 536//536 524//524 523//523
f 537//537 538//538 539//539
f 537//537 539//539 522//522
f 522//522 539//539 526//526
f 526//526 539//539 540//540
f 526//526 540//540 527//527
f 527//527 540//540 541//541
f 527//527 541//541 523//523
f 523//523 541//541 542//542
f 523//523 542//542 536//536
f 543//543 544//544 545//545
f 546//546 533//533 532//532
f 547//547 548//548 549//549
f 550//550 551//551 552//552
f 553//553 554//554 555//555
f 535//535 534//534 556//556
f 535//535 556//556 557//557
f 557//557 556//556 558//558
f 557//557 558//558 559//559
f 552//552 560//560 550//550
f 550//550 560//560 561//561
f 550//550 561//561 562//562
f 562//562 561//561 563//563
f 562//562 563//563 564//564
f 544//544 547//547 545//545
f 545//545 547//547 549//549
f 545//545 549//549 565//565
f 565//565 549//549 566//566
f 565//565 566//566 567//567
f 530//530 543//543 531//531
f 531//531 543//543 545//545
f 531//531 545//545 532//532
f 532//532 545//545 565//565
f 532//532 565//565 546//546
f 546//546 565//565 567//567
f 554//554 559//559 555//555
f 555//555 559//559 558//558
f 555//555 558//558 567//567
f 567//567 558//558 556//556
f 567//567 556//556 546//546
f 546//546 556//556 534//534
f 546//546 534//534 533//533
f 568//568 553//553 564//564
f 564//564 553//553 555//555
f 564//564 555//555 562//562
f 562//562 555//555 567//567
f 562//562 567//567 550//550
f 550//550 567//567 566//566
f 550//550 566//566 551//551
f 551//551 566//566 549//549
f 551//551 549//549 569//569
f 569//569 549//549 548//548
f 538//538 570//570 571//571
f 538//538 571//571 539//539
f 539//539 571//571 572//572
f 539//539 572//572 540//540
f 540//540 572//572 573//573
f 540//540 573//573 541//541
f 541//541 573//573 574//574
f 541//541 574//574 542//542
f 575//575 568//568 564//564
f 552//552 576//576 560//560
f 560//560 576//576 577//577
f 560//560 577//577 561//561
f 561//561 577//577 578//578
f 561//561 578//578 563//563
f 563//563 578//578 579//579
f 563//563 579//579 564//564
f 564//564 579//579 580//580
f 564//564 580//580 575//575
f 581//581 582//582 583//583
f 584//584 585//585 586//586
f 586//586 585//585 587//587
f 586//586 587//587 588//588
f 589//589 590//590 591//591
f 591//591 590//590 592//592
f 571//571 570//570 589//589
f 572//572 593//593 573//573
f 573//573 593//593 594//594
f 573//573 594//594 574//574
f 595//595 596//596 597//597
f 597//597 596//596 598//598
f 597//597 598//598 575//575
f 589//589 591//591 571//571
f 571//571 591//591 588//588
f 571//571 588//588 572//572
f 572//572 588//588 587//587
f 572//572 587//587 593//593
f 593//593 587//587 585//585
f 593//593 585//585 594//594
f 581//581 583//583 599//599
f 576//576 599//599 577//577
f 577//577 599//599 583//583
f 577//577 583//583 578//578
f 578//578 583//583 600//600
f 578//578 600//600 579//579
f 579//579 600//600 580//580
f 601//601 584//584 602//602
f 575//575 580//580 597//597
f 597//597 580//580 600//600
f 597//597 600//600 595//595
f 595//595 600//600 583//583
f 595//595 583//583 602//602
f 602//602 583//583 582//582
f 602//602 582//582 601//601
f 584//584 586//586 602//602
f 602//602 586//586 588//588
f 602//602 588//588 595//595
f 595//595 588//588 591//591
f 595//595 591//591 596//596
f 596//596 591//591 592//592
f 596//596 592//592 598//598
f 589//589 570//570 517//517
f 517//517 570//570 538//538
f 517//517 538//538 537//537
f 535//535 557//557 559//559
f 575//575 598//598 592//592
f 522//522 521//521 508//508
f 498//498 503//503 537//537
f 537//537 503//503 518//518
f 537//537 518//518 517//517
f 559//559 554//554 535//535
f 535//535 554//554 553//553
f 535//535 553//553 517//517
f 517//517 553//553 568//568
f 517//517 568//568 589//589
f 589//589 568//568 575//575
f 589//589 575//575 590//590
f 590//590 575//575 592//592
f 445//445 463//463 446//446
f 446//446 463//463 464//464
f 446//446 464//464 469//469
f 469//469 464//464 537//537
f 537//537 464//464 478//478
f 537//537 478//478 498//498
f 479//479 497//497 480//480
f 480//480 497//497 469//469
f 480//480 469//469 508//508
f 508//508 469//469 537//537
f 508//508 537//537 522//522
f 548//548 547//547 603//603
f 603//603 547//547 544//544
f 603//603 544//544 604//604
f 604//604 544//544 543//543
f 604//604 543//543 530//530
f 603//603 605//605 548//548
f 548//548 605//605 606//606
f 548//548 606//606 569//569
f 607//607 552//552 606//606
f 606//606 552//552 551//551
f 606//606 551//551 569//569
f 552//552 607//607 576//576
f 576//576 607//607 608//608
f 584//584 601//601 609//609
f 609//609 601//601 610//610
f 601//601 582//582 610//610
f 610//610 582//582 581//581
f 610//610 581//581 608//608
f 608//608 581//581 599//599
f 608//608 599//599 576//576
f 584//584 609//609 611//611
f 584//584 611//611 585//585
f 585//585 611//611 594//594
f 594//594 611//611 612//612
f 594//594 612//612 574//574
f 574//574 612//612 542//542
f 542//542 612//612 613//613
f 542//542 613//613 536//536
f 536//536 613//613 614//614
f 536//536 614//614 524//524
f 524//524 614//614 615//615
f 524//524 615//615 525//525
f 525//525 615//615 616//616
f 525//525 616//616 512//512
f 512//512 616//616 488//488
f 488//488 616//616 617//617
f 488//488 617//617 487//487
f 487//487 617//617 618//618
f 487//487 618//618 489//489
f 489//489 618//618 619//619
f 489//489 619//619 493//493
f 493//493 619//619 620//620
f 493//493 620//620 473//473
f 473//473 620//620 454//454
f 454//454 620//620 621//621
f 454//454 621//621 453//453
f 453//453 621//621 622//622
f 453//453 622//622 455//455
f 455//455 622//622 623//623
f 455//455 623//623 459//459
f 459//459 623//623 624//624
f 459//459 624//624 468//468
f 468//468 624//624 474//474
f 474//474 624//624 625//625
f 474//474 625//625 626//626
f 474//474 626//626 502//502
f 502//502 626//626 627//627
f 502//502 627//627 507//507
f 507//507 627//627 513//513
f 513//513 627//627 628//628
f 513//513 628//628 514//514
f 514//514 628//628 530//530
f 530//530 628//628 604//604
f 629//629 630//630 631//631
f 631//631 630//630 632//632
f 633//633 634//634 635//635
f 636//636 637//637 638//638
f 638//638 637//637 639//639
f 639//639 637//637 640//640
f 640//640 637//637 641//641
f 640//640 641//641 633//633
f 633//633 641//641 642//642
f 633//633 642//642 634//634
f 629//629 643//643 630//630
f 630//630 643//643 644//644
f 630//630 644//644 645//645
f 645//645 644//644 633//633
f 645//645 633//633 646//646
f 646//646 633//633 647//647
f 648//648 647//647 649//649
f 649//649 647//647 633//633
f 649//649 633//633 650//650
f 650//650 633//633 635//635
f 651//651 652//652 653//653
f 654//654 655//655 656//656
f 656//656 655//655 657//657
f 656//656 657//657 658//658
f 651//651 659//659 660//660
f 660//660 659//659 661//661
f 660//660 661//661 656//656
f 656//656 661//661 662//662
f 656//656 662//662 654//654
f 651//651 653//653 659//659
f 659//659 653//653 663//663
f 659//659 663//663 664//664
f 665//665 666//666 657//657
f 657//657 666//666 667//667
f 657//657 667//667 658//658
f 668//668 669//669 670//670
f 670//670 669//669 663//663
f 670//670 663//663 671//671
f 671//671 663//663 653//653
f 662//662 661//661 636//636
f 636//636 661//661 637//637
f 660//660 630//630 645//645
f 660//660 645//645 651//651
f 651//651 645//645 646//646
f 651//651 646//646 652//652
f 652//652 646//646 647//647
f 652//652 647//647 653//653
f 653//653 647//647 648//648
f 653//653 648//648 671//671
f 671//671 648//648 649//649
f 671//671 649//649 670//670
f 670//670 649//649 650//650
f 670//670 650//650 668//668
f 668//668 650//650 635//635
f 668//668 635//635 669//669
f 669//669 635//635 634//634
f 669//669 634//634 663//663
f 663//663 634//634 642//642
f 663//663 642//642 664//664
f 664//664 642//642 641//641
f 664//664 641//641 659//659
f 659//659 641//641 637//637
f 659//659 637//637 661//661
f 660//660 656//656 630//630
f 630//630 656//656 632//632
f 622//622 621//621 672//672
f 673//673 607//607 606//606
f 606//606 605//605 673//673
f 673//673 605//605 603//603
f 673//673 603//603 604//604
f 625//625 624//624 672//672
f 672//672 624//624 623//623
f 672//672 623//623 622//622
f 604//604 628//628 673//673
f 673//673 628//628 627//627
f 673//673 627//627 672//672
f 672//672 627//627 626//626
f 672//672 626//626 625//625
f 672//672 674//674 675//675
f 675//675 674//674 676//676
f 675//675 676//676 677//677
f 678//678 679//679 680//680
f 680//680 681//681 678//678
f 678//678 681//681 682//682
f 678//678 682//682 683//683
f 683//683 682//682 684//684
f 684//684 682//682 685//685
f 684//684 685//685 686//686
f 686//686 685//685 687//687
f 686//686 687//687 688//688
f 689//689 685//685 675//675
f 675//675 685//685 673//673
f 675//675 673//673 672//672
f 690//690 687//687 691//691
f 691//691 687//687 685//685
f 691//691 685//685 692//692
f 692//692 685//685 689//689
f 692//692 689//689 693//693
f 694//694 695//695 678//678
f 678//678 695//695 679//679
f 694//694 678//678 683//683
f 694//694 683//683 696//696
f 696//696 683//683 684//684
f 696//696 684//684 697//697
f 697//697 684//684 686//686
f 697//697 686//686 698//698
f 698//698 686//686 688//688
f 698//698 688//688 699//699
f 699//699 688//688 687//687
f 699//699 687//687 700//700
f 700//700 687//687 690//690
f 700//700 690//690 701//701
f 701//701 690//690 691//691
f 701//701 691//691 702//702
f 702//702 691//691 692//692
f 702//702 692//692 703//703
f 703//703 692//692 693//693
f 703//703 693//693 704//704
f 704//704 693//693 689//689
f 704//704 689//689 705//705
f 705//705 689//689 675//675
f 705//705 675//675 706//706
f 707//707 706//706 677//677
f 677//677 706//706 675//675
f 443//443 708//708 709//709
f 674//674 629//629 631//631
f 658//658 709//709 677//677
f 677//677 709//709 707//707
f 656//656 658//658 632//632
f 632//632 658//658 677//677
f 632//632 677//677 631//631
f 631//631 677//677 676//676
f 631//631 676//676 674//674
f 672//672 621//621 674//674
f 674//674 621//621 620//620
f 674//674 620//620 629//629
f 629//629 620//620 643//643
f 667//667 434//434 658//658
f 658//658 434//434 132//132
f 658//658 132//132 709//709
f 709//709 132//132 212//212
f 709//709 212//212 443//443
f 435//435 657//657 382//382
f 382//382 657//657 655//655
f 382//382 655//655 381//381
f 381//381 655//655 710//710
f 381//381 710//710 444//444
f 444//444 710//710 711//711
f 710//710 655//655 654//654
f 607//607 673//673 685//685
f 680//680 638//638 639//639
f 679//679 695//695 712//712
f 654//654 662//662 636//636
f 633//633 644//644 608//608
f 680//680 639//639 681//681
f 681//681 639//639 640//640
f 681//681 640//640 682//682
f 682//682 640//640 633//633
f 682//682 633//633 685//685
f 685//685 633//633 608//608
f 685//685 608//608 607//607
f 638//638 680//680 636//636
f 636//636 680//680 679//679
f 636//636 679//679 654//654
f 654//654 679//679 712//712
f 654//654 712//712 710//710
f 608//608 644//644 610//610
f 610//610 644//644 609//609
f 620//620 619//619 643//643
f 643//643 619//619 618//618
f 643//643 618//618 617//617
f 613//613 612//612 644//644
f 644//644 612//612 611//611
f 644//644 611//611 609//609
f 617//617 616//616 643//643
f 643//643 616//616 615//615
f 643//643 615//615 644//644
f 644//644 615//615 614//614
f 644//644 614//614 613//613
f 713//713 440//440 439//439
f 212//212 216//216 443//443
f 443//443 216//216 714//714
f 443//443 714//714 715//715
f 713//713 439//439 715//715
f 715//715 439//439 438//438
f 715//715 438//438 443//443
f 716//716 717//717 718//718
f 718//718 717//717 308//308
f 719//719 720//720 721//721
f 313//313 722//722 723//723
f 309//309 308//308 311//311
f 311//311 308//308 717//717
f 311//311 717//717 313//313
f 313//313 717//717 724//724
f 313//313 724//724 722//722
f 719//719 721//721 718//718
f 718//718 721//721 725//725
f 718//718 725//725 716//716
f 723//723 726//726 313//313
f 313//313 726//726 727//727
f 313//313 727//727 728//728
f 303//303 301//301 305//305
f 305//305 301//301 300//300
f 305//305 300//300 729//729
f 729//729 300//300 313//313
f 729//729 313//313 730//730
f 730//730 313//313 728//728
f 329//329 402//402 413//413
f 318//318 306//306 418//418
f 422//422 423//423 440//440
f 418//418 420//420 318//318
f 318//318 420//420 422//422
f 318//318 422//422 320//320
f 320//320 422//422 440//440
f 320//320 440//440 321//321
f 216//216 215//215 714//714
f 714//714 215//215 218//218
f 218//218 220//220 714//714
f 714//714 220//220 221//221
f 714//714 221//221 223//223
f 440//440 713//713 321//321
f 321//321 713//713 715//715
f 321//321 715//715 319//319
f 319//319 715//715 714//714
f 319//319 714//714 317//317
f 317//317 714//714 223//223
f 223//223 296//296 317//317
f 317//317 296//296 295//295
f 317//317 295//295 298//298
f 298//298 297//297 317//317
f 317//317 297//297 294//294
f 317//317 294//294 293//293
f 330//330 329//329 728//728
f 728//728 727//727 330//330
f 330//330 727//727 726//726
f 330//330 726//726 333//333
f 333//333 726//726 723//723
f 333//333 723//723 355//355
f 355//355 723//723 722//722
f 355//355 722//722 357//357
f 357//357 722//722 724//724
f 357//357 724//724 364//364
f 329//329 413//413 728//728
f 728//728 413//413 416//416
f 728//728 416//416 730//730
f 730//730 416//416 418//418
f 730//730 418//418 729//729
f 729//729 418//418 306//306
f 729//729 306//306 305//305
f 130//130 132//132 731//731
f 731//731 132//132 434//434
f 731//731 434//434 732//732
f 732//732 434//434 432//432
f 732//732 432//432 733//733
f 733//733 432//432 437//437
f 733//733 437//437 436//436
f 90//90 95//95 707//707
f 734//734 735//735 696//696
f 696//696 735//735 694//694
f 736//736 737//737 707//707
f 737//737 738//738 707//707
f 707//707 738//738 739//739
f 707//707 739//739 706//706
f 740//740 741//741 711//711
f 704//704 705//705 742//742
f 743//743 742//742 744//744
f 744//744 742//742 705//705
f 744//744 705//705 745//745
f 745//745 705//705 706//706
f 745//745 706//706 746//746
f 746//746 706//706 747//747
f 742//742 748//748 704//704
f 704//704 748//748 749//749
f 704//704 749//749 703//703
f 703//703 749//749 750//750
f 703//703 750//750 702//702
f 90//90 707//707 82//82
f 82//82 707//707 709//709
f 82//82 709//709 708//708
f 735//735 751//751 694//694
f 694//694 751//751 752//752
f 694//694 752//752 753//753
f 754//754 755//755 756//756
f 757//757 97//97 758//758
f 750//750 759//759 702//702
f 702//702 759//759 760//760
f 702//702 760//760 701//701
f 701//701 760//760 761//761
f 708//708 740//740 82//82
f 82//82 740//740 711//711
f 82//82 711//711 83//83
f 83//83 711//711 710//710
f 83//83 710//710 85//85
f 85//85 710//710 712//712
f 85//85 712//712 87//87
f 87//87 712//712 695//695
f 87//87 695//695 79//79
f 79//79 695//695 80//80
f 95//95 93//93 707//707
f 707//707 93//93 92//92
f 707//707 92//92 736//736
f 736//736 92//92 754//754
f 736//736 754//754 762//762
f 762//762 754//754 756//756
f 763//763 764//764 757//757
f 757//757 764//764 98//98
f 757//757 98//98 97//97
f 739//739 765//765 706//706
f 706//706 765//765 766//766
f 706//706 766//766 747//747
f 747//747 766//766 757//757
f 747//747 757//757 767//767
f 767//767 757//757 758//758
f 768//768 80//80 769//769
f 769//769 80//80 695//695
f 769//769 695//695 770//770
f 770//770 695//695 694//694
f 770//770 694//694 771//771
f 771//771 694//694 753//753
f 761//761 772//772 701//701
f 701//701 772//772 773//773
f 701//701 773//773 700//700
f 700//700 773//773 774//774
f 700//700 774//774 699//699
f 699//699 774//774 775//775
f 699//699 775//775 698//698
f 698//698 775//775 776//776
f 698//698 776//776 777//777
f 734//734 696//696 778//778
f 778//778 696//696 697//697
f 778//778 697//697 779//779
f 779//779 697//697 698//698
f 779//779 698//698 780//780
f 780//780 698//698 777//777
f 780//780 777//777 781//781
f 32//32 18//18 33//33
f 33//33 18//18 20//20
f 32//32 2//2 18//18
f 18//18 2//2 1//1
f 18//18 1//1 78//78
f 78//78 1//1 91//91
f 81//81 84//84 86//86
f 20//20 28//28 33//33
f 33//33 28//28 30//30
f 33//33 30//30 782//782
f 783//783 784//784 785//785
f 785//785 784//784 33//33
f 785//785 33//33 786//786
f 786//786 33//33 782//782
f 94//94 96//96 91//91
f 91//91 96//96 89//89
f 91//91 89//89 78//78
f 78//78 89//89 81//81
f 78//78 81//81 88//88
f 88//88 81//81 86//86
f 18//18 80//80 19//19
f 19//19 80//80 768//768
f 19//19 768//768 21//21
f 21//21 768//768 769//769
f 21//21 769//769 22//22
f 17//17 736//736 762//762
f 17//17 762//762 7//7
f 7//7 762//762 756//756
f 7//7 756//756 6//6
f 17//17 16//16 736//736
f 736//736 16//16 14//14
f 736//736 14//14 737//737
f 73//73 13//13 757//757
f 757//757 13//13 15//15
f 757//757 15//15 12//12
f 14//14 76//76 737//737
f 737//737 76//76 77//77
f 737//737 77//77 738//738
f 738//738 77//77 75//75
f 738//738 75//75 739//739
f 739//739 75//75 74//74
f 739//739 74//74 765//765
f 765//765 74//74 73//73
f 765//765 73//73 766//766
f 766//766 73//73 757//757
f 4//4 2//2 98//98
f 11//11 10//10 764//764
f 764//764 10//10 9//9
f 764//764 9//9 98//98
f 98//98 9//9 8//8
f 98//98 8//8 4//4
f 764//764 763//763 11//11
f 11//11 763//763 757//757
f 11//11 757//757 12//12
f 41//41 747//747 34//34
f 34//34 747//747 767//767
f 34//34 767//767 35//35
f 56//56 744//744 745//745
f 747//747 41//41 40//40
f 747//747 40//40 746//746
f 40//40 39//39 746//746
f 746//746 39//39 38//38
f 746//746 38//38 745//745
f 745//745 38//38 57//57
f 745//745 57//57 56//56
f 46//46 742//742 58//58
f 58//58 742//742 743//743
f 58//58 743//743 56//56
f 56//56 743//743 744//744
f 52//52 761//761 760//760
f 52//52 760//760 53//53
f 53//53 760//760 759//759
f 53//53 759//759 54//54
f 54//54 759//759 750//750
f 54//54 750//750 60//60
f 60//60 750//750 749//749
f 60//60 749//749 44//44
f 44//44 749//749 748//748
f 44//44 748//748 45//45
f 45//45 748//748 742//742
f 45//45 742//742 46//46
f 68//68 773//773 59//59
f 59//59 773//773 772//772
f 59//59 772//772 52//52
f 52//52 772//772 761//761
f 777//777 776//776 61//61
f 61//61 776//776 62//62
f 42//42 780//780 43//43
f 43//43 780//780 781//781
f 43//43 781//781 61//61
f 61//61 781//781 777//777
f 51//51 752//752 751//751
f 51//51 751//751 70//70
f 70//70 751//751 735//735
f 70//70 735//735 71//71
f 71//71 735//735 734//734
f 71//71 734//734 72//72
f 72//72 734//734 778//778
f 72//72 778//778 49//49
f 48//48 771//771 47//47
f 47//47 771//771 753//753
f 47//47 753//753 51//51
f 51//51 753//753 752//752
f 770//770 771//771 48//48
f 48//48 23//23 770//770
f 770//770 23//23 25//25
f 770//770 25//25 769//769
f 769//769 25//25 26//26
f 769//769 26//26 22//22
f 754//754 92//92 1//1
f 1//1 92//92 91//91
f 49//49 778//778 779//779
f 49//49 779//779 50//50
f 50//50 779//779 780//780
f 50//50 780//780 42//42
f 62//62 776//776 775//775
f 62//62 775//775 64//64
f 64//64 775//775 774//774
f 64//64 774//774 66//66
f 66//66 774//774 773//773
f 66//66 773//773 68//68
f 35//35 767//767 36//36
f 36//36 767//767 758//758
f 36//36 758//758 31//31
f 31//31 758//758 97//97
f 31//31 97//97 32//32
f 6//6 756//756 5//5
f 5//5 756//756 755//755
f 5//5 755//755 3//3
f 3//3 755//755 754//754
f 3//3 754//754 1//1
f 436//436 390//390 392//392
f 409//409 427//427 326//326
f 733//733 436//436 316//316
f 207//207 208//208 322//322
f 322//322 208//208 211//211
f 322//322 211//211 210//210
f 210//210 209//209 322//322
f 322//322 209//209 206//206
f 322//322 206//206 205//205
f 316//316 323//323 733//733
f 733//733 323//323 324//324
f 733//733 324//324 732//732
f 732//732 324//324 322//322
f 732//732 322//322 731//731
f 731//731 322//322 205//205
f 205//205 136//136 731//731
f 731//731 136//136 135//135
f 731//731 135//135 139//139
f 139//139 138//138 731//731
f 731//731 138//138 131//131
f 731//731 131//131 130//130
f 436//436 392//392 316//316
f 316//316 392//392 394//394
f 316//316 394//394 315//315
f 718//718 308//308 307//307
f 721//721 331//331 725//725
f 725//725 331//331 361//361
f 725//725 361//361 716//716
f 716//716 361//361 363//363
f 716//716 363//363 717//717
f 717//717 363//363 364//364
f 717//717 364//364 724//724
f 315//315 394//394 307//307
f 307//307 394//394 405//405
f 307//307 405//405 718//718
f 718//718 405//405 407//407
f 718//718 407//407 719//719
f 719//719 407//407 409//409
f 719//719 409//409 720//720
f 720//720 409//409 326//326
f 720//720 326//326 721//721
f 721//721 326//326 325//325
f 721//721 325//325 331//331
f 434//434 667//667 666//666
f 434//434 666//666 433//433
f 433//433 666//666 665//665
f 433//433 665//665 431//431
f 431//431 665//665 657//657
f 431//431 657//657 435//435
f 708//708 443//443 442//442
f 708//708 442//442 740//740
f 740//740 442//442 441//441
f 740//740 441//441 741//741
f 741//741 441//441 444//444
f 741//741 444//444 711//711
f 404//404 332//332 334//334
f 404//404 334//334 415//415
f 415//415 334//334 374//374
f 415//415 374//374 414//414
f 424//424 359//359 327//327
f 424//424 327//327 425//425
f 425//425 327//327 326//326
f 425//425 326//326 427//427
f 111//111 129//129 338//338
f 111//111 338//338 112//112
f 112//112 338//338 340//340
f 112//112 340//340 102//102
f 102//102 340//340 342//342
f 102//102 342//342 99//99
f 99//99 342//342 344//344
f 99//99 344//344 100//100
f 100//100 344//344 346//346
f 100//100 346//346 108//108
f 108//108 346//346 348//348
f 108//108 348//348 109//109
f 109//109 348//348 350//350
f 109//109 350//350 110//110
f 110//110 350//350 352//352
f 110//110 352//352 101//101
f 101//101 352//352 354//354
f 101//101 354//354 103//103
f 103//103 354//354 119//119
f 103//103 119//119 104//104
f 30//30 29//29 63//63
f 30//30 63//63 782//782
f 782//782 63//63 65//65
f 782//782 65//65 786//786
f 786//786 65//65 67//67
f 786//786 67//67 785//785
f 785//785 67//67 69//69
f 785//785 69//69 783//783
f 783//783 69//69 55//55
f 783//783 55//55 784//784
f 784//784 55//55 37//37
f 784//784 37//37 33//33
# 1568 faces, 0 coords texture

# End of File
