####
#
# OBJ File Generated by Meshlab
#
####
# Object link_2.obj
#
# Vertices: 648
# Faces: 1288
#
####
v 0.011352 -0.034325 0.017750
v 0.013892 -0.032325 0.017750
v 0.013681 -0.034325 0.020726
v 0.015256 -0.032325 0.019494
v 0.015903 -0.032325 0.020831
v 0.013958 -0.034325 0.021300
v 0.015936 -0.032325 0.022317
v 0.013973 -0.034325 0.021936
v 0.015350 -0.032325 0.023683
v 0.013721 -0.034325 0.022521
v 0.014250 -0.032325 0.024682
v 0.013250 -0.034325 0.022950
v 0.008807 -0.032325 0.027105
v 0.008189 -0.034325 0.025203
v 0.000000 -0.032325 0.028500
v 0.000000 -0.034325 0.026500
v -0.004602 -0.034325 0.026097
v -0.004949 -0.032325 0.028067
v -0.031000 -0.034325 0.021443
v -0.031347 -0.032325 0.023412
v -0.034222 -0.031555 0.022905
v -0.034875 -0.033287 0.020936
v -0.032836 -0.032129 0.023150
v -0.033006 -0.034061 0.021180
v -0.058419 -0.019693 0.016784
v -0.057767 -0.017961 0.018754
v -0.059084 -0.019418 0.016582
v -0.060142 -0.017325 0.018335
v -0.059794 -0.019325 0.016365
v -0.063669 -0.019325 0.015682
v -0.064016 -0.017325 0.017652
v -0.065752 -0.017325 0.017500
v -0.065752 -0.019325 0.015500
v -0.198248 -0.019325 0.015500
v -0.198248 -0.017325 0.017500
v -0.199984 -0.017325 0.017652
v -0.200331 -0.019325 0.015682
v -0.204206 -0.019325 0.016365
v -0.203858 -0.017325 0.018335
v -0.206233 -0.017961 0.018754
v -0.205581 -0.019693 0.016784
v -0.204916 -0.019418 0.016582
v -0.229125 -0.033287 0.020936
v -0.229778 -0.031555 0.022905
v -0.232653 -0.032325 0.023412
v -0.233000 -0.034325 0.021443
v -0.231165 -0.032129 0.023150
v -0.230994 -0.034061 0.021180
v -0.259398 -0.034325 0.026097
v -0.259051 -0.032325 0.028067
v -0.264000 -0.032325 0.028500
v -0.264000 -0.034325 0.026500
v -0.277250 -0.034325 0.022950
v -0.278250 -0.032325 0.024682
v -0.279350 -0.032325 0.023683
v -0.277721 -0.034325 0.022521
v -0.279936 -0.032325 0.022317
v -0.277973 -0.034325 0.021936
v -0.279903 -0.032325 0.020831
v -0.277958 -0.034325 0.021300
v -0.279256 -0.032325 0.019494
v -0.277681 -0.034325 0.020726
v -0.275352 -0.034325 0.017750
v -0.277892 -0.032325 0.017750
v -0.279256 -0.032325 -0.019494
v -0.277681 -0.034325 -0.020726
v -0.277892 -0.032325 -0.017750
v -0.275352 -0.034325 -0.017750
v -0.279903 -0.032325 -0.020831
v -0.277958 -0.034325 -0.021300
v -0.279936 -0.032325 -0.022317
v -0.277973 -0.034325 -0.021936
v -0.279350 -0.032325 -0.023683
v -0.277721 -0.034325 -0.022521
v -0.278250 -0.032325 -0.024682
v -0.277250 -0.034325 -0.022950
v -0.272807 -0.032325 -0.027105
v -0.271600 -0.034325 -0.025387
v -0.259051 -0.032325 -0.028067
v -0.259398 -0.034325 -0.026097
v -0.264000 -0.032325 -0.028500
v -0.265541 -0.034325 -0.026455
v -0.265657 -0.032325 -0.028452
v -0.272174 -0.032325 -0.027303
v -0.233000 -0.034325 -0.021443
v -0.232653 -0.032325 -0.023412
v -0.230994 -0.034061 -0.021180
v -0.231165 -0.032129 -0.023150
v -0.229125 -0.033287 -0.020936
v -0.229778 -0.031555 -0.022905
v -0.205581 -0.019693 -0.016784
v -0.206233 -0.017961 -0.018754
v -0.203858 -0.017325 -0.018335
v -0.204206 -0.019325 -0.016365
v -0.200331 -0.019325 -0.015682
v -0.199984 -0.017325 -0.017652
v -0.198248 -0.017325 -0.017500
v -0.198248 -0.019325 -0.015500
v -0.065752 -0.019325 -0.015500
v -0.065752 -0.017325 -0.017500
v -0.064016 -0.017325 -0.017652
v -0.063669 -0.019325 -0.015682
v -0.059794 -0.019325 -0.016365
v -0.060142 -0.017325 -0.018335
v -0.057767 -0.017961 -0.018754
v -0.058419 -0.019693 -0.016784
v -0.034875 -0.033287 -0.020936
v -0.034222 -0.031555 -0.022905
v -0.033006 -0.034061 -0.021180
v -0.032836 -0.032129 -0.023150
v -0.031000 -0.034325 -0.021443
v -0.031347 -0.032325 -0.023412
v -0.004602 -0.034325 -0.026097
v -0.004949 -0.032325 -0.028067
v 0.000000 -0.032325 -0.028500
v 0.001541 -0.034325 -0.026455
v 0.014250 -0.032325 -0.024682
v 0.013250 -0.034325 -0.022950
v 0.008807 -0.032325 -0.027105
v 0.007600 -0.034325 -0.025387
v 0.008174 -0.032325 -0.027303
v 0.001657 -0.032325 -0.028452
v 0.015350 -0.032325 -0.023683
v 0.013721 -0.034325 -0.022521
v 0.015936 -0.032325 -0.022317
v 0.013973 -0.034325 -0.021936
v 0.015903 -0.032325 -0.020831
v 0.013958 -0.034325 -0.021300
v 0.015256 -0.032325 -0.019494
v 0.013681 -0.034325 -0.020726
v 0.011352 -0.034325 -0.017750
v 0.013892 -0.032325 -0.017750
v -0.277681 0.034325 -0.020726
v -0.279256 0.032325 -0.019494
v -0.275352 0.034325 -0.017750
v -0.277892 0.032325 -0.017750
v -0.277250 0.034325 -0.022950
v -0.278250 0.032325 -0.024682
v -0.279350 0.032325 -0.023683
v -0.277721 0.034325 -0.022521
v -0.279936 0.032325 -0.022317
v -0.277973 0.034325 -0.021936
v -0.280000 0.032325 -0.021651
v -0.277958 0.034325 -0.021300
v -0.279903 0.032325 -0.020831
v -0.259051 0.032325 -0.028067
v -0.264000 0.032325 -0.028500
v -0.259398 0.034325 -0.026097
v -0.264000 0.034325 -0.026500
v -0.232653 0.032325 -0.023412
v -0.233000 0.034325 -0.021443
v -0.229125 0.033287 -0.020936
v -0.229778 0.031555 -0.022905
v -0.230994 0.034061 -0.021180
v -0.231165 0.032129 -0.023150
v -0.206233 0.017961 -0.018754
v -0.205581 0.019693 -0.016784
v -0.203858 0.017325 -0.018335
v -0.204916 0.019418 -0.016582
v -0.204206 0.019325 -0.016365
v -0.199984 0.017325 -0.017652
v -0.200331 0.019325 -0.015682
v -0.198248 0.017325 -0.017500
v -0.198248 0.019325 -0.015500
v -0.065752 0.017325 -0.017500
v -0.065752 0.019325 -0.015500
v -0.064016 0.017325 -0.017652
v -0.063669 0.019325 -0.015682
v -0.060142 0.017325 -0.018335
v -0.059794 0.019325 -0.016365
v -0.058419 0.019693 -0.016784
v -0.057767 0.017961 -0.018754
v -0.059084 0.019418 -0.016582
v -0.034222 0.031555 -0.022905
v -0.034875 0.033287 -0.020936
v -0.031000 0.034325 -0.021443
v -0.031347 0.032325 -0.023412
v -0.033006 0.034061 -0.021180
v -0.032836 0.032129 -0.023150
v -0.004949 0.032325 -0.028067
v -0.004602 0.034325 -0.026097
v 0.013250 0.034325 -0.022950
v 0.014250 0.032325 -0.024682
v 0.008807 0.032325 -0.027105
v 0.008189 0.034325 -0.025203
v 0.000000 0.032325 -0.028500
v 0.000000 0.034325 -0.026500
v 0.013681 0.034325 -0.020726
v 0.015256 0.032325 -0.019494
v 0.015903 0.032325 -0.020831
v 0.013958 0.034325 -0.021300
v 0.015936 0.032325 -0.022317
v 0.013973 0.034325 -0.021936
v 0.015350 0.032325 -0.023683
v 0.013721 0.034325 -0.022521
v 0.013892 0.032325 -0.017750
v 0.011352 0.034325 -0.017750
v -0.275352 0.034325 0.017750
v -0.277892 0.032325 0.017750
v -0.277681 0.034325 0.020726
v -0.279256 0.032325 0.019494
v -0.279903 0.032325 0.020831
v -0.277958 0.034325 0.021300
v -0.280000 0.032325 0.021651
v -0.277973 0.034325 0.021936
v -0.279936 0.032325 0.022317
v -0.279531 0.032325 0.023401
v -0.277721 0.034325 0.022521
v -0.279350 0.032325 0.023683
v -0.278250 0.032325 0.024682
v -0.277250 0.034325 0.022950
v -0.272807 0.032325 0.027105
v -0.271600 0.034325 0.025387
v -0.259051 0.032325 0.028067
v -0.259398 0.034325 0.026097
v -0.264000 0.032325 0.028500
v -0.265541 0.034325 0.026455
v -0.265657 0.032325 0.028452
v -0.272174 0.032325 0.027303
v -0.233000 0.034325 0.021443
v -0.232653 0.032325 0.023412
v -0.230994 0.034061 0.021180
v -0.231165 0.032129 0.023150
v -0.229125 0.033287 0.020936
v -0.229778 0.031555 0.022905
v -0.205581 0.019693 0.016784
v -0.206233 0.017961 0.018754
v -0.203858 0.017325 0.018335
v -0.204206 0.019325 0.016365
v -0.200331 0.019325 0.015682
v -0.199984 0.017325 0.017652
v -0.198248 0.017325 0.017500
v -0.198248 0.019325 0.015500
v -0.065752 0.019325 0.015500
v -0.065752 0.017325 0.017500
v -0.064016 0.017325 0.017652
v -0.063669 0.019325 0.015682
v -0.059794 0.019325 0.016365
v -0.060142 0.017325 0.018335
v -0.057767 0.017961 0.018754
v -0.058419 0.019693 0.016784
v -0.034875 0.033287 0.020936
v -0.034222 0.031555 0.022905
v -0.033006 0.034061 0.021180
v -0.032836 0.032129 0.023150
v -0.031000 0.034325 0.021443
v -0.031347 0.032325 0.023412
v -0.004602 0.034325 0.026097
v -0.004949 0.032325 0.028067
v 0.000000 0.032325 0.028500
v 0.001541 0.034325 0.026455
v 0.014250 0.032325 0.024682
v 0.013250 0.034325 0.022950
v 0.008807 0.032325 0.027105
v 0.007600 0.034325 0.025387
v 0.008174 0.032325 0.027303
v 0.001657 0.032325 0.028452
v 0.015350 0.032325 0.023683
v 0.013721 0.034325 0.022521
v 0.015936 0.032325 0.022317
v 0.013973 0.034325 0.021936
v 0.015903 0.032325 0.020831
v 0.013958 0.034325 0.021300
v 0.015256 0.032325 0.019494
v 0.013681 0.034325 0.020726
v 0.011352 0.034325 0.017750
v 0.013892 0.032325 0.017750
v -0.276374 -0.036325 0.012374
v -0.280168 -0.036325 0.006697
v -0.281500 -0.036325 0.000000
v -0.246500 -0.036325 0.000000
v -0.247832 -0.036325 -0.006697
v -0.280168 -0.036325 -0.006697
v -0.270697 -0.036325 -0.016168
v -0.264000 -0.036325 -0.017500
v -0.257303 -0.036325 -0.016168
v -0.251626 -0.036325 0.012374
v -0.257303 -0.036325 0.016168
v -0.264000 -0.036325 0.017500
v -0.276374 -0.036325 -0.012374
v -0.251626 -0.036325 -0.012374
v -0.247832 -0.036325 0.006697
v -0.270697 -0.036325 0.016168
v -0.281500 -0.029325 0.000000
v -0.280168 -0.029325 -0.006697
v -0.276374 -0.029325 -0.012374
v -0.270697 -0.029325 -0.016168
v -0.264000 -0.029325 -0.017500
v -0.257303 -0.029325 -0.016168
v -0.251626 -0.029325 -0.012374
v -0.247832 -0.029325 -0.006697
v -0.246500 -0.029325 0.000000
v -0.279350 -0.029325 0.023683
v -0.278250 -0.029325 0.024682
v -0.280752 -0.029325 0.023057
v -0.279936 -0.029325 0.022317
v -0.277892 -0.029325 -0.017750
v -0.279903 -0.029325 0.020831
v -0.287057 -0.029325 0.016752
v -0.279256 -0.029325 0.019494
v -0.291105 -0.029325 0.008807
v -0.277892 -0.029325 0.017750
v -0.292500 -0.029325 0.000000
v -0.291105 -0.029325 -0.008807
v -0.278250 -0.029325 -0.024682
v -0.279350 -0.029325 -0.023683
v -0.280752 -0.029325 -0.023057
v -0.279936 -0.029325 -0.022317
v -0.287057 -0.029325 -0.016752
v -0.279903 -0.029325 -0.020831
v -0.279256 -0.029325 -0.019494
v -0.270495 -0.029325 -0.017750
v -0.268216 -0.029325 -0.018013
v -0.261598 -0.029325 -0.018343
v -0.255287 -0.029325 -0.016320
v -0.250095 -0.029325 -0.012203
v -0.246687 -0.029325 -0.006520
v -0.245500 -0.029325 -0.000000
v -0.247832 -0.029325 0.006697
v -0.246687 -0.029325 0.006520
v -0.251626 -0.029325 0.012374
v -0.250095 -0.029325 0.012203
v -0.257303 -0.029325 0.016168
v -0.280168 -0.029325 0.006697
v -0.276374 -0.029325 0.012374
v -0.270495 -0.029325 0.017750
v -0.270697 -0.029325 0.016168
v -0.268216 -0.029325 0.018013
v -0.264000 -0.029325 0.017500
v -0.261598 -0.029325 0.018343
v -0.255287 -0.029325 0.016320
v -0.270495 -0.034325 -0.017750
v -0.268216 -0.034325 -0.018013
v -0.261598 -0.034325 -0.018343
v -0.255287 -0.034325 -0.016320
v -0.250095 -0.034325 -0.012203
v -0.246687 -0.034325 -0.006520
v -0.245500 -0.034325 -0.000000
v -0.268216 -0.034325 0.018013
v -0.270495 -0.034325 0.017750
v -0.247832 0.036325 0.006697
v -0.246500 0.036325 0.000000
v -0.281500 0.036325 0.000000
v -0.247832 0.036325 -0.006697
v -0.251626 0.036325 -0.012374
v -0.257303 0.036325 -0.016168
v -0.280168 0.036325 -0.006697
v -0.276374 0.036325 -0.012374
v -0.270697 0.036325 -0.016168
v -0.264000 0.036325 -0.017500
v -0.276374 0.036325 0.012374
v -0.270697 0.036325 0.016168
v -0.264000 0.036325 0.017500
v -0.280168 0.036325 0.006697
v -0.251626 0.036325 0.012374
v -0.257303 0.036325 0.016168
v -0.246500 0.029325 0.000000
v -0.247832 0.029325 -0.006697
v -0.251626 0.029325 -0.012374
v -0.257303 0.029325 -0.016168
v -0.264000 0.029325 -0.017500
v -0.270697 0.029325 -0.016168
v -0.276374 0.029325 -0.012374
v -0.280168 0.029325 -0.006697
v -0.281500 0.029325 0.000000
v -0.279181 0.029325 -0.023900
v -0.278250 0.029325 -0.024682
v -0.280752 0.029325 -0.023057
v -0.280168 0.029325 0.006697
v -0.292500 0.029325 0.000000
v -0.280752 0.029325 0.023057
v -0.278250 0.029325 0.024682
v -0.279531 0.029325 0.023401
v -0.276374 0.029325 0.012374
v -0.287057 0.029325 0.016752
v -0.270697 0.029325 0.016168
v -0.277892 0.029325 0.017750
v -0.264000 0.029325 0.017500
v -0.270495 0.029325 0.017750
v -0.287057 0.029325 -0.016752
v -0.280000 0.029325 -0.021651
v -0.279789 0.029325 -0.022848
v -0.279256 0.029325 0.019494
v -0.291105 0.029325 0.008807
v -0.279809 0.029325 0.020510
v -0.280000 0.029325 0.021651
v -0.268216 0.029325 0.018013
v -0.260866 0.029325 0.018233
v -0.257303 0.029325 0.016168
v -0.254011 0.029325 0.015571
v -0.251626 0.029325 0.012374
v -0.248734 0.029325 0.010450
v -0.247832 0.029325 0.006697
v -0.245869 0.029325 0.003677
v -0.245869 0.029325 -0.003677
v -0.248734 0.029325 -0.010450
v -0.254011 0.029325 -0.015571
v -0.260866 0.029325 -0.018233
v -0.268216 0.029325 -0.018013
v -0.270495 0.029325 -0.017750
v -0.277892 0.029325 -0.017750
v -0.291105 0.029325 -0.008807
v -0.279256 0.029325 -0.019494
v -0.279809 0.029325 -0.020510
v -0.270495 0.034325 0.017750
v -0.268216 0.034325 0.018013
v -0.260866 0.034325 0.018233
v -0.254011 0.034325 0.015571
v -0.248734 0.034325 0.010450
v -0.245869 0.034325 0.003677
v -0.245869 0.034325 -0.003677
v -0.248734 0.034325 -0.010450
v -0.254011 0.034325 -0.015571
v -0.260866 0.034325 -0.018233
v -0.268216 0.034325 -0.018013
v -0.270495 0.034325 -0.017750
v -0.016168 -0.036325 -0.006697
v -0.012374 -0.036325 -0.012374
v -0.006697 -0.036325 -0.016168
v 0.016168 -0.036325 -0.006697
v 0.017500 -0.036325 -0.000000
v 0.012374 -0.036325 -0.012374
v -0.006697 -0.036325 0.016168
v 0.006697 -0.036325 -0.016168
v -0.012374 -0.036325 0.012374
v -0.016168 -0.036325 0.006697
v 0.006697 -0.036325 0.016168
v 0.000000 -0.036325 0.017500
v 0.012374 -0.036325 0.012374
v 0.016168 -0.036325 0.006697
v -0.017500 -0.036325 -0.000000
v 0.000000 -0.036325 -0.017500
v 0.000000 -0.029325 0.017500
v -0.006697 -0.029325 0.016168
v -0.012374 -0.029325 0.012374
v -0.016168 -0.029325 0.006697
v -0.017500 -0.029325 -0.000000
v -0.016168 -0.029325 -0.006697
v -0.012374 -0.029325 -0.012374
v -0.006697 -0.029325 -0.016168
v 0.000000 -0.029325 -0.017500
v 0.015350 -0.029325 -0.023683
v 0.014250 -0.029325 -0.024682
v 0.016752 -0.029325 -0.023057
v 0.015936 -0.029325 -0.022317
v 0.015903 -0.029325 -0.020831
v 0.023057 -0.029325 -0.016752
v 0.015256 -0.029325 -0.019494
v 0.014250 -0.029325 0.024682
v 0.015350 -0.029325 0.023683
v 0.016752 -0.029325 0.023057
v 0.015936 -0.029325 0.022317
v 0.023057 -0.029325 0.016752
v 0.015903 -0.029325 0.020831
v 0.027105 -0.029325 0.008807
v 0.015256 -0.029325 0.019494
v 0.028500 -0.029325 -0.000000
v 0.013892 -0.029325 0.017750
v 0.027105 -0.029325 -0.008807
v 0.006697 -0.029325 0.016168
v 0.012374 -0.029325 0.012374
v 0.016168 -0.029325 0.006697
v 0.017500 -0.029325 -0.000000
v 0.016168 -0.029325 -0.006697
v 0.006495 -0.029325 0.017750
v 0.004216 -0.029325 0.018013
v 0.000000 -0.029325 0.018500
v -0.007080 -0.029325 0.017092
v -0.013081 -0.029325 0.013081
v -0.017092 -0.029325 0.007080
v -0.018500 -0.029325 -0.000000
v -0.017092 -0.029325 -0.007080
v -0.013081 -0.029325 -0.013081
v -0.007080 -0.029325 -0.017092
v 0.000000 -0.029325 -0.018500
v 0.006697 -0.029325 -0.016168
v 0.013892 -0.029325 -0.017750
v 0.012374 -0.029325 -0.012374
v 0.006495 -0.029325 -0.017750
v 0.004216 -0.029325 -0.018013
v 0.006495 -0.034325 0.017750
v 0.004216 -0.034325 0.018013
v 0.000000 -0.034325 0.018500
v 0.004216 -0.034325 -0.018013
v 0.006495 -0.034325 -0.017750
v -0.016168 0.036325 -0.006697
v -0.017500 0.036325 0.000000
v 0.016168 0.036325 0.006697
v -0.016168 0.036325 0.006697
v -0.012374 0.036325 0.012374
v -0.006697 0.036325 0.016168
v 0.017500 0.036325 0.000000
v 0.016168 0.036325 -0.006697
v 0.012374 0.036325 -0.012374
v -0.006697 0.036325 -0.016168
v -0.012374 0.036325 -0.012374
v 0.000000 0.036325 -0.017500
v 0.006697 0.036325 -0.016168
v 0.012374 0.036325 0.012374
v 0.006697 0.036325 0.016168
v 0.000000 0.036325 0.017500
v 0.000000 0.029325 -0.017500
v -0.006697 0.029325 -0.016168
v -0.012374 0.029325 -0.012374
v -0.016168 0.029325 -0.006697
v -0.017500 0.029325 0.000000
v -0.016168 0.029325 0.006697
v -0.012374 0.029325 0.012374
v -0.006697 0.029325 0.016168
v 0.000000 0.029325 0.017500
v 0.014250 0.029325 0.024682
v 0.016752 0.029325 0.023057
v 0.015350 0.029325 0.023683
v 0.015936 0.029325 0.022317
v 0.015903 0.029325 0.020831
v 0.023057 0.029325 0.016752
v 0.015256 0.029325 0.019494
v 0.027105 0.029325 0.008807
v 0.013892 0.029325 0.017750
v 0.028500 0.029325 -0.000000
v 0.027105 0.029325 -0.008807
v 0.014250 0.029325 -0.024682
v 0.015350 0.029325 -0.023683
v 0.016752 0.029325 -0.023057
v 0.015936 0.029325 -0.022317
v 0.023057 0.029325 -0.016752
v 0.015903 0.029325 -0.020831
v 0.015256 0.029325 -0.019494
v 0.013892 0.029325 -0.017750
v 0.016168 0.029325 0.006697
v 0.012374 0.029325 0.012374
v 0.006495 0.029325 0.017750
v 0.006697 0.029325 0.016168
v 0.006697 0.029325 -0.016168
v 0.012374 0.029325 -0.012374
v 0.016168 0.029325 -0.006697
v 0.017500 0.029325 0.000000
v 0.006495 0.029325 -0.017750
v 0.004216 0.029325 -0.018013
v 0.000000 0.029325 -0.018500
v -0.007080 0.029325 -0.017092
v -0.013081 0.029325 -0.013081
v -0.017092 0.029325 -0.007080
v -0.018500 0.029325 -0.000000
v -0.017092 0.029325 0.007080
v -0.013081 0.029325 0.013081
v -0.007080 0.029325 0.017092
v 0.000000 0.029325 0.018500
v 0.004216 0.029325 0.018013
v 0.006495 0.034325 -0.017750
v 0.004216 0.034325 -0.018013
v 0.000000 0.034325 -0.018500
v 0.004216 0.034325 0.018013
v 0.006495 0.034325 0.017750
v -0.272189 0.034325 -0.025203
v -0.017092 -0.034325 -0.007080
v -0.018500 -0.034325 -0.000000
v 0.000000 -0.034325 -0.018500
v -0.007080 -0.034325 -0.017092
v -0.013081 -0.034325 -0.013081
v -0.017092 -0.034325 0.007080
v -0.013081 -0.034325 0.013081
v -0.007080 -0.034325 0.017092
v -0.018500 0.034325 -0.000000
v -0.017092 0.034325 0.007080
v -0.017092 0.034325 -0.007080
v -0.013081 0.034325 -0.013081
v -0.007080 0.034325 -0.017092
v 0.000000 0.034325 0.018500
v -0.007080 0.034325 0.017092
v -0.013081 0.034325 0.013081
v -0.261598 -0.034325 0.018343
v -0.255287 -0.034325 0.016320
v -0.250095 -0.034325 0.012203
v -0.246687 -0.034325 0.006520
v -0.272189 -0.034325 0.025203
v -0.041037 0.027194 0.021704
v -0.041037 -0.027194 0.021704
v -0.033618 -0.031477 0.023012
v -0.031671 -0.032000 0.023355
v -0.005310 -0.032000 0.028003
v -0.005310 0.032000 0.028003
v -0.031671 0.032000 0.023355
v -0.033618 0.031477 0.023012
v -0.035535 -0.031477 0.033880
v -0.034534 -0.031867 0.033703
v -0.033463 -0.032000 0.033514
v -0.041029 -0.028497 0.034848
v -0.041112 -0.027153 0.021712
v -0.041679 -0.028133 0.034856
v -0.042131 -0.027868 0.034731
v -0.043266 -0.027114 0.033534
v -0.041185 -0.027114 0.021732
v -0.042965 -0.027338 0.034093
v -0.042457 -0.027669 0.034561
v -0.043370 -0.026779 0.032729
v -0.043346 -0.026680 0.032531
v -0.041509 -0.026680 0.022117
v -0.041423 -0.026896 0.021912
v -0.041376 -0.026959 0.021856
v -0.043347 -0.027002 0.033218
v -0.041257 -0.027070 0.021765
v -0.042457 0.027669 0.034561
v -0.042131 0.027868 0.034731
v -0.041112 0.027153 0.021712
v -0.041679 0.028133 0.034856
v -0.041029 0.028497 0.034848
v -0.035535 0.031477 0.033880
v -0.041185 0.027114 0.021732
v -0.043266 0.027114 0.033534
v -0.042965 0.027338 0.034093
v -0.033463 0.032000 0.033514
v -0.034534 0.031867 0.033703
v -0.041509 0.026680 0.022117
v -0.043346 0.026680 0.032531
v -0.043370 0.026777 0.032726
v -0.041423 0.026896 0.021912
v -0.043347 0.027002 0.033218
v -0.041376 0.026959 0.021856
v -0.041257 0.027070 0.021765
v -0.002325 0.032000 0.033140
v -0.002600 0.032000 0.032317
v -0.005293 0.032000 0.035092
v -0.005071 0.032000 0.028208
v -0.012032 0.032000 0.032373
v -0.024189 0.032000 0.031879
v -0.019240 0.032000 0.031446
v -0.005174 0.032000 0.028087
v -0.002879 0.032000 0.034740
v -0.002424 0.032000 0.034002
v -0.003603 0.032000 0.035217
v -0.004462 0.032000 0.035342
v -0.002600 -0.032000 0.032317
v -0.005071 -0.032000 0.028208
v -0.005293 -0.032000 0.035092
v -0.004462 -0.032000 0.035342
v -0.003603 -0.032000 0.035217
v -0.002879 -0.032000 0.034740
v -0.002424 -0.032000 0.034002
v -0.002325 -0.032000 0.033140
v -0.024189 -0.032000 0.031879
v -0.019240 -0.032000 0.031446
v -0.005174 -0.032000 0.028087
v -0.012032 -0.032000 0.032373
v -0.272807 0.032325 -0.027105
v -0.272807 -0.032325 0.027105
v -0.018500 0.034325 -0.000000
v -0.018500 -0.034325 -0.000000
vn 0.068062 -0.806518 -0.587278
vn 0.247852 -0.202483 -0.947402
vn 0.235064 -0.958101 -0.163669
vn 0.812586 -0.241657 -0.530383
vn 0.924416 -0.330699 -0.189983
vn 0.623306 -0.778360 -0.075139
vn 0.919994 -0.330561 0.210572
vn 0.637312 -0.743456 0.202747
vn 0.749549 -0.330721 0.573411
vn 0.517794 -0.715543 0.468921
vn 0.434301 -0.386748 0.813516
vn 0.235781 -0.829135 0.506895
vn 0.271222 -0.023503 0.962230
vn 0.041591 -0.981761 0.185515
vn 0.030712 -0.033618 0.998963
vn 0.004582 -0.984323 0.176315
vn -0.022187 -0.990459 0.136009
vn -0.111888 -0.243533 0.963417
vn -0.023794 -0.996174 0.084095
vn -0.144713 -0.610476 0.778702
vn -0.440455 -0.550783 0.708969
vn -0.494283 -0.868953 0.024610
vn -0.313170 -0.599973 0.736177
vn -0.221326 -0.974399 0.039511
vn -0.507719 -0.856201 0.095610
vn -0.197000 -0.044324 0.979401
vn -0.282885 -0.950675 0.127254
vn -0.178161 -0.068752 0.981597
vn -0.083473 -0.995493 0.045018
vn -0.007766 -0.998753 0.049324
vn -0.167841 -0.015371 0.985694
vn -0.002056 -0.101190 0.994865
vn -0.000078 -0.999492 0.031863
vn 0.000077 -0.993620 0.112778
vn 0.000623 -0.028642 0.999590
vn 0.134570 -0.069436 0.988468
vn 0.005161 -0.999224 0.039048
vn 0.037997 -0.994226 0.100359
vn 0.179408 -0.040682 0.982933
vn 0.192349 -0.034559 0.980718
vn 0.501484 -0.864780 0.025865
vn 0.266077 -0.963577 0.026873
vn 0.501141 -0.861942 0.076900
vn 0.188047 -0.026980 0.981789
vn 0.173565 -0.056704 0.983189
vn 0.024825 -0.998729 0.043855
vn 0.182436 -0.048171 0.982037
vn 0.305054 -0.951522 0.039343
vn 0.050932 -0.948385 0.313005
vn 0.160197 -0.015232 0.986968
vn -0.064106 -0.037264 0.997247
vn -0.022522 -0.976900 0.212507
vn -0.237986 -0.871501 0.428776
vn -0.422193 -0.442088 0.791399
vn -0.786470 -0.330714 0.521626
vn -0.612118 -0.715520 0.336665
vn -0.932001 -0.330613 0.148554
vn -0.666907 -0.743444 0.050258
vn -0.909526 -0.330670 -0.251833
vn -0.589021 -0.778395 -0.217154
vn -0.711702 -0.510272 -0.482806
vn -0.085145 -0.994406 -0.062504
vn -0.116143 -0.325309 -0.938448
vn -0.590786 -0.187574 -0.784722
vn -0.812586 -0.241657 0.530383
vn -0.222160 -0.962662 0.154685
vn -0.247852 -0.202483 0.947402
vn -0.066172 -0.818303 0.570965
vn -0.924416 -0.330699 0.189983
vn -0.614011 -0.785819 0.074018
vn -0.919994 -0.330561 -0.210572
vn -0.665641 -0.715598 -0.211760
vn -0.749549 -0.330721 -0.573411
vn -0.495692 -0.743488 -0.448905
vn -0.434301 -0.386748 -0.813516
vn -0.228856 -0.835014 -0.500377
vn -0.395897 -0.054723 -0.916663
vn -0.051895 -0.978070 -0.201707
vn 0.160314 -0.053885 -0.985594
vn 0.025671 -0.983921 -0.176748
vn 0.070165 -0.033977 -0.996957
vn -0.008308 -0.988361 -0.151899
vn -0.145355 -0.048075 -0.988211
vn -0.169560 -0.011326 -0.985455
vn 0.021552 -0.996862 -0.076170
vn 0.173825 -0.016696 -0.984635
vn 0.221328 -0.974399 -0.039508
vn 0.186978 -0.045572 -0.981306
vn 0.494283 -0.868953 -0.024611
vn 0.200427 -0.048735 -0.978496
vn 0.497691 -0.862398 -0.092595
vn 0.183516 -0.018937 -0.982834
vn 0.178224 -0.085221 -0.980293
vn 0.060356 -0.997193 -0.044309
vn 0.014904 -0.995398 -0.094662
vn 0.156692 -0.044477 -0.986646
vn 0.002056 -0.101190 -0.994865
vn 0.000077 -0.999500 -0.031622
vn -0.000076 -0.993792 -0.111253
vn -0.000623 -0.028642 -0.999590
vn -0.134570 -0.069436 -0.988468
vn -0.010021 -0.997072 -0.075814
vn -0.052217 -0.996955 -0.057907
vn -0.179451 -0.040670 -0.982926
vn -0.192349 -0.034559 -0.980718
vn -0.493012 -0.869643 -0.025686
vn -0.501141 -0.861942 -0.076900
vn -0.188054 -0.026980 -0.981788
vn -0.305056 -0.951522 -0.039333
vn -0.182436 -0.048171 -0.982037
vn -0.024505 -0.998762 -0.043292
vn -0.173559 -0.056703 -0.983190
vn -0.041852 -0.963411 -0.264739
vn -0.160197 -0.015232 -0.986968
vn -0.058084 -0.057979 -0.996627
vn 0.021490 -0.973044 -0.229614
vn 0.458989 -0.336805 -0.822126
vn 0.250415 -0.826401 -0.504335
vn 0.400638 -0.031454 -0.915696
vn 0.047048 -0.986508 -0.156808
vn 0.169574 -0.022577 -0.985259
vn 0.144842 -0.026999 -0.989086
vn 0.786470 -0.330714 -0.521626
vn 0.612118 -0.715520 -0.336665
vn 0.932001 -0.330613 -0.148554
vn 0.616699 -0.785826 -0.046475
vn 0.909526 -0.330670 0.251833
vn 0.655459 -0.715528 0.241647
vn 0.711702 -0.510272 0.482806
vn 0.080552 -0.994995 0.059132
vn 0.116143 -0.325309 0.938448
vn 0.590786 -0.187574 0.784722
vn -0.085145 0.994406 0.062504
vn -0.711702 0.510272 0.482806
vn -0.116143 0.325309 0.938448
vn -0.590786 0.187574 0.784722
vn -0.237986 0.871501 -0.428776
vn -0.415609 0.448229 -0.791429
vn -0.765667 0.347611 -0.541221
vn -0.612118 0.715520 -0.336665
vn -0.903973 0.334951 -0.265782
vn -0.638252 0.763065 -0.101809
vn -0.942757 0.328090 0.059714
vn -0.613292 0.766983 0.188705
vn -0.890572 0.294885 0.346301
vn 0.160197 0.015232 -0.986968
vn -0.096249 0.026795 -0.994997
vn 0.050967 0.948311 -0.313222
vn -0.021800 0.978374 -0.205693
vn 0.173596 0.051720 -0.983458
vn 0.024593 0.998753 -0.043446
vn 0.501141 0.861942 -0.076900
vn 0.200717 0.050976 -0.978322
vn 0.305054 0.951522 -0.039343
vn 0.174677 0.005644 -0.984610
vn 0.219779 0.086129 -0.971740
vn 0.501484 0.864780 -0.025865
vn 0.178360 0.033000 -0.983412
vn 0.266077 0.963577 -0.026873
vn 0.022092 0.998052 -0.058351
vn 0.134570 0.069436 -0.988468
vn 0.007607 0.998314 -0.057547
vn 0.000623 0.028642 -0.999590
vn 0.000077 0.993620 -0.112778
vn -0.002056 0.101190 -0.994865
vn -0.000078 0.999492 -0.031863
vn -0.156692 0.044477 -0.986646
vn -0.015113 0.995268 -0.095989
vn -0.178035 0.066322 -0.981787
vn -0.043813 0.998760 -0.023629
vn -0.507719 0.856201 -0.095610
vn -0.199449 0.049076 -0.978678
vn -0.282885 0.950675 -0.127254
vn -0.192919 0.034962 -0.980592
vn -0.494283 0.868953 -0.024610
vn -0.021813 0.996785 -0.077093
vn -0.173816 0.015875 -0.984650
vn -0.221326 0.974399 -0.039511
vn -0.187280 0.046620 -0.981200
vn -0.159970 0.057861 -0.985425
vn -0.022187 0.990459 -0.136009
vn 0.236546 0.827909 -0.508539
vn 0.434301 0.386748 -0.813516
vn 0.264365 0.039167 -0.963627
vn 0.041591 0.981761 -0.185515
vn 0.065008 0.025947 -0.997547
vn 0.004582 0.984323 -0.176315
vn 0.235064 0.958101 0.163669
vn 0.812586 0.241657 0.530383
vn 0.924416 0.330699 0.189983
vn 0.614011 0.785819 0.074018
vn 0.919994 0.330561 -0.210572
vn 0.665641 0.715598 -0.211760
vn 0.749549 0.330721 -0.573411
vn 0.495692 0.743488 -0.448905
vn 0.247852 0.202483 0.947402
vn 0.068062 0.806518 0.587278
vn -0.066172 0.818303 -0.570965
vn -0.247852 0.202483 -0.947402
vn -0.219881 0.963438 -0.153098
vn -0.804966 0.251911 -0.537188
vn -0.896742 0.340201 -0.283049
vn -0.676744 0.724707 -0.129681
vn -0.897743 0.440059 -0.020117
vn -0.648450 0.745499 0.154091
vn -0.940190 0.229244 0.251971
vn -0.826428 0.437233 0.354744
vn -0.477321 0.773592 0.416798
vn -0.687929 0.231316 0.687929
vn -0.434301 0.386748 0.813516
vn -0.230830 0.831867 0.504693
vn -0.395897 0.054723 0.916663
vn -0.051895 0.978070 0.201707
vn 0.160314 0.053885 0.985594
vn 0.024604 0.985239 0.169404
vn 0.070165 0.033977 0.996957
vn -0.008009 0.989188 0.146434
vn -0.151012 0.023018 0.988264
vn -0.185059 0.028672 0.982309
vn 0.022487 0.996583 0.079474
vn 0.173819 0.015875 0.984650
vn 0.221328 0.974399 0.039508
vn 0.187280 0.046620 0.981200
vn 0.494283 0.868953 0.024611
vn 0.192915 0.034962 0.980592
vn 0.497691 0.862398 0.092595
vn 0.199766 0.050455 0.978544
vn 0.177165 0.062753 0.982179
vn 0.094761 0.993066 0.069566
vn 0.009264 0.998224 0.058840
vn 0.156692 0.044477 0.986646
vn 0.002056 0.101190 0.994865
vn 0.000077 0.999500 0.031622
vn -0.000074 0.994094 0.108522
vn -0.000623 0.028642 0.999590
vn -0.134570 0.069436 0.988468
vn -0.009669 0.997274 0.073147
vn -0.085109 0.991891 0.094383
vn -0.182771 0.064829 0.981016
vn -0.238363 0.121699 0.963521
vn -0.493012 0.869643 0.025686
vn -0.501141 0.861942 0.076900
vn -0.424453 0.533756 0.731399
vn -0.305056 0.951522 0.039333
vn -0.246331 0.547798 0.799524
vn -0.025587 0.998650 0.045203
vn -0.130357 0.675730 0.725531
vn -0.041852 0.963411 0.264739
vn -0.097845 0.084754 0.991586
vn -0.058084 0.057979 0.996627
vn 0.021490 0.973044 0.229614
vn 0.458989 0.336805 0.822126
vn 0.249726 0.827455 0.502947
vn 0.395897 0.054723 0.916663
vn 0.047048 0.986508 0.156808
vn 0.184595 0.052485 0.981412
vn 0.150794 0.012430 0.988487
vn 0.786470 0.330714 0.521626
vn 0.612118 0.715520 0.336665
vn 0.932001 0.330613 0.148554
vn 0.666907 0.743444 0.050258
vn 0.909526 0.330670 -0.251833
vn 0.589021 0.778395 -0.217154
vn 0.711702 0.510272 -0.482806
vn 0.080986 0.994941 -0.059451
vn 0.116143 0.325309 -0.938448
vn 0.590786 0.187574 -0.784722
vn -0.216615 -0.957651 0.189688
vn -0.939665 -0.125620 0.318198
vn -0.113965 -0.993456 -0.007556
vn 0.287296 -0.957653 0.019047
vn 0.151655 -0.987098 -0.051355
vn -0.297855 -0.943196 -0.147187
vn -0.135259 -0.906731 -0.399431
vn 0.065629 -0.125577 -0.989911
vn 0.398275 -0.437935 -0.805972
vn 0.136112 -0.978424 0.155433
vn 0.318198 -0.125620 0.939665
vn -0.043338 -0.755533 0.653675
vn -0.262740 -0.917031 -0.300037
vn 0.524954 -0.716311 -0.459698
vn 0.267451 -0.954465 0.132162
vn -0.439507 -0.125620 0.889411
vn -0.736973 -0.674154 0.048860
vn -0.493707 -0.853407 -0.167184
vn -0.682629 -0.420338 -0.597774
vn -0.407008 -0.394913 -0.823644
vn -0.065313 -0.158887 -0.985134
vn 0.316765 -0.156920 -0.935434
vn 0.650940 -0.154013 -0.743342
vn 0.886374 -0.149969 -0.438007
vn 0.987270 -0.144958 -0.065454
vn -0.758961 -0.169984 0.628557
vn -0.454360 -0.001306 0.890817
vn -0.669047 -0.016425 0.743039
vn -0.945045 -0.204368 0.255194
vn -0.043585 -0.991006 0.126518
vn -0.366186 -0.928567 -0.060592
vn -0.837706 -0.053073 0.543537
vn -0.183443 -0.975711 -0.119735
vn -0.958863 -0.121542 0.256532
vn -0.011637 -0.994049 -0.108311
vn -0.985157 -0.163583 -0.052015
vn -0.872193 -0.356275 -0.335182
vn -0.453601 -0.000643 -0.891205
vn -0.841674 -0.169966 -0.512539
vn -0.669036 -0.017364 -0.743027
vn -0.506077 -0.860352 -0.060664
vn -0.776310 -0.039218 -0.629130
vn -0.166396 -0.984629 0.053079
vn -0.156557 -0.982369 0.102186
vn 0.028286 -0.164064 0.986044
vn 0.061958 -0.363385 0.929577
vn -0.068331 -0.187186 0.979945
vn -0.408990 -0.190036 0.892532
vn -0.696811 -0.193886 0.690552
vn -0.894605 -0.198629 0.400286
vn -0.977063 -0.204527 0.059293
vn 0.937975 -0.138985 0.317626
vn -0.933861 -0.211500 -0.288393
vn 0.745725 -0.132106 0.653026
vn -0.770924 -0.219530 -0.597898
vn 0.434637 -0.193579 0.879555
vn -0.577803 -0.764604 0.285525
vn -0.578158 -0.479407 0.660229
vn 0.014760 -0.578418 -0.815607
vn -0.317296 -0.146120 0.937002
vn 0.065274 -0.191418 -0.979336
vn 0.065313 -0.158887 0.985134
vn -0.186283 -0.187175 -0.964502
vn -0.518115 -0.142717 -0.843320
vn 0.020108 -0.837801 0.545605
vn 0.039458 -0.804967 0.592006
vn -0.100493 -0.848041 0.520314
vn -0.121464 -0.972708 0.197703
vn -0.291346 -0.929549 0.225956
vn -0.366895 -0.923336 0.113304
vn -0.514245 -0.857075 -0.031207
vn 0.020684 -0.950404 -0.310329
vn 0.028217 -0.862620 -0.505065
vn 0.169471 0.983863 0.057388
vn 0.287296 0.957653 -0.019047
vn -0.105952 0.994346 0.007024
vn 0.267451 0.954465 -0.132162
vn 0.218879 0.943195 -0.249950
vn 0.092349 0.957653 -0.272714
vn -0.939665 0.125620 -0.318198
vn -0.333314 0.896498 -0.291880
vn -0.398275 0.437935 -0.805972
vn -0.065629 0.125577 -0.989911
vn -0.189693 0.957649 0.216620
vn -0.318198 0.125620 0.939665
vn 0.043338 0.755533 0.653675
vn -0.297855 0.943196 0.147187
vn 0.333314 0.896497 0.291881
vn 0.439507 0.125620 0.889411
vn 0.984908 0.160286 0.065298
vn 0.934924 0.160271 -0.316593
vn 0.742601 0.160207 -0.650291
vn 0.437305 0.160067 -0.884954
vn 0.065302 0.159912 -0.984969
vn -0.317296 0.146120 -0.937002
vn -0.578158 0.479407 -0.660229
vn -0.477836 0.846119 -0.236125
vn -0.689753 0.722599 -0.045730
vn -0.724805 0.137120 -0.675171
vn -0.453788 0.000815 -0.891109
vn -0.669091 0.011787 -0.743087
vn -0.725568 0.642793 0.245699
vn -0.918623 0.392147 0.048502
vn -0.669107 0.009571 0.743105
vn -0.454009 0.000896 0.890997
vn -0.595141 0.738808 0.316181
vn -0.453816 0.797573 0.397403
vn -0.776186 0.043100 0.629030
vn -0.411250 0.371846 0.832228
vn -0.048473 0.988864 -0.140706
vn -0.063863 0.260868 0.963260
vn 0.028646 0.044953 -0.998578
vn -0.837693 0.053358 -0.543529
vn -0.355056 0.934792 -0.009928
vn -0.913818 0.196966 -0.355163
vn -0.052603 0.997947 -0.036536
vn -0.929128 0.096068 0.357062
vn -0.149195 0.987022 -0.059396
vn -0.572451 0.819313 0.032043
vn 0.049582 0.143222 -0.988448
vn -0.101086 0.167892 -0.980609
vn 0.316603 0.160066 0.934955
vn -0.475171 0.167673 -0.863770
vn 0.650291 0.160207 0.742601
vn -0.774090 0.167587 -0.610491
vn 0.884924 0.160271 0.437290
vn -0.950790 0.167476 -0.260671
vn -0.977223 0.167476 0.130336
vn -0.849219 0.167581 0.500742
vn -0.587048 0.167676 0.791997
vn -0.232193 0.167888 0.958071
vn 0.049310 0.176635 0.983041
vn 0.014760 0.578418 0.815607
vn -0.015730 0.989099 0.146412
vn -0.958863 0.121542 -0.256532
vn -0.178900 0.976484 0.120308
vn -0.432141 0.893505 0.122079
vn 0.020108 0.837801 -0.545605
vn 0.030224 0.797517 -0.602539
vn -0.127600 0.840546 -0.526498
vn -0.139631 0.972120 -0.188378
vn -0.314146 0.931128 -0.185236
vn -0.418421 0.906537 -0.055806
vn -0.131937 0.990598 0.036172
vn -0.286345 0.931133 0.225828
vn -0.201980 0.907963 0.367161
vn -0.026268 0.966633 0.254814
vn 0.016012 0.947549 0.319210
vn 0.028217 0.862620 0.505065
vn -0.378073 -0.906729 -0.186827
vn -0.653589 -0.125529 -0.746367
vn -0.288356 -0.437872 -0.851539
vn 0.939665 -0.125620 -0.318198
vn 0.251713 -0.967658 0.016688
vn 0.163134 -0.976207 -0.142856
vn -0.054534 -0.992395 0.110358
vn 0.056137 -0.991939 -0.113602
vn -0.224436 -0.954464 0.196537
vn -0.314677 -0.943199 0.106559
vn 0.318198 -0.125620 0.939665
vn -0.059472 -0.437927 0.897041
vn 0.431620 -0.755489 0.492890
vn 0.462006 -0.856988 0.228303
vn -0.397936 -0.917034 -0.026382
vn 0.046159 -0.716327 -0.696236
vn 0.065499 -0.140245 0.987948
vn -0.317406 -0.143775 0.937327
vn -0.651958 -0.143747 0.744505
vn -0.887200 -0.143765 0.438415
vn -0.987445 -0.143761 0.065466
vn -0.937327 -0.143775 -0.317406
vn -0.744505 -0.143747 -0.651958
vn -0.438415 -0.143765 -0.887200
vn -0.065466 -0.143761 -0.987445
vn 0.758961 -0.169984 -0.628557
vn 0.454360 -0.001306 -0.890817
vn 0.669047 -0.016425 -0.743039
vn 0.945045 -0.204368 -0.255194
vn 0.366186 -0.928567 0.060592
vn 0.837706 -0.053073 -0.543537
vn 0.082124 -0.995180 0.053603
vn 0.478073 -0.000984 0.878320
vn 0.841674 -0.169966 0.512539
vn 0.669036 -0.017364 0.743027
vn 0.506077 -0.860352 0.060664
vn 0.776310 -0.039218 0.629130
vn 0.166396 -0.984629 -0.053079
vn 0.928968 -0.097823 0.357000
vn 0.056962 -0.997684 -0.037180
vn 0.981322 -0.185264 0.051813
vn 0.028504 -0.996163 -0.082742
vn 0.908585 -0.339682 -0.243081
vn 0.407008 -0.394913 0.823644
vn 0.682629 -0.420338 0.597774
vn 0.610452 -0.764602 0.206717
vn 0.736973 -0.674154 -0.048860
vn 0.419744 -0.883625 -0.207419
vn -0.028286 -0.164064 -0.986044
vn -0.102002 -0.457501 -0.883339
vn 0.027244 -0.225917 -0.973766
vn 0.314746 -0.192327 -0.929486
vn 0.646517 -0.192306 -0.738264
vn 0.879764 -0.192341 -0.434764
vn 0.979184 -0.192316 -0.064910
vn 0.929486 -0.192327 0.314746
vn 0.738264 -0.192306 0.646517
vn 0.434764 -0.192341 0.879764
vn 0.122807 -0.214580 0.968955
vn 0.315796 -0.174881 -0.932571
vn 0.052029 -0.873375 0.484261
vn 0.578158 -0.479407 -0.660229
vn -0.014760 -0.578418 0.815607
vn -0.113361 -0.152999 0.981703
vn -0.020410 -0.832403 -0.553795
vn -0.091336 -0.604997 -0.790972
vn 0.064678 -0.857554 -0.510312
vn -0.035555 -0.950753 0.307903
vn -0.027367 -0.871379 0.489847
vn -0.114817 0.992625 -0.038881
vn -0.297668 0.954465 0.019735
vn 0.130979 0.990392 0.044353
vn -0.180592 0.979501 0.089241
vn -0.653589 0.125529 0.746367
vn -0.288356 0.437872 0.851539
vn 0.297668 0.954465 -0.019735
vn 0.297855 0.943196 -0.147187
vn 0.262740 0.917031 -0.300037
vn -0.439507 0.125620 -0.889411
vn -0.676364 0.437866 -0.592288
vn -0.043341 0.755489 -0.653726
vn 0.165280 0.857003 -0.488086
vn 0.746367 0.125529 0.653589
vn 0.141557 0.947577 0.286462
vn 0.046159 0.716327 0.696236
vn 0.065499 0.140245 -0.987948
vn -0.317406 0.143775 -0.937327
vn -0.651958 0.143747 -0.744505
vn -0.887200 0.143765 -0.438415
vn -0.987445 0.143761 -0.065466
vn -0.937327 0.143775 0.317406
vn -0.744505 0.143747 0.651958
vn -0.438415 0.143765 0.887200
vn -0.065466 0.143761 0.987445
vn 0.434767 0.000766 0.900542
vn 0.669047 0.016425 0.743039
vn 0.758961 0.169984 0.628557
vn 0.945045 0.204368 0.255194
vn 0.366186 0.928567 -0.060592
vn 0.837706 0.053073 0.543537
vn 0.183443 0.975711 -0.119735
vn 0.958863 0.121542 0.256532
vn 0.011637 0.994049 -0.108311
vn 0.985157 0.163583 -0.052015
vn 0.872193 0.356275 -0.335182
vn 0.453601 0.000643 -0.891205
vn 0.841674 0.169966 -0.512539
vn 0.669036 0.017364 -0.743027
vn 0.506077 0.860352 -0.060664
vn 0.776310 0.039218 -0.629130
vn 0.166396 0.984629 0.053079
vn 0.156557 0.982369 0.102186
vn 0.043585 0.991006 0.126518
vn 0.577803 0.764604 0.285525
vn 0.578158 0.479407 0.660229
vn -0.014760 0.578418 -0.815607
vn 0.315796 0.174881 0.932571
vn 0.407008 0.394913 -0.823644
vn 0.682629 0.420338 -0.597774
vn 0.493707 0.853407 -0.167184
vn 0.736973 0.674154 0.048860
vn -0.028286 0.164064 0.986044
vn -0.102002 0.457501 0.883339
vn 0.027244 0.225917 0.973766
vn 0.314746 0.192327 0.929486
vn 0.646517 0.192306 0.738264
vn 0.879764 0.192341 0.434764
vn 0.979184 0.192316 0.064910
vn 0.929486 0.192327 -0.314746
vn 0.738264 0.192306 -0.646517
vn 0.434764 0.192341 -0.879764
vn 0.122807 0.214580 -0.968955
vn -0.113361 0.152999 -0.981703
vn -0.020410 0.832403 0.553795
vn -0.091336 0.604997 0.790972
vn 0.064678 0.857554 0.510312
vn -0.035555 0.950753 -0.307903
vn -0.027367 0.871379 -0.489847
vn -0.065012 0.976922 -0.203462
vn 0.339877 -0.925350 0.167961
vn 0.000000 -1.000000 0.000000
vn 0.013347 -0.878771 0.477056
vn 0.080862 -0.967697 0.238797
vn 0.247029 -0.927041 0.282084
vn 0.359094 -0.925346 -0.121598
vn 0.159891 -0.977154 -0.140021
vn 0.266684 -0.798537 -0.539646
vn 0.000000 1.000000 0.000000
vn 0.118828 0.991177 -0.058723
vn 0.359094 0.925346 0.121598
vn 0.159891 0.977154 0.140021
vn 0.266684 0.798537 0.539646
vn 0.013347 0.878771 -0.477056
vn 0.080862 0.967697 -0.238797
vn 0.247029 0.927041 -0.282084
vn -0.017209 -0.968913 -0.246803
vn -0.186438 -0.894262 -0.406861
vn -0.261879 -0.929551 -0.259527
vn -0.114969 -0.992036 -0.051442
vn -0.065012 -0.976922 0.203462
vn -0.222601 0.087905 0.970939
vn -0.267384 -0.165731 0.949231
vn -0.444469 -0.894686 -0.044541
vn -0.023616 -0.999453 0.023137
vn 0.024315 -0.987942 0.152900
vn -0.021855 0.972548 0.231675
vn -0.030557 0.998295 0.049727
vn -0.442271 0.895010 -0.057906
vn 0.007616 -0.301379 0.953474
vn 0.090129 -0.306148 0.947708
vn 0.172086 -0.079640 0.981857
vn 0.101655 -0.117381 0.987870
vn -0.514828 -0.758988 -0.398609
vn -0.169329 -0.115964 0.978713
vn -0.454915 -0.213025 0.864681
vn -0.964182 -0.082236 0.252170
vn -0.523370 -0.510847 -0.681997
vn -0.839244 -0.114214 0.531625
vn -0.642370 -0.096746 0.760264
vn -0.998247 -0.052292 -0.027733
vn -0.984965 -0.000099 -0.172754
vn -0.983210 -0.001091 -0.182477
vn -0.910396 -0.049751 -0.410736
vn -0.783605 -0.205831 -0.586171
vn -0.992872 -0.057915 0.104170
vn -0.616134 -0.091565 -0.782301
vn -0.668617 0.185196 0.720176
vn -0.408747 0.110118 0.905980
vn -0.497531 0.820020 -0.282895
vn -0.230210 0.227320 0.946218
vn 0.026590 0.210941 0.977137
vn 0.049633 0.228495 0.972279
vn -0.331235 0.123487 -0.935433
vn -0.912636 0.087468 0.399305
vn -0.775844 0.104218 0.622258
vn 0.170757 0.125350 0.977307
vn 0.088695 0.310852 0.946311
vn -0.984395 0.000559 -0.175972
vn -0.984960 0.000188 -0.172781
vn -0.999250 0.019084 0.033689
vn -0.908667 0.058586 -0.413390
vn -0.991865 0.087139 0.092793
vn -0.683969 0.073595 -0.725790
vn -0.553382 0.154625 -0.818450
vn 0.983071 0.048164 -0.176780
vn 0.865719 0.031273 -0.499553
vn -0.364298 0.067352 0.928844
vn 0.834771 0.198419 -0.513602
vn -0.210869 0.062795 0.975495
vn 0.155049 0.089441 0.983850
vn -0.003484 0.212996 0.977047
vn 0.608471 0.079949 -0.789539
vn 0.766963 0.001947 0.641688
vn 0.966553 0.007443 0.256360
vn 0.423595 0.017407 0.905684
vn 0.000000 0.024442 0.999701
vn 0.883881 -0.058967 -0.463980
vn 0.855222 -0.029899 -0.517399
vn -0.361726 -0.136176 0.922285
vn -0.147131 -0.001953 0.989115
vn 0.284972 -0.050108 0.957225
vn 0.664460 -0.001947 0.747321
vn 0.918121 -0.007445 0.396229
vn 0.999424 -0.015444 -0.030214
vn 0.128572 -0.109813 0.985601
vn -0.072982 -0.074007 0.994584
vn 0.360086 -0.853016 -0.377759
vn -0.289704 -0.172052 0.941525
vn -0.297898 0.033185 -0.954021
vn -0.269344 -0.026356 0.962683
vn 0.997810 0.000000 -0.066145
vn 0.997810 0.000000 0.066145
# 648 vertices, 0 vertices normals

f 1//1 2//2 3//3
f 3//3 2//2 4//4
f 3//3 4//4 5//5
f 3//3 5//5 6//6
f 6//6 5//5 7//7
f 6//6 7//7 8//8
f 8//8 7//7 9//9
f 8//8 9//9 10//10
f 10//10 9//9 11//11
f 10//10 11//11 12//12
f 12//12 11//11 13//13
f 12//12 13//13 14//14
f 14//14 13//13 15//15
f 14//14 15//15 16//16
f 17//17 18//18 19//19
f 19//19 18//18 20//20
f 21//21 22//22 23//23
f 23//23 22//22 24//24
f 23//23 24//24 20//20
f 20//20 24//24 19//19
f 22//22 21//21 25//25
f 25//25 21//21 26//26
f 25//25 26//26 27//27
f 27//27 26//26 28//28
f 27//27 28//28 29//29
f 29//29 28//28 30//30
f 30//30 28//28 31//31
f 32//32 33//33 31//31
f 31//31 33//33 30//30
f 33//33 32//32 34//34
f 34//34 32//32 35//35
f 36//36 37//37 35//35
f 35//35 37//37 34//34
f 37//37 36//36 38//38
f 38//38 36//36 39//39
f 40//40 41//41 39//39
f 39//39 41//41 42//42
f 39//39 42//42 38//38
f 41//41 40//40 43//43
f 43//43 40//40 44//44
f 45//45 46//46 47//47
f 47//47 46//46 48//48
f 47//47 48//48 44//44
f 44//44 48//48 43//43
f 46//46 45//45 49//49
f 49//49 45//45 50//50
f 50//50 51//51 49//49
f 49//49 51//51 52//52
f 53//53 54//54 55//55
f 53//53 55//55 56//56
f 56//56 55//55 57//57
f 56//56 57//57 58//58
f 58//58 57//57 59//59
f 58//58 59//59 60//60
f 60//60 59//59 61//61
f 60//60 61//61 62//62
f 62//62 61//61 63//63
f 63//63 61//61 64//64
f 65//65 66//66 67//67
f 67//67 66//66 68//68
f 66//66 65//65 69//69
f 66//66 69//69 70//70
f 70//70 69//69 71//71
f 70//70 71//71 72//72
f 72//72 71//71 73//73
f 72//72 73//73 74//74
f 74//74 73//73 75//75
f 74//74 75//75 76//76
f 75//75 77//77 76//76
f 76//76 77//77 78//78
f 79//79 80//80 81//81
f 81//81 80//80 82//82
f 81//81 82//82 83//83
f 83//83 82//82 78//78
f 83//83 78//78 84//84
f 84//84 78//78 77//77
f 80//80 79//79 85//85
f 85//85 79//79 86//86
f 85//85 86//86 87//87
f 87//87 86//86 88//88
f 87//87 88//88 89//89
f 89//89 88//88 90//90
f 89//89 90//90 91//91
f 91//91 90//90 92//92
f 93//93 94//94 92//92
f 92//92 94//94 91//91
f 94//94 93//93 95//95
f 95//95 93//93 96//96
f 97//97 98//98 96//96
f 96//96 98//98 95//95
f 98//98 97//97 99//99
f 99//99 97//97 100//100
f 101//101 102//102 100//100
f 100//100 102//102 99//99
f 102//102 101//101 103//103
f 103//103 101//101 104//104
f 105//105 106//106 104//104
f 104//104 106//106 103//103
f 106//106 105//105 107//107
f 107//107 105//105 108//108
f 107//107 108//108 109//109
f 109//109 108//108 110//110
f 109//109 110//110 111//111
f 111//111 110//110 112//112
f 111//111 112//112 113//113
f 113//113 112//112 114//114
f 114//114 115//115 113//113
f 113//113 115//115 116//116
f 117//117 118//118 119//119
f 119//119 118//118 120//120
f 119//119 120//120 121//121
f 121//121 120//120 116//116
f 121//121 116//116 122//122
f 122//122 116//116 115//115
f 118//118 117//117 123//123
f 118//118 123//123 124//124
f 124//124 123//123 125//125
f 124//124 125//125 126//126
f 126//126 125//125 127//127
f 126//126 127//127 128//128
f 128//128 127//127 129//129
f 128//128 129//129 130//130
f 130//130 129//129 131//131
f 131//131 129//129 132//132
f 133//133 134//134 135//135
f 135//135 134//134 136//136
f 137//137 138//138 139//139
f 137//137 139//139 140//140
f 140//140 139//139 141//141
f 140//140 141//141 142//142
f 142//142 141//141 143//143
f 142//142 143//143 144//144
f 143//143 145//145 144//144
f 144//144 145//145 134//134
f 144//144 134//134 133//133
f 146//146 147//147 148//148
f 148//148 147//147 149//149
f 146//146 148//148 150//150
f 150//150 148//148 151//151
f 152//152 153//153 154//154
f 154//154 153//153 155//155
f 154//154 155//155 151//151
f 151//151 155//155 150//150
f 153//153 152//152 156//156
f 156//156 152//152 157//157
f 156//156 157//157 158//158
f 158//158 157//157 159//159
f 158//158 159//159 160//160
f 158//158 160//160 161//161
f 161//161 160//160 162//162
f 161//161 162//162 163//163
f 163//163 162//162 164//164
f 163//163 164//164 165//165
f 165//165 164//164 166//166
f 165//165 166//166 167//167
f 167//167 166//166 168//168
f 167//167 168//168 169//169
f 169//169 168//168 170//170
f 171//171 172//172 173//173
f 173//173 172//172 169//169
f 173//173 169//169 170//170
f 172//172 171//171 174//174
f 174//174 171//171 175//175
f 176//176 177//177 178//178
f 178//178 177//177 179//179
f 178//178 179//179 175//175
f 175//175 179//179 174//174
f 177//177 176//176 180//180
f 180//180 176//176 181//181
f 182//182 183//183 184//184
f 182//182 184//184 185//185
f 185//185 184//184 186//186
f 185//185 186//186 187//187
f 188//188 189//189 190//190
f 188//188 190//190 191//191
f 191//191 190//190 192//192
f 191//191 192//192 193//193
f 193//193 192//192 194//194
f 193//193 194//194 195//195
f 195//195 194//194 183//183
f 195//195 183//183 182//182
f 189//189 188//188 196//196
f 196//196 188//188 197//197
f 198//198 199//199 200//200
f 200//200 199//199 201//201
f 200//200 201//201 202//202
f 200//200 202//202 203//203
f 203//203 202//202 204//204
f 203//203 204//204 205//205
f 204//204 206//206 205//205
f 205//205 206//206 207//207
f 205//205 207//207 208//208
f 207//207 209//209 208//208
f 208//208 209//209 210//210
f 208//208 210//210 211//211
f 210//210 212//212 211//211
f 211//211 212//212 213//213
f 214//214 215//215 216//216
f 216//216 215//215 217//217
f 216//216 217//217 218//218
f 218//218 217//217 213//213
f 218//218 213//213 219//219
f 219//219 213//213 212//212
f 215//215 214//214 220//220
f 220//220 214//214 221//221
f 220//220 221//221 222//222
f 222//222 221//221 223//223
f 222//222 223//223 224//224
f 224//224 223//223 225//225
f 224//224 225//225 226//226
f 226//226 225//225 227//227
f 228//228 229//229 227//227
f 227//227 229//229 226//226
f 229//229 228//228 230//230
f 230//230 228//228 231//231
f 232//232 233//233 231//231
f 231//231 233//233 230//230
f 233//233 232//232 234//234
f 234//234 232//232 235//235
f 236//236 237//237 235//235
f 235//235 237//237 234//234
f 237//237 236//236 238//238
f 238//238 236//236 239//239
f 240//240 241//241 239//239
f 239//239 241//241 238//238
f 241//241 240//240 242//242
f 242//242 240//240 243//243
f 242//242 243//243 244//244
f 244//244 243//243 245//245
f 244//244 245//245 246//246
f 246//246 245//245 247//247
f 246//246 247//247 248//248
f 248//248 247//247 249//249
f 249//249 250//250 248//248
f 248//248 250//250 251//251
f 252//252 253//253 254//254
f 254//254 253//253 255//255
f 254//254 255//255 256//256
f 256//256 255//255 251//251
f 256//256 251//251 257//257
f 257//257 251//251 250//250
f 253//253 252//252 258//258
f 253//253 258//258 259//259
f 259//259 258//258 260//260
f 259//259 260//260 261//261
f 261//261 260//260 262//262
f 261//261 262//262 263//263
f 263//263 262//262 264//264
f 263//263 264//264 265//265
f 265//265 264//264 266//266
f 266//266 264//264 267//267
f 268//268 269//269 270//270
f 271//271 270//270 272//272
f 272//272 270//270 273//273
f 274//274 275//275 276//276
f 277//277 278//278 279//279
f 273//273 280//280 272//272
f 272//272 280//280 274//274
f 272//272 274//274 281//281
f 281//281 274//274 276//276
f 271//271 282//282 270//270
f 270//270 282//282 277//277
f 270//270 277//277 268//268
f 268//268 277//277 279//279
f 268//268 279//279 283//283
f 270//270 284//284 285//285
f 270//270 285//285 273//273
f 273//273 285//285 286//286
f 273//273 286//286 280//280
f 280//280 286//286 287//287
f 280//280 287//287 274//274
f 274//274 287//287 288//288
f 274//274 288//288 275//275
f 275//275 288//288 289//289
f 275//275 289//289 276//276
f 276//276 289//289 290//290
f 276//276 290//290 281//281
f 281//281 290//290 291//291
f 281//281 291//291 272//272
f 272//272 291//291 292//292
f 272//272 292//292 271//271
f 293//293 294//294 295//295
f 293//293 295//295 296//296
f 287//287 286//286 297//297
f 296//296 295//295 298//298
f 298//298 295//295 299//299
f 298//298 299//299 300//300
f 300//300 299//299 301//301
f 300//300 301//301 302//302
f 302//302 301//301 303//303
f 302//302 303//303 304//304
f 305//305 306//306 307//307
f 307//307 306//306 308//308
f 307//307 308//308 309//309
f 309//309 308//308 310//310
f 309//309 310//310 304//304
f 286//286 285//285 297//297
f 297//297 285//285 304//304
f 297//297 304//304 311//311
f 311//311 304//304 310//310
f 297//297 312//312 287//287
f 287//287 312//312 313//313
f 287//287 313//313 288//288
f 288//288 313//313 314//314
f 288//288 314//314 289//289
f 289//289 314//314 315//315
f 289//289 315//315 290//290
f 290//290 315//315 316//316
f 290//290 316//316 291//291
f 291//291 316//316 317//317
f 291//291 317//317 292//292
f 292//292 317//317 318//318
f 292//292 318//318 319//319
f 319//319 318//318 320//320
f 319//319 320//320 321//321
f 321//321 320//320 322//322
f 321//321 322//322 323//323
f 285//285 284//284 304//304
f 304//304 284//284 324//324
f 304//304 324//324 302//302
f 302//302 324//324 325//325
f 302//302 325//325 326//326
f 326//326 325//325 327//327
f 326//326 327//327 328//328
f 328//328 327//327 329//329
f 328//328 329//329 330//330
f 330//330 329//329 323//323
f 330//330 323//323 331//331
f 331//331 323//323 322//322
f 305//305 75//75 73//73
f 305//305 73//73 306//306
f 306//306 73//73 71//71
f 306//306 71//71 308//308
f 308//308 71//71 69//69
f 308//308 69//69 310//310
f 310//310 69//69 65//65
f 310//310 65//65 311//311
f 67//67 297//297 65//65
f 65//65 297//297 311//311
f 297//297 67//67 312//312
f 312//312 67//67 68//68
f 312//312 68//68 332//332
f 332//332 333//333 312//312
f 312//312 333//333 313//313
f 313//313 333//333 314//314
f 314//314 333//333 334//334
f 314//314 334//334 315//315
f 315//315 334//334 335//335
f 315//315 335//335 316//316
f 316//316 335//335 336//336
f 316//316 336//336 317//317
f 317//317 336//336 337//337
f 317//317 337//337 318//318
f 318//318 337//337 338//338
f 339//339 340//340 328//328
f 328//328 340//340 326//326
f 64//64 302//302 63//63
f 63//63 302//302 326//326
f 63//63 326//326 340//340
f 61//61 300//300 64//64
f 64//64 300//300 302//302
f 300//300 61//61 59//59
f 300//300 59//59 298//298
f 298//298 59//59 57//57
f 298//298 57//57 296//296
f 296//296 57//57 55//55
f 296//296 55//55 293//293
f 293//293 55//55 54//54
f 293//293 54//54 294//294
f 341//341 342//342 343//343
f 342//342 344//344 343//343
f 343//343 344//344 345//345
f 343//343 345//345 346//346
f 347//347 343//343 348//348
f 348//348 343//343 346//346
f 348//348 346//346 349//349
f 349//349 346//346 350//350
f 351//351 352//352 353//353
f 343//343 354//354 341//341
f 341//341 354//354 351//351
f 341//341 351//351 355//355
f 355//355 351//351 353//353
f 355//355 353//353 356//356
f 342//342 357//357 358//358
f 342//342 358//358 344//344
f 344//344 358//358 359//359
f 344//344 359//359 345//345
f 345//345 359//359 360//360
f 345//345 360//360 346//346
f 346//346 360//360 361//361
f 346//346 361//361 350//350
f 350//350 361//361 362//362
f 350//350 362//362 349//349
f 349//349 362//362 363//363
f 349//349 363//363 348//348
f 348//348 363//363 364//364
f 348//348 364//364 347//347
f 347//347 364//364 365//365
f 347//347 365//365 343//343
f 366//366 367//367 368//368
f 369//369 365//365 370//370
f 371//371 372//372 373//373
f 369//369 370//370 374//374
f 371//371 373//373 375//375
f 376//376 377//377 378//378
f 378//378 377//377 379//379
f 380//380 381//381 368//368
f 368//368 381//381 382//382
f 368//368 382//382 366//366
f 376//376 374//374 377//377
f 377//377 374//374 370//370
f 377//377 370//370 383//383
f 383//383 370//370 384//384
f 383//383 384//384 385//385
f 385//385 384//384 375//375
f 385//385 375//375 386//386
f 386//386 375//375 373//373
f 379//379 387//387 378//378
f 378//378 387//387 388//388
f 378//378 388//388 389//389
f 389//389 388//388 390//390
f 389//389 390//390 391//391
f 391//391 390//390 392//392
f 391//391 392//392 393//393
f 393//393 392//392 394//394
f 393//393 394//394 357//357
f 357//357 394//394 395//395
f 357//357 395//395 358//358
f 358//358 395//395 396//396
f 358//358 396//396 359//359
f 359//359 396//396 397//397
f 359//359 397//397 360//360
f 360//360 397//397 398//398
f 360//360 398//398 361//361
f 361//361 398//398 399//399
f 361//361 399//399 362//362
f 362//362 399//399 400//400
f 362//362 400//400 363//363
f 363//363 400//400 401//401
f 363//363 401//401 364//364
f 365//365 364//364 370//370
f 370//370 364//364 401//401
f 370//370 401//401 402//402
f 402//402 401//401 403//403
f 402//402 403//403 380//380
f 380//380 403//403 404//404
f 380//380 404//404 381//381
f 199//199 377//377 201//201
f 201//201 377//377 383//383
f 377//377 199//199 379//379
f 379//379 199//199 198//198
f 379//379 198//198 405//405
f 405//405 406//406 379//379
f 379//379 406//406 387//387
f 387//387 406//406 388//388
f 388//388 406//406 407//407
f 388//388 407//407 390//390
f 390//390 407//407 408//408
f 390//390 408//408 392//392
f 392//392 408//408 409//409
f 392//392 409//409 394//394
f 394//394 409//409 410//410
f 394//394 410//410 395//395
f 395//395 410//410 411//411
f 395//395 411//411 396//396
f 396//396 411//411 412//412
f 396//396 412//412 397//397
f 397//397 412//412 413//413
f 397//397 413//413 398//398
f 398//398 413//413 414//414
f 398//398 414//414 399//399
f 399//399 414//414 415//415
f 415//415 416//416 399//399
f 399//399 416//416 400//400
f 136//136 401//401 135//135
f 135//135 401//401 400//400
f 135//135 400//400 416//416
f 134//134 403//403 136//136
f 136//136 403//403 401//401
f 403//403 134//134 145//145
f 403//403 145//145 404//404
f 404//404 145//145 143//143
f 404//404 143//143 381//381
f 210//210 209//209 372//372
f 372//372 209//209 373//373
f 204//204 386//386 206//206
f 206//206 386//386 373//373
f 206//206 373//373 207//207
f 207//207 373//373 209//209
f 417//417 418//418 419//419
f 420//420 421//421 422//422
f 422//422 421//421 423//423
f 422//422 423//423 424//424
f 424//424 423//423 425//425
f 424//424 425//425 426//426
f 427//427 428//428 429//429
f 429//429 428//428 423//423
f 429//429 423//423 430//430
f 430//430 423//423 421//421
f 426//426 431//431 424//424
f 424//424 431//431 417//417
f 424//424 417//417 432//432
f 432//432 417//417 419//419
f 428//428 433//433 434//434
f 428//428 434//434 423//423
f 423//423 434//434 435//435
f 423//423 435//435 425//425
f 425//425 435//435 436//436
f 425//425 436//436 426//426
f 426//426 436//436 437//437
f 426//426 437//437 431//431
f 431//431 437//437 438//438
f 431//431 438//438 417//417
f 417//417 438//438 439//439
f 417//417 439//439 418//418
f 418//418 439//439 440//440
f 418//418 440//440 419//419
f 419//419 440//440 441//441
f 419//419 441//441 432//432
f 442//442 443//443 444//444
f 442//442 444//444 445//445
f 445//445 444//444 446//446
f 446//446 444//444 447//447
f 446//446 447//447 448//448
f 449//449 450//450 451//451
f 451//451 450//450 452//452
f 451//451 452//452 453//453
f 453//453 452//452 454//454
f 453//453 454//454 455//455
f 455//455 454//454 456//456
f 455//455 456//456 457//457
f 457//457 456//456 458//458
f 457//457 458//458 459//459
f 460//460 461//461 458//458
f 458//458 461//461 462//462
f 458//458 462//462 459//459
f 459//459 462//462 463//463
f 459//459 463//463 464//464
f 458//458 465//465 460//460
f 460//460 465//465 466//466
f 460//460 466//466 433//433
f 433//433 466//466 467//467
f 433//433 467//467 434//434
f 434//434 467//467 468//468
f 434//434 468//468 435//435
f 435//435 468//468 469//469
f 435//435 469//469 436//436
f 436//436 469//469 470//470
f 436//436 470//470 437//437
f 437//437 470//470 471//471
f 437//437 471//471 438//438
f 438//438 471//471 472//472
f 438//438 472//472 439//439
f 439//439 472//472 473//473
f 439//439 473//473 440//440
f 440//440 473//473 474//474
f 440//440 474//474 441//441
f 441//441 474//474 475//475
f 441//441 475//475 476//476
f 447//447 459//459 448//448
f 448//448 459//459 464//464
f 448//448 464//464 477//477
f 477//477 464//464 478//478
f 477//477 478//478 479//479
f 479//479 478//478 476//476
f 479//479 476//476 480//480
f 480//480 476//476 475//475
f 2//2 458//458 4//4
f 4//4 458//458 456//456
f 458//458 2//2 465//465
f 465//465 2//2 1//1
f 465//465 1//1 481//481
f 481//481 482//482 465//465
f 465//465 482//482 466//466
f 466//466 482//482 467//467
f 467//467 482//482 483//483
f 484//484 485//485 480//480
f 480//480 485//485 479//479
f 132//132 477//477 131//131
f 131//131 477//477 479//479
f 131//131 479//479 485//485
f 129//129 448//448 132//132
f 132//132 448//448 477//477
f 448//448 129//129 127//127
f 448//448 127//127 446//446
f 446//446 127//127 125//125
f 446//446 125//125 445//445
f 445//445 125//125 123//123
f 445//445 123//123 442//442
f 442//442 123//123 117//117
f 442//442 117//117 443//443
f 449//449 11//11 9//9
f 449//449 9//9 450//450
f 450//450 9//9 7//7
f 450//450 7//7 452//452
f 452//452 7//7 5//5
f 452//452 5//5 454//454
f 454//454 5//5 4//4
f 454//454 4//4 456//456
f 486//486 487//487 488//488
f 488//488 487//487 489//489
f 489//489 490//490 491//491
f 488//488 492//492 486//486
f 486//486 492//492 493//493
f 486//486 493//493 494//494
f 495//495 496//496 497//497
f 497//497 496//496 486//486
f 497//497 486//486 498//498
f 498//498 486//486 494//494
f 499//499 488//488 500//500
f 500//500 488//488 489//489
f 500//500 489//489 501//501
f 501//501 489//489 491//491
f 497//497 502//502 503//503
f 497//497 503//503 495//495
f 495//495 503//503 504//504
f 495//495 504//504 496//496
f 496//496 504//504 505//505
f 496//496 505//505 486//486
f 486//486 505//505 506//506
f 486//486 506//506 487//487
f 487//487 506//506 507//507
f 487//487 507//507 489//489
f 489//489 507//507 508//508
f 489//489 508//508 490//490
f 490//490 508//508 509//509
f 490//490 509//509 491//491
f 491//491 509//509 510//510
f 491//491 510//510 501//501
f 511//511 512//512 513//513
f 513//513 512//512 514//514
f 514//514 512//512 515//515
f 515//515 512//512 516//516
f 515//515 516//516 517//517
f 517//517 516//516 518//518
f 517//517 518//518 519//519
f 519//519 518//518 520//520
f 519//519 520//520 521//521
f 522//522 523//523 524//524
f 524//524 523//523 525//525
f 524//524 525//525 526//526
f 526//526 525//525 527//527
f 526//526 527//527 521//521
f 521//521 527//527 528//528
f 521//521 528//528 529//529
f 521//521 530//530 519//519
f 519//519 530//530 531//531
f 519//519 531//531 532//532
f 532//532 531//531 533//533
f 534//534 535//535 529//529
f 529//529 535//535 536//536
f 529//529 536//536 521//521
f 521//521 536//536 537//537
f 521//521 537//537 530//530
f 529//529 538//538 534//534
f 534//534 538//538 539//539
f 534//534 539//539 502//502
f 502//502 539//539 540//540
f 502//502 540//540 503//503
f 503//503 540//540 541//541
f 503//503 541//541 504//504
f 504//504 541//541 542//542
f 504//504 542//542 505//505
f 505//505 542//542 543//543
f 505//505 543//543 506//506
f 506//506 543//543 544//544
f 506//506 544//544 507//507
f 507//507 544//544 545//545
f 507//507 545//545 508//508
f 508//508 545//545 546//546
f 508//508 546//546 509//509
f 509//509 546//546 547//547
f 509//509 547//547 510//510
f 510//510 547//547 548//548
f 510//510 548//548 533//533
f 533//533 548//548 549//549
f 533//533 549//549 532//532
f 522//522 183//183 194//194
f 522//522 194//194 523//523
f 523//523 194//194 192//192
f 523//523 192//192 525//525
f 525//525 192//192 190//190
f 525//525 190//190 527//527
f 527//527 190//190 189//189
f 527//527 189//189 528//528
f 196//196 529//529 189//189
f 189//189 529//529 528//528
f 529//529 196//196 538//538
f 538//538 196//196 197//197
f 538//538 197//197 550//550
f 550//550 551//551 538//538
f 538//538 551//551 539//539
f 539//539 551//551 540//540
f 540//540 551//551 552//552
f 553//553 554//554 549//549
f 549//549 554//554 532//532
f 267//267 519//519 266//266
f 266//266 519//519 532//532
f 266//266 532//532 554//554
f 264//264 517//517 267//267
f 267//267 517//517 519//519
f 517//517 264//264 262//262
f 517//517 262//262 515//515
f 515//515 262//262 260//260
f 515//515 260//260 514//514
f 514//514 260//260 258//258
f 514//514 258//258 513//513
f 513//513 258//258 252//252
f 513//513 252//252 511//511
f 232//232 35//35 235//235
f 235//235 35//35 32//32
f 35//35 232//232 36//36
f 36//36 232//232 231//231
f 214//214 50//50 221//221
f 221//221 50//50 45//45
f 44//44 40//40 225//225
f 45//45 47//47 221//221
f 221//221 47//47 44//44
f 221//221 44//44 223//223
f 223//223 44//44 225//225
f 36//36 231//231 39//39
f 39//39 231//231 228//228
f 39//39 228//228 40//40
f 40//40 228//228 227//227
f 40//40 227//227 225//225
f 31//31 236//236 32//32
f 32//32 236//236 235//235
f 96//96 161//161 97//97
f 97//97 161//161 163//163
f 165//165 100//100 163//163
f 163//163 100//100 97//97
f 100//100 165//165 101//101
f 101//101 165//165 167//167
f 180//180 114//114 177//177
f 177//177 114//114 112//112
f 108//108 105//105 174//174
f 112//112 110//110 177//177
f 177//177 110//110 108//108
f 177//177 108//108 179//179
f 179//179 108//108 174//174
f 101//101 167//167 104//104
f 104//104 167//167 169//169
f 104//104 169//169 105//105
f 105//105 169//169 172//172
f 105//105 172//172 174//174
f 79//79 146//146 86//86
f 86//86 146//146 150//150
f 158//158 161//161 96//96
f 153//153 156//156 92//92
f 92//92 156//156 158//158
f 92//92 158//158 93//93
f 93//93 158//158 96//96
f 153//153 92//92 155//155
f 155//155 92//92 90//90
f 155//155 90//90 150//150
f 150//150 90//90 88//88
f 150//150 88//88 86//86
f 175//175 242//242 244//244
f 175//175 244//244 178//178
f 178//178 244//244 246//246
f 178//178 246//246 176//176
f 242//242 175//175 241//241
f 241//241 175//175 171//171
f 171//171 173//173 241//241
f 241//241 173//173 170//170
f 241//241 170//170 238//238
f 237//237 238//238 170//170
f 233//233 162//162 230//230
f 230//230 162//162 160//160
f 230//230 160//160 229//229
f 237//237 170//170 234//234
f 170//170 168//168 234//234
f 234//234 168//168 166//166
f 234//234 166//166 233//233
f 233//233 166//166 164//164
f 233//233 164//164 162//162
f 157//157 226//226 159//159
f 159//159 226//226 229//229
f 159//159 229//229 160//160
f 226//226 157//157 224//224
f 224//224 157//157 152//152
f 151//151 220//220 222//222
f 151//151 222//222 154//154
f 154//154 222//222 224//224
f 154//154 224//224 152//152
f 211//211 213//213 200//200
f 133//133 135//135 416//416
f 555//555 415//415 149//149
f 149//149 415//415 414//414
f 413//413 151//151 414//414
f 414//414 151//151 148//148
f 414//414 148//148 149//149
f 200//200 213//213 198//198
f 410//410 220//220 411//411
f 411//411 220//220 151//151
f 411//411 151//151 412//412
f 412//412 151//151 413//413
f 137//137 140//140 142//142
f 410//410 409//409 220//220
f 220//220 409//409 408//408
f 220//220 408//408 215//215
f 215//215 408//408 407//407
f 215//215 407//407 217//217
f 217//217 407//407 406//406
f 217//217 406//406 213//213
f 213//213 406//406 405//405
f 213//213 405//405 198//198
f 203//203 205//205 200//200
f 200//200 205//205 208//208
f 200//200 208//208 211//211
f 142//142 144//144 137//137
f 137//137 144//144 133//133
f 137//137 133//133 555//555
f 555//555 133//133 416//416
f 555//555 416//416 415//415
f 46//46 85//85 87//87
f 46//46 87//87 48//48
f 48//48 87//87 89//89
f 48//48 89//89 43//43
f 91//91 41//41 89//89
f 89//89 41//41 43//43
f 41//41 91//91 42//42
f 42//42 91//91 94//94
f 42//42 94//94 38//38
f 102//102 103//103 30//30
f 30//30 103//103 29//29
f 38//38 94//94 37//37
f 37//37 94//94 95//95
f 37//37 95//95 98//98
f 102//102 30//30 99//99
f 99//99 30//30 33//33
f 99//99 33//33 98//98
f 98//98 33//33 34//34
f 98//98 34//34 37//37
f 25//25 27//27 106//106
f 106//106 27//27 29//29
f 106//106 29//29 103//103
f 107//107 22//22 106//106
f 106//106 22//22 25//25
f 22//22 107//107 109//109
f 22//22 109//109 24//24
f 24//24 109//109 111//111
f 24//24 111//111 19//19
f 556//556 557//557 111//111
f 130//130 131//131 485//485
f 111//111 557//557 19//19
f 126//126 128//128 130//130
f 120//120 484//484 116//116
f 116//116 484//484 558//558
f 116//116 558//558 113//113
f 113//113 558//558 559//559
f 113//113 559//559 111//111
f 111//111 559//559 560//560
f 111//111 560//560 556//556
f 557//557 561//561 19//19
f 19//19 561//561 562//562
f 19//19 562//562 17//17
f 17//17 562//562 563//563
f 17//17 563//563 16//16
f 16//16 563//563 483//483
f 16//16 483//483 14//14
f 14//14 483//483 482//482
f 14//14 482//482 481//481
f 124//124 126//126 118//118
f 118//118 126//126 130//130
f 118//118 130//130 120//120
f 120//120 130//130 485//485
f 120//120 485//485 484//484
f 8//8 10//10 12//12
f 481//481 1//1 14//14
f 14//14 1//1 3//3
f 14//14 3//3 12//12
f 12//12 3//3 6//6
f 12//12 6//6 8//8
f 564//564 176//176 565//565
f 565//565 176//176 246//246
f 564//564 566//566 176//176
f 176//176 566//566 567//567
f 176//176 567//567 181//181
f 181//181 567//567 568//568
f 181//181 568//568 187//187
f 187//187 568//568 552//552
f 187//187 552//552 185//185
f 185//185 552//552 551//551
f 185//185 551//551 550//550
f 265//265 266//266 554//554
f 255//255 553//553 251//251
f 251//251 553//553 569//569
f 251//251 569//569 248//248
f 248//248 569//569 570//570
f 248//248 570//570 246//246
f 246//246 570//570 571//571
f 246//246 571//571 565//565
f 193//193 195//195 191//191
f 191//191 195//195 182//182
f 191//191 182//182 188//188
f 188//188 182//182 185//185
f 188//188 185//185 197//197
f 197//197 185//185 550//550
f 253//253 259//259 261//261
f 261//261 263//263 253//253
f 253//253 263//263 265//265
f 253//253 265//265 255//255
f 255//255 265//265 554//554
f 255//255 554//554 553//553
f 18//18 15//15 249//249
f 249//249 15//15 250//250
f 214//214 216//216 50//50
f 50//50 216//216 51//51
f 572//572 573//573 46//46
f 573//573 574//574 46//46
f 46//46 574//574 575//575
f 46//46 575//575 85//85
f 85//85 575//575 338//338
f 85//85 338//338 337//337
f 62//62 63//63 340//340
f 576//576 339//339 52//52
f 52//52 339//339 572//572
f 52//52 572//572 49//49
f 49//49 572//572 46//46
f 337//337 336//336 85//85
f 85//85 336//336 335//335
f 85//85 335//335 80//80
f 80//80 335//335 334//334
f 80//80 334//334 82//82
f 82//82 334//334 333//333
f 82//82 333//333 78//78
f 78//78 333//333 332//332
f 53//53 56//56 58//58
f 58//58 60//60 53//53
f 53//53 60//60 62//62
f 53//53 62//62 576//576
f 576//576 62//62 340//340
f 576//576 340//340 339//339
f 72//72 74//74 70//70
f 70//70 74//74 76//76
f 70//70 76//76 66//66
f 66//66 76//76 78//78
f 66//66 78//78 68//68
f 68//68 78//78 332//332
f 31//31 28//28 577//577
f 577//577 28//28 26//26
f 577//577 26//26 578//578
f 578//578 26//26 21//21
f 578//578 21//21 579//579
f 579//579 21//21 23//23
f 579//579 23//23 580//580
f 580//580 23//23 20//20
f 580//580 20//20 581//581
f 581//581 20//20 18//18
f 581//581 18//18 582//582
f 582//582 18//18 249//249
f 582//582 249//249 583//583
f 583//583 249//249 247//247
f 583//583 247//247 584//584
f 584//584 247//247 245//245
f 584//584 245//245 577//577
f 245//245 243//243 577//577
f 577//577 243//243 240//240
f 577//577 240//240 31//31
f 31//31 240//240 239//239
f 31//31 239//239 236//236
f 585//585 579//579 586//586
f 586//586 579//579 580//580
f 586//586 580//580 587//587
f 579//579 585//585 578//578
f 578//578 585//585 588//588
f 578//578 588//588 589//589
f 589//589 588//588 590//590
f 589//589 590//590 591//591
f 592//592 593//593 594//594
f 594//594 593//593 589//589
f 594//594 589//589 595//595
f 595//595 589//589 591//591
f 596//596 597//597 598//598
f 598//598 599//599 596//596
f 596//596 599//599 600//600
f 596//596 600//600 601//601
f 601//601 600//600 592//592
f 592//592 600//600 602//602
f 592//592 602//602 593//593
f 603//603 604//604 605//605
f 604//604 606//606 605//605
f 605//605 606//606 607//607
f 605//605 607//607 577//577
f 577//577 607//607 608//608
f 577//577 608//608 584//584
f 609//609 610//610 605//605
f 605//605 610//610 611//611
f 605//605 611//611 603//603
f 612//612 583//583 613//613
f 613//613 583//583 584//584
f 613//613 584//584 608//608
f 614//614 615//615 616//616
f 614//614 616//616 617//617
f 617//617 616//616 618//618
f 617//617 618//618 619//619
f 619//619 618//618 620//620
f 620//620 618//618 610//610
f 620//620 610//610 609//609
f 621//621 622//622 623//623
f 623//623 622//622 624//624
f 623//623 624//624 625//625
f 612//612 626//626 583//583
f 583//583 626//626 627//627
f 583//583 627//627 582//582
f 582//582 627//627 625//625
f 582//582 625//625 628//628
f 628//628 625//625 624//624
f 629//629 630//630 631//631
f 631//631 630//630 621//621
f 631//631 621//621 632//632
f 632//632 621//621 623//623
f 633//633 634//634 622//622
f 622//622 634//634 624//624
f 623//623 635//635 636//636
f 623//623 636//636 632//632
f 632//632 636//636 637//637
f 632//632 637//637 631//631
f 631//631 637//637 638//638
f 631//631 638//638 629//629
f 629//629 638//638 639//639
f 629//629 639//639 630//630
f 630//630 639//639 640//640
f 630//630 640//640 621//621
f 621//621 640//640 633//633
f 621//621 633//633 622//622
f 626//626 641//641 627//627
f 627//627 641//641 642//642
f 598//598 597//597 614//614
f 614//614 597//597 615//615
f 624//624 634//634 643//643
f 624//624 643//643 628//628
f 628//628 643//643 581//581
f 628//628 581//581 582//582
f 637//637 636//636 635//635
f 644//644 642//642 580//580
f 580//580 642//642 641//641
f 580//580 641//641 587//587
f 639//639 638//638 637//637
f 580//580 581//581 644//644
f 644//644 581//581 643//643
f 644//644 643//643 635//635
f 643//643 634//634 635//635
f 635//635 634//634 633//633
f 635//635 633//633 637//637
f 637//637 633//633 640//640
f 637//637 640//640 639//639
f 641//641 626//626 587//587
f 587//587 626//626 612//612
f 587//587 612//612 586//586
f 586//586 612//612 585//585
f 607//607 588//588 608//608
f 608//608 588//588 585//585
f 608//608 585//585 613//613
f 613//613 585//585 612//612
f 590//590 588//588 607//607
f 607//607 606//606 590//590
f 590//590 606//606 604//604
f 590//590 604//604 591//591
f 591//591 604//604 595//595
f 604//604 603//603 595//595
f 595//595 603//603 611//611
f 595//595 611//611 594//594
f 594//594 611//611 610//610
f 594//594 610//610 592//592
f 615//615 597//597 616//616
f 616//616 597//597 596//596
f 610//610 618//618 592//592
f 592//592 618//618 616//616
f 592//592 616//616 601//601
f 601//601 616//616 596//596
f 605//605 577//577 578//578
f 605//605 578//578 609//609
f 609//609 578//578 589//589
f 609//609 589//589 620//620
f 589//589 593//593 620//620
f 620//620 593//593 602//602
f 620//620 602//602 619//619
f 619//619 602//602 600//600
f 619//619 600//600 617//617
f 600//600 599//599 617//617
f 617//617 599//599 598//598
f 617//617 598//598 614//614
f 627//627 642//642 625//625
f 625//625 642//642 644//644
f 625//625 644//644 623//623
f 623//623 644//644 635//635
f 138//138 645//645 367//367
f 367//367 645//645 305//305
f 367//367 305//305 368//368
f 305//305 307//307 368//368
f 368//368 307//307 309//309
f 368//368 309//309 380//380
f 380//380 309//309 304//304
f 380//380 304//304 402//402
f 402//402 304//304 303//303
f 402//402 303//303 370//370
f 370//370 303//303 301//301
f 370//370 301//301 384//384
f 384//384 301//301 299//299
f 384//384 299//299 375//375
f 375//375 299//299 295//295
f 210//210 372//372 212//212
f 212//212 372//372 646//646
f 212//212 646//646 219//219
f 54//54 646//646 294//294
f 294//294 646//646 372//372
f 294//294 372//372 295//295
f 295//295 372//372 371//371
f 295//295 371//371 375//375
f 219//219 646//646 218//218
f 218//218 646//646 51//51
f 218//218 51//51 216//216
f 75//75 305//305 77//77
f 77//77 305//305 645//645
f 77//77 645//645 84//84
f 84//84 645//645 147//147
f 84//84 147//147 83//83
f 83//83 147//147 81//81
f 147//147 146//146 81//81
f 81//81 146//146 79//79
f 115//115 114//114 186//186
f 186//186 114//114 180//180
f 443//443 117//117 119//119
f 512//512 511//511 449//449
f 252//252 254//254 511//511
f 511//511 254//254 13//13
f 511//511 13//13 449//449
f 449//449 13//13 11//11
f 184//184 183//183 522//522
f 449//449 451//451 512//512
f 512//512 451//451 453//453
f 512//512 453//453 516//516
f 516//516 453//453 455//455
f 516//516 455//455 518//518
f 518//518 455//455 457//457
f 518//518 457//457 520//520
f 520//520 457//457 459//459
f 520//520 459//459 521//521
f 521//521 459//459 447//447
f 521//521 447//447 526//526
f 526//526 447//447 444//444
f 526//526 444//444 524//524
f 524//524 444//444 522//522
f 250//250 15//15 257//257
f 257//257 15//15 13//13
f 257//257 13//13 256//256
f 256//256 13//13 254//254
f 444//444 443//443 522//522
f 522//522 443//443 119//119
f 522//522 119//119 184//184
f 184//184 119//119 121//121
f 184//184 121//121 186//186
f 186//186 121//121 122//122
f 186//186 122//122 115//115
f 548//548 569//569 549//549
f 549//549 569//569 553//553
f 540//540 552//552 541//541
f 541//541 552//552 568//568
f 541//541 568//568 542//542
f 542//542 568//568 567//567
f 542//542 567//567 543//543
f 543//543 567//567 566//566
f 543//543 566//566 544//544
f 544//544 566//566 647//647
f 544//544 647//647 545//545
f 545//545 647//647 565//565
f 545//545 565//565 546//546
f 546//546 565//565 571//571
f 546//546 571//571 547//547
f 547//547 571//571 570//570
f 547//547 570//570 548//548
f 548//548 570//570 569//569
f 501//501 510//510 533//533
f 501//501 533//533 500//500
f 500//500 533//533 531//531
f 500//500 531//531 499//499
f 499//499 531//531 530//530
f 499//499 530//530 488//488
f 488//488 530//530 537//537
f 488//488 537//537 492//492
f 492//492 537//537 536//536
f 492//492 536//536 493//493
f 493//493 536//536 535//535
f 493//493 535//535 494//494
f 494//494 535//535 534//534
f 494//494 534//534 498//498
f 498//498 534//534 502//502
f 498//498 502//502 497//497
f 475//475 558//558 480//480
f 480//480 558//558 484//484
f 467//467 483//483 468//468
f 468//468 483//483 563//563
f 468//468 563//563 469//469
f 469//469 563//563 562//562
f 469//469 562//562 470//470
f 470//470 562//562 561//561
f 470//470 561//561 471//471
f 471//471 561//561 648//648
f 471//471 648//648 472//472
f 472//472 648//648 556//556
f 472//472 556//556 473//473
f 473//473 556//556 560//560
f 473//473 560//560 474//474
f 474//474 560//560 559//559
f 474//474 559//559 475//475
f 475//475 559//559 558//558
f 432//432 441//441 476//476
f 432//432 476//476 424//424
f 424//424 476//476 478//478
f 424//424 478//478 422//422
f 422//422 478//478 464//464
f 422//422 464//464 420//420
f 420//420 464//464 463//463
f 420//420 463//463 421//421
f 421//421 463//463 462//462
f 421//421 462//462 430//430
f 430//430 462//462 461//461
f 430//430 461//461 429//429
f 429//429 461//461 460//460
f 429//429 460//460 427//427
f 427//427 460//460 433//433
f 427//427 433//433 428//428
f 386//386 204//204 202//202
f 386//386 202//202 385//385
f 385//385 202//202 201//201
f 385//385 201//201 383//383
f 381//381 143//143 141//141
f 381//381 141//141 382//382
f 382//382 141//141 139//139
f 382//382 139//139 366//366
f 366//366 139//139 138//138
f 366//366 138//138 367//367
f 343//343 365//365 369//369
f 343//343 369//369 354//354
f 354//354 369//369 374//374
f 354//354 374//374 351//351
f 351//351 374//374 376//376
f 351//351 376//376 352//352
f 352//352 376//376 378//378
f 352//352 378//378 353//353
f 353//353 378//378 389//389
f 353//353 389//389 356//356
f 356//356 389//389 391//391
f 356//356 391//391 355//355
f 355//355 391//391 393//393
f 355//355 393//393 341//341
f 341//341 393//393 357//357
f 341//341 357//357 342//342
f 318//318 338//338 320//320
f 320//320 338//338 575//575
f 320//320 575//575 322//322
f 322//322 575//575 574//574
f 322//322 574//574 331//331
f 331//331 574//574 573//573
f 331//331 573//573 330//330
f 330//330 573//573 572//572
f 330//330 572//572 328//328
f 328//328 572//572 339//339
f 271//271 292//292 319//319
f 271//271 319//319 282//282
f 282//282 319//319 321//321
f 282//282 321//321 277//277
f 277//277 321//321 323//323
f 277//277 323//323 278//278
f 278//278 323//323 329//329
f 278//278 329//329 279//279
f 279//279 329//329 327//327
f 279//279 327//327 283//283
f 283//283 327//327 325//325
f 283//283 325//325 268//268
f 268//268 325//325 324//324
f 268//268 324//324 269//269
f 269//269 324//324 284//284
f 269//269 284//284 270//270
f 186//186 180//180 187//187
f 187//187 180//180 181//181
f 149//149 147//147 645//645
f 149//149 645//645 555//555
f 555//555 645//645 138//138
f 555//555 138//138 137//137
f 52//52 51//51 646//646
f 52//52 646//646 576//576
f 576//576 646//646 54//54
f 576//576 54//54 53//53
f 15//15 18//18 16//16
f 16//16 18//18 17//17
# 1288 faces, 0 coords texture

# End of File
