####
#
# OBJ File Generated by Meshlab
#
####
# Object link_3.obj
#
# Vertices: 472
# Faces: 924
#
####
v 0.053197 -0.019325 0.043335
v 0.060640 -0.019325 0.035892
v 0.057900 -0.020363 0.033152
v 0.043335 -0.019325 0.053197
v 0.033152 -0.020363 0.057900
v 0.035892 -0.019325 0.060640
v 0.038802 -0.035957 0.014054
v 0.014054 -0.035957 0.038802
v 0.037830 -0.036325 0.013081
v 0.013081 -0.036325 0.037830
v -0.016168 -0.036325 -0.006697
v -0.017500 -0.036325 0.000000
v -0.016168 -0.036325 0.006697
v 0.006697 -0.036325 -0.016168
v -0.000000 -0.036325 -0.017500
v -0.006697 -0.036325 -0.016168
v -0.012374 -0.036325 0.012374
v 0.012374 -0.036325 -0.012374
v -0.012374 -0.036325 -0.012374
v 0.015822 -0.040287 0.040570
v 0.013081 -0.041325 0.037830
v 0.040570 -0.040287 0.015822
v 0.037830 -0.041325 0.013081
v 0.059668 -0.024693 0.034919
v 0.034919 -0.024693 0.059668
v 0.060640 -0.024325 0.035892
v 0.035892 -0.024325 0.060640
v 0.072374 -0.024325 0.072374
v 0.066697 -0.024325 0.076168
v 0.072374 -0.024325 0.047626
v 0.047626 -0.024325 0.072374
v 0.053303 -0.024325 0.076168
v 0.060000 -0.024325 0.077500
v 0.076168 -0.024325 0.053303
v 0.077500 -0.024325 0.060000
v 0.076168 -0.024325 0.066697
v 0.012374 -0.041325 -0.012374
v -0.012374 -0.041325 0.012374
v -0.016168 -0.041325 0.006697
v -0.017500 -0.041325 0.000000
v -0.016168 -0.041325 -0.006697
v -0.012374 -0.041325 -0.012374
v 0.006697 -0.041325 -0.016168
v 0.000000 -0.041325 -0.017500
v -0.006697 -0.041325 -0.016168
v 0.060000 -0.019325 0.042000
v 0.053844 -0.019325 0.043086
v 0.063674 -0.019325 0.042379
v 0.067194 -0.019325 0.043500
v 0.068824 -0.019325 0.044075
v -0.017500 -0.036325 0.000000
v -0.017500 -0.041325 0.000000
v -0.000000 -0.036325 -0.017500
v 0.000000 -0.041325 -0.017500
v 0.072374 -0.019325 0.047626
v 0.076168 -0.019325 0.053303
v 0.077500 -0.019325 0.060000
v 0.044647 -0.019325 0.069395
v 0.047626 -0.019325 0.072374
v 0.044412 -0.019325 0.069000
v 0.042273 -0.019325 0.063126
v 0.042273 -0.019325 0.056874
v 0.260256 0.028700 0.040506
v 0.258681 0.030700 0.039274
v 0.258892 0.028700 0.042250
v 0.256352 0.030700 0.042250
v 0.260903 0.028700 0.039169
v 0.258958 0.030700 0.038700
v 0.260936 0.028700 0.037683
v 0.258973 0.030700 0.038064
v 0.260350 0.028700 0.036318
v 0.258721 0.030700 0.037479
v 0.259250 0.028700 0.035318
v 0.258250 0.030700 0.037050
v 0.253807 0.028700 0.032895
v 0.253189 0.030700 0.034797
v 0.245000 0.028700 0.031500
v 0.245000 0.030700 0.033500
v 0.240398 0.030700 0.033903
v 0.240051 0.028700 0.031933
v 0.214000 0.030700 0.038557
v 0.213653 0.028700 0.036588
v 0.210778 0.027930 0.037095
v 0.210125 0.029662 0.039064
v 0.212164 0.028504 0.036850
v 0.211994 0.030436 0.038820
v 0.192743 0.019626 0.042129
v 0.193396 0.017894 0.040159
v 0.191618 0.019325 0.042504
v 0.191271 0.017325 0.040534
v 0.181331 0.019325 0.044318
v 0.180984 0.017325 0.042348
v 0.179248 0.017325 0.042500
v 0.179248 0.019325 0.044500
v 0.071990 0.019325 0.044500
v 0.071990 0.017325 0.042500
v 0.068824 0.019325 0.044075
v 0.067993 0.017325 0.041667
v 0.067194 0.019325 0.043500
v 0.064082 0.017325 0.040421
v 0.063674 0.019325 0.042379
v 0.060000 0.017325 0.040000
v 0.060000 0.019325 0.042000
v 0.071990 0.017325 0.077500
v 0.071990 0.019325 0.075500
v 0.067993 0.017325 0.078333
v 0.067194 0.019325 0.076500
v 0.179248 0.019325 0.075500
v 0.179248 0.017325 0.077500
v 0.180984 0.017325 0.077652
v 0.181331 0.019325 0.075682
v 0.191618 0.019325 0.077496
v 0.191271 0.017325 0.079466
v 0.193396 0.017894 0.079841
v 0.192743 0.019626 0.077871
v 0.192199 0.019401 0.077690
v 0.210125 0.029662 0.080936
v 0.210778 0.027930 0.082905
v 0.211994 0.030436 0.081180
v 0.212164 0.028504 0.083150
v 0.214000 0.030700 0.081443
v 0.213653 0.028700 0.083412
v 0.240398 0.030700 0.086097
v 0.240051 0.028700 0.088067
v 0.245000 0.028700 0.088500
v 0.246541 0.030700 0.086455
v 0.259250 0.028700 0.084682
v 0.258250 0.030700 0.082950
v 0.253807 0.028700 0.087105
v 0.252600 0.030700 0.085387
v 0.253174 0.028700 0.087303
v 0.246657 0.028700 0.088452
v 0.260350 0.028700 0.083682
v 0.258721 0.030700 0.082521
v 0.260936 0.028700 0.082317
v 0.258973 0.030700 0.081936
v 0.260903 0.028700 0.080831
v 0.258958 0.030700 0.081300
v 0.260256 0.028700 0.079494
v 0.258681 0.030700 0.080726
v 0.256352 0.030700 0.077750
v 0.258892 0.028700 0.077750
v 0.258681 -0.030700 0.039274
v 0.260256 -0.028700 0.040506
v 0.256352 -0.030700 0.042250
v 0.258892 -0.028700 0.042250
v 0.258250 -0.030700 0.037050
v 0.259250 -0.028700 0.035318
v 0.260350 -0.028700 0.036318
v 0.258721 -0.030700 0.037479
v 0.260936 -0.028700 0.037683
v 0.258973 -0.030700 0.038064
v 0.260903 -0.028700 0.039169
v 0.258958 -0.030700 0.038700
v 0.240051 -0.028700 0.031933
v 0.245000 -0.028700 0.031500
v 0.240398 -0.030700 0.033903
v 0.246541 -0.030700 0.033545
v 0.253807 -0.028700 0.032895
v 0.252600 -0.030700 0.034613
v 0.253174 -0.028700 0.032697
v 0.246657 -0.028700 0.031548
v 0.213653 -0.028700 0.036588
v 0.214000 -0.030700 0.038557
v 0.212164 -0.028504 0.036850
v 0.211994 -0.030436 0.038820
v 0.210778 -0.027930 0.037095
v 0.210125 -0.029662 0.039064
v 0.193396 -0.017894 0.040159
v 0.192743 -0.019626 0.042129
v 0.191618 -0.019325 0.042504
v 0.191271 -0.017325 0.040534
v 0.180984 -0.017325 0.042348
v 0.181331 -0.019325 0.044318
v 0.179248 -0.017325 0.042500
v 0.179248 -0.019325 0.044500
v 0.071990 -0.017325 0.042500
v 0.071990 -0.019325 0.044500
v 0.067993 -0.017325 0.041667
v 0.067194 -0.019325 0.076500
v 0.067993 -0.017325 0.078333
v 0.064082 -0.017325 0.079579
v 0.063674 -0.019325 0.077621
v 0.060000 -0.017325 0.080000
v 0.060000 -0.019325 0.078000
v 0.071990 -0.017325 0.077500
v 0.071990 -0.019325 0.075500
v 0.179248 -0.017325 0.077500
v 0.179248 -0.019325 0.075500
v 0.180984 -0.017325 0.077652
v 0.181331 -0.019325 0.075682
v 0.191271 -0.017325 0.079466
v 0.191618 -0.019325 0.077496
v 0.192743 -0.019626 0.077871
v 0.193396 -0.017894 0.079841
v 0.192199 -0.019401 0.077690
v 0.210778 -0.027930 0.082905
v 0.210125 -0.029662 0.080936
v 0.214000 -0.030700 0.081443
v 0.213653 -0.028700 0.083412
v 0.211994 -0.030436 0.081180
v 0.212164 -0.028504 0.083150
v 0.240051 -0.028700 0.088067
v 0.240398 -0.030700 0.086097
v 0.258250 -0.030700 0.082950
v 0.259250 -0.028700 0.084682
v 0.253807 -0.028700 0.087105
v 0.253189 -0.030700 0.085203
v 0.245000 -0.028700 0.088500
v 0.245000 -0.030700 0.086500
v 0.258681 -0.030700 0.080726
v 0.260256 -0.028700 0.079494
v 0.260903 -0.028700 0.080831
v 0.258958 -0.030700 0.081300
v 0.260936 -0.028700 0.082317
v 0.258973 -0.030700 0.081936
v 0.260350 -0.028700 0.083682
v 0.258721 -0.030700 0.082521
v 0.258892 -0.028700 0.077750
v 0.256352 -0.030700 0.077750
v 0.238303 0.032700 0.076168
v 0.245000 0.032700 0.077500
v 0.245000 0.032700 0.042500
v 0.238303 0.032700 0.043832
v 0.232626 0.032700 0.047626
v 0.262500 0.032700 0.060000
v 0.261168 0.032700 0.053303
v 0.257374 0.032700 0.047626
v 0.251697 0.032700 0.043832
v 0.261168 0.032700 0.066697
v 0.257374 0.032700 0.072374
v 0.251697 0.032700 0.076168
v 0.232626 0.032700 0.072374
v 0.228832 0.032700 0.066697
v 0.227500 0.032700 0.060000
v 0.228832 0.032700 0.053303
v 0.245000 0.025700 0.042500
v 0.238303 0.025700 0.043832
v 0.232626 0.025700 0.047626
v 0.228832 0.025700 0.053303
v 0.227500 0.025700 0.060000
v 0.228832 0.025700 0.066697
v 0.232626 0.025700 0.072374
v 0.238303 0.025700 0.076168
v 0.245000 0.025700 0.077500
v 0.260350 0.025700 0.083682
v 0.259250 0.025700 0.084682
v 0.261752 0.025700 0.083057
v 0.260936 0.025700 0.082317
v 0.259250 0.025700 0.035318
v 0.260350 0.025700 0.036318
v 0.261752 0.025700 0.036943
v 0.260936 0.025700 0.037683
v 0.268057 0.025700 0.043248
v 0.260903 0.025700 0.039169
v 0.272105 0.025700 0.051193
v 0.260256 0.025700 0.040506
v 0.273500 0.025700 0.060000
v 0.258892 0.025700 0.042250
v 0.272105 0.025700 0.068807
v 0.260903 0.025700 0.080831
v 0.268057 0.025700 0.076752
v 0.260256 0.025700 0.079494
v 0.251495 0.025700 0.042250
v 0.251697 0.025700 0.043832
v 0.249216 0.025700 0.041987
v 0.245000 0.025700 0.041500
v 0.237920 0.025700 0.042908
v 0.231919 0.025700 0.046919
v 0.227908 0.025700 0.052920
v 0.226500 0.025700 0.060000
v 0.227908 0.025700 0.067080
v 0.231919 0.025700 0.073081
v 0.237920 0.025700 0.077092
v 0.245000 0.025700 0.078500
v 0.251697 0.025700 0.076168
v 0.257374 0.025700 0.047626
v 0.261168 0.025700 0.053303
v 0.262500 0.025700 0.060000
v 0.261168 0.025700 0.066697
v 0.258892 0.025700 0.077750
v 0.257374 0.025700 0.072374
v 0.251495 0.025700 0.077750
v 0.249216 0.025700 0.078013
v 0.251495 0.030700 0.042250
v 0.249216 0.030700 0.041987
v 0.245000 0.030700 0.041500
v 0.249216 0.030700 0.078013
v 0.251495 0.030700 0.077750
v 0.257374 -0.032700 0.047626
v 0.261168 -0.032700 0.053303
v 0.262500 -0.032700 0.060000
v 0.257374 -0.032700 0.072374
v 0.251697 -0.032700 0.076168
v 0.245000 -0.032700 0.042500
v 0.245000 -0.032700 0.077500
v 0.238303 -0.032700 0.076168
v 0.227500 -0.032700 0.060000
v 0.228832 -0.032700 0.053303
v 0.232626 -0.032700 0.047626
v 0.238303 -0.032700 0.043832
v 0.251697 -0.032700 0.043832
v 0.232626 -0.032700 0.072374
v 0.228832 -0.032700 0.066697
v 0.261168 -0.032700 0.066697
v 0.245000 -0.025700 0.077500
v 0.238303 -0.025700 0.076168
v 0.232626 -0.025700 0.072374
v 0.228832 -0.025700 0.066697
v 0.227500 -0.025700 0.060000
v 0.228832 -0.025700 0.053303
v 0.232626 -0.025700 0.047626
v 0.238303 -0.025700 0.043832
v 0.245000 -0.025700 0.042500
v 0.259250 -0.025700 0.035318
v 0.261752 -0.025700 0.036943
v 0.260350 -0.025700 0.036318
v 0.260936 -0.025700 0.037683
v 0.260903 -0.025700 0.039169
v 0.268057 -0.025700 0.043248
v 0.260256 -0.025700 0.040506
v 0.272105 -0.025700 0.051193
v 0.258892 -0.025700 0.042250
v 0.273500 -0.025700 0.060000
v 0.272105 -0.025700 0.068807
v 0.259250 -0.025700 0.084682
v 0.260350 -0.025700 0.083682
v 0.261752 -0.025700 0.083057
v 0.260936 -0.025700 0.082317
v 0.268057 -0.025700 0.076752
v 0.260903 -0.025700 0.080831
v 0.260256 -0.025700 0.079494
v 0.258892 -0.025700 0.077750
v 0.251697 -0.025700 0.043832
v 0.251495 -0.025700 0.042250
v 0.257374 -0.025700 0.047626
v 0.261168 -0.025700 0.053303
v 0.251697 -0.025700 0.076168
v 0.257374 -0.025700 0.072374
v 0.261168 -0.025700 0.066697
v 0.262500 -0.025700 0.060000
v 0.251495 -0.025700 0.077750
v 0.249216 -0.025700 0.078013
v 0.245000 -0.025700 0.078500
v 0.237920 -0.025700 0.077092
v 0.231919 -0.025700 0.073081
v 0.227908 -0.025700 0.067080
v 0.226500 -0.025700 0.060000
v 0.227908 -0.025700 0.052920
v 0.231919 -0.025700 0.046919
v 0.237920 -0.025700 0.042908
v 0.245000 -0.025700 0.041500
v 0.249216 -0.025700 0.041987
v 0.251495 -0.030700 0.077750
v 0.249216 -0.030700 0.078013
v 0.245000 -0.030700 0.078500
v 0.249216 -0.030700 0.041987
v 0.251495 -0.030700 0.042250
v 0.048430 -0.019325 0.073789
v 0.053844 -0.019325 0.076914
v 0.053303 -0.019325 0.076168
v 0.060000 -0.019325 0.077500
v 0.066697 -0.019325 0.076168
v 0.072374 -0.019325 0.072374
v 0.076168 -0.019325 0.066697
v 0.227908 0.030700 0.067080
v 0.226500 0.030700 0.060000
v 0.245000 0.030700 0.078500
v 0.237920 0.030700 0.077092
v 0.231919 0.030700 0.073081
v 0.227908 0.030700 0.052920
v 0.231919 0.030700 0.046919
v 0.237920 0.030700 0.042908
v 0.064082 0.017325 0.079579
v 0.060000 0.017325 0.080000
v 0.226500 -0.030700 0.060000
v 0.227908 -0.030700 0.052920
v 0.231919 -0.030700 0.046919
v 0.227908 -0.030700 0.067080
v 0.231919 -0.030700 0.073081
v 0.237920 -0.030700 0.077092
v 0.237920 -0.030700 0.042908
v 0.245000 -0.030700 0.041500
v 0.048430 -0.019325 0.046211
v 0.044412 -0.019325 0.051000
v 0.072374 0.019325 0.047626
v 0.076168 0.019325 0.053303
v 0.077500 0.019325 0.060000
v 0.076168 0.019325 0.066697
v 0.072374 0.019325 0.072374
v 0.063674 0.019325 0.077621
v 0.066697 0.019325 0.076168
v 0.060000 0.019325 0.078000
v 0.060000 0.019325 0.077500
v 0.053844 0.019325 0.076914
v 0.053303 0.019325 0.076168
v 0.048430 0.019325 0.073789
v 0.047626 0.019325 0.072374
v 0.044647 0.019325 0.069395
v 0.043335 0.019325 0.053197
v 0.053197 0.019325 0.043335
v 0.044412 0.019325 0.051000
v 0.048430 0.019325 0.046211
v 0.035892 0.019325 0.060640
v 0.033152 0.020363 0.057900
v 0.057900 0.020363 0.033152
v 0.060640 0.019325 0.035892
v 0.038802 0.035957 0.014054
v 0.014054 0.035957 0.038802
v 0.037830 0.036325 0.013081
v 0.013081 0.036325 0.037830
v 0.006697 0.036325 -0.016168
v 0.012374 0.036325 -0.012374
v -0.016168 0.036325 0.006697
v -0.012374 0.036325 0.012374
v -0.016168 0.036325 -0.006697
v -0.012374 0.036325 -0.012374
v -0.006697 0.036325 -0.016168
v -0.017500 0.036325 0.000000
v -0.000000 0.036325 -0.017500
v 0.013081 0.041325 0.037830
v 0.015822 0.040287 0.040570
v 0.037830 0.041325 0.013081
v 0.040570 0.040287 0.015822
v 0.059668 0.024693 0.034919
v 0.034919 0.024693 0.059668
v 0.060640 0.024325 0.035892
v 0.035892 0.024325 0.060640
v 0.072374 0.024325 0.047626
v 0.047626 0.024325 0.072374
v 0.053303 0.024325 0.076168
v 0.060000 0.024325 0.077500
v 0.066697 0.024325 0.076168
v 0.077500 0.024325 0.060000
v 0.076168 0.024325 0.053303
v 0.076168 0.024325 0.066697
v 0.072374 0.024325 0.072374
v -0.012374 0.041325 0.012374
v 0.012374 0.041325 -0.012374
v -0.006697 0.041325 -0.016168
v -0.012374 0.041325 -0.012374
v 0.000000 0.041325 -0.017500
v -0.016168 0.041325 -0.006697
v -0.016168 0.041325 0.006697
v -0.017500 0.041325 0.000000
v 0.006697 0.041325 -0.016168
v -0.000000 0.036325 -0.017500
v 0.000000 0.041325 -0.017500
v -0.017500 0.036325 0.000000
v -0.017500 0.041325 0.000000
v 0.053844 0.019325 0.043086
v 0.042273 0.019325 0.056874
v 0.042273 0.019325 0.063126
v 0.044412 0.019325 0.069000
v 0.053160 0.017325 0.078794
v 0.053160 -0.017325 0.078794
v 0.047144 0.017325 0.075321
v 0.047144 -0.017325 0.075321
v 0.042679 0.017325 0.070000
v 0.042679 -0.017325 0.070000
v 0.040304 0.017325 0.063473
v 0.040304 -0.017325 0.063473
v 0.040304 0.017325 0.056527
v 0.040304 -0.017325 0.056527
v 0.042679 0.017325 0.050000
v 0.042679 -0.017325 0.050000
v 0.047144 0.017325 0.044679
v 0.047144 -0.017325 0.044679
v 0.053160 0.017325 0.041206
v 0.053160 -0.017325 0.041206
v 0.060000 -0.017325 0.040000
v 0.064082 -0.017325 0.040421
vn -0.434085 0.698663 -0.568718
vn 0.508746 0.633253 -0.583240
vn -0.225135 0.880113 -0.417990
vn -0.296027 0.927615 -0.227812
vn -0.436196 0.867359 -0.239627
vn -0.436428 0.832943 0.340200
vn -0.245340 0.863230 -0.441184
vn -0.453871 0.860703 -0.230634
vn 0.053073 0.996778 -0.060141
vn -0.197570 0.965145 0.171642
vn -0.198875 0.977708 -0.067345
vn 0.000000 1.000000 0.000000
vn -0.115482 0.991669 0.057066
vn 0.047833 0.988817 -0.141256
vn 0.000000 1.000000 0.000000
vn -0.233284 0.850125 -0.472087
vn -0.056347 0.997007 0.052937
vn 0.165866 0.970216 -0.176550
vn -0.740785 0.174427 -0.648701
vn 0.240479 -0.864967 0.440456
vn -0.033739 -0.996945 0.070442
vn 0.411185 -0.883589 0.224048
vn 0.203176 -0.964680 -0.167666
vn 0.441192 -0.863224 0.245344
vn 0.230656 -0.860697 0.453871
vn 0.071080 -0.995893 -0.056082
vn -0.128310 -0.975117 0.180784
vn 0.260001 -0.918828 0.296909
vn 0.058718 -0.983100 0.173398
vn 0.114655 -0.988129 -0.102255
vn -0.065968 -0.995171 0.072680
vn -0.069421 -0.987646 0.140484
vn -0.065138 -0.174492 0.982502
vn 0.932627 -0.174551 -0.315815
vn 0.824359 -0.563422 0.054654
vn 0.511998 -0.820881 0.253007
vn 0.049099 -0.997426 -0.052262
vn -0.140167 -0.981332 0.131685
vn -0.932627 -0.174551 0.315815
vn 0.000000 -1.000000 0.000000
vn -0.511998 -0.820881 -0.253007
vn -0.260001 -0.918828 -0.296909
vn 0.436216 -0.174551 -0.882750
vn 0.000000 -1.000000 0.000000
vn -0.095151 -0.954983 -0.280989
vn -0.013544 0.752158 -0.658843
vn -0.166984 0.410241 -0.896559
vn 0.183662 0.643896 -0.742743
vn 0.166333 0.846893 -0.505079
vn 0.620458 -0.197324 -0.759010
vn -0.997809 0.000000 0.066153
vn -0.997809 0.000000 -0.066153
vn -0.066153 0.000000 -0.997809
vn 0.066153 0.000000 -0.997809
vn 0.049269 -0.998016 -0.039210
vn 0.070429 -0.996909 -0.034803
vn 0.072066 -0.997388 -0.004778
vn -0.709085 -0.133807 0.692311
vn -0.590302 -0.102240 0.800681
vn -0.910867 0.236731 0.338052
vn -0.746168 0.660477 0.083686
vn -0.449204 0.892136 -0.048047
vn 0.812586 0.241657 0.530383
vn 0.232526 0.959020 0.161902
vn 0.247852 0.202483 0.947402
vn 0.068062 0.806518 0.587278
vn 0.924416 0.330699 0.189983
vn 0.693586 0.715505 0.083611
vn 0.919964 0.330594 -0.210651
vn 0.637246 0.743497 -0.202805
vn 0.749630 0.330615 -0.573365
vn 0.465501 0.778311 -0.421355
vn 0.434397 0.386738 -0.813470
vn 0.238713 0.824405 -0.513198
vn 0.264793 0.043801 -0.963310
vn 0.041591 0.981761 -0.185515
vn 0.065119 0.029131 -0.997452
vn 0.004582 0.984323 -0.176315
vn -0.022187 0.990459 -0.136009
vn -0.159905 0.064668 -0.985012
vn -0.023794 0.996174 -0.084095
vn -0.173833 0.017845 -0.984613
vn -0.220768 0.086649 -0.971470
vn -0.491706 0.870422 -0.024326
vn -0.175927 0.007844 -0.984372
vn -0.221326 0.974399 -0.039511
vn -0.495931 0.863974 -0.087183
vn -0.197453 0.046315 -0.979218
vn -0.003987 0.999978 -0.005313
vn -0.175204 0.095062 -0.979932
vn -0.009832 0.998241 -0.058469
vn -0.166368 0.035093 -0.985439
vn -0.002526 0.100789 -0.994905
vn -0.000351 0.993176 -0.116626
vn 0.000951 0.873293 -0.487195
vn 0.004021 0.029445 -0.999558
vn 0.663702 0.108736 -0.740051
vn 0.254570 0.035010 -0.966421
vn 0.278641 -0.431147 -0.858179
vn 0.173601 0.052750 -0.983402
vn 0.128489 -0.643937 -0.754212
vn -0.107539 0.044976 -0.993183
vn -0.089806 -0.616041 -0.782578
vn 0.013340 0.098155 0.995082
vn 0.000883 0.998437 0.055880
vn 0.252499 0.103897 0.962003
vn 0.103905 0.907325 0.407388
vn -0.000090 0.994309 0.106531
vn -0.000769 0.028782 0.999585
vn -0.152862 0.085473 0.984544
vn -0.009332 0.998077 0.061282
vn -0.024565 0.994748 0.099367
vn -0.175931 0.032886 0.983853
vn -0.192677 0.035353 0.980625
vn -0.501190 0.864958 0.025614
vn -0.266224 0.963581 0.025236
vn -0.498615 0.863474 0.076127
vn -0.190136 0.031387 0.981256
vn -0.305056 0.951522 0.039333
vn -0.183446 0.053874 0.981552
vn -0.024505 0.998762 0.043292
vn -0.173513 0.063384 0.982790
vn -0.041852 0.963411 0.264739
vn -0.160192 0.017122 0.986937
vn -0.058059 0.064813 0.996207
vn 0.021490 0.973044 0.229614
vn 0.459130 0.336797 0.822051
vn 0.249761 0.827450 0.502938
vn 0.395800 0.060904 0.916315
vn 0.047048 0.986508 0.156808
vn 0.169595 0.025347 0.985188
vn 0.144828 0.030291 0.988993
vn 0.786437 0.330680 0.521697
vn 0.612108 0.715464 0.336801
vn 0.932003 0.330593 0.148592
vn 0.666907 0.743444 0.050258
vn 0.909526 0.330670 -0.251833
vn 0.589021 0.778395 -0.217154
vn 0.711702 0.510272 -0.482806
vn 0.080986 0.994941 -0.059451
vn 0.116143 0.325309 -0.938448
vn 0.590786 0.187574 -0.784722
vn 0.080553 -0.994995 0.059133
vn 0.711702 -0.510272 0.482806
vn 0.116143 -0.325309 0.938448
vn 0.590786 -0.187574 0.784722
vn 0.252423 -0.823357 -0.508297
vn 0.459130 -0.336797 -0.822051
vn 0.786437 -0.330680 -0.521697
vn 0.541870 -0.785800 -0.298154
vn 0.932003 -0.330593 -0.148592
vn 0.696553 -0.715583 -0.052492
vn 0.909526 -0.330670 0.251833
vn 0.627427 -0.743525 0.231313
vn -0.160192 -0.017122 -0.986937
vn -0.058059 -0.064813 -0.996207
vn -0.041852 -0.963411 -0.264739
vn 0.021490 -0.973044 -0.229614
vn 0.400551 -0.035380 -0.915591
vn 0.047048 -0.986508 -0.156808
vn 0.169595 -0.025347 -0.985188
vn 0.144828 -0.030291 -0.988993
vn -0.173513 -0.063384 -0.982790
vn -0.025587 -0.998650 -0.045203
vn -0.183446 -0.053874 -0.981552
vn -0.305056 -0.951522 -0.039333
vn -0.190136 -0.031387 -0.981256
vn -0.498615 -0.863474 -0.076127
vn -0.193429 -0.036772 -0.980425
vn -0.491524 -0.870495 -0.025374
vn -0.042897 -0.994352 -0.097074
vn -0.175770 -0.030075 -0.983972
vn -0.152862 -0.085473 -0.984544
vn -0.009332 -0.998077 -0.061282
vn -0.000769 -0.028782 -0.999585
vn -0.000090 -0.994309 -0.106531
vn 0.013509 -0.099631 -0.994933
vn 0.000205 -0.998574 -0.053386
vn 0.255291 -0.089474 -0.962715
vn 0.168472 -0.740336 0.650784
vn 0.254161 -0.027702 0.966765
vn 0.173601 -0.052750 0.983402
vn 0.097411 -0.814598 0.571788
vn -0.107539 -0.044976 0.993183
vn -0.070618 -0.785071 0.615367
vn 0.004167 -0.029729 0.999549
vn 0.002208 -0.874875 0.484344
vn -0.002526 -0.100789 0.994905
vn -0.000351 -0.993176 0.116626
vn -0.166368 -0.035093 0.985439
vn -0.009832 -0.998241 0.058469
vn -0.175567 -0.083694 0.980903
vn -0.003477 -0.999985 0.004345
vn -0.507004 -0.857198 0.090326
vn -0.199373 -0.049370 0.978679
vn -0.283578 -0.950543 0.126697
vn -0.220768 -0.086649 0.971470
vn -0.491706 -0.870422 0.024326
vn -0.021813 -0.996785 0.077093
vn -0.173833 -0.017845 0.984613
vn -0.221326 -0.974399 0.039511
vn -0.175927 -0.007844 0.984372
vn -0.159905 -0.064668 0.985012
vn -0.022187 -0.990459 0.136009
vn 0.236546 -0.827909 0.508539
vn 0.434397 -0.386738 0.813470
vn 0.300234 -0.033146 0.953289
vn 0.041591 -0.981761 0.185515
vn 0.065119 -0.029131 0.997452
vn 0.004582 -0.984323 0.176315
vn 0.235064 -0.958101 -0.163669
vn 0.812586 -0.241657 -0.530383
vn 0.924416 -0.330699 -0.189983
vn 0.614011 -0.785819 -0.074018
vn 0.919964 -0.330594 0.210651
vn 0.665633 -0.715581 0.211839
vn 0.749630 -0.330615 0.573365
vn 0.495865 -0.743412 0.448839
vn 0.247852 -0.202483 -0.947402
vn 0.068062 -0.806518 -0.587278
vn -0.069549 0.976207 0.205383
vn 0.019047 0.957653 0.287296
vn -0.005103 0.997020 -0.076975
vn -0.439507 0.125620 -0.889411
vn -0.492883 0.755497 -0.431614
vn 0.318827 0.947577 -0.021138
vn 0.625567 0.716314 -0.309128
vn 0.592288 0.437866 -0.676364
vn 0.318198 0.125620 -0.939665
vn 0.939665 0.125620 0.318198
vn 0.189788 0.967657 0.166196
vn 0.132162 0.954465 0.267451
vn -0.653589 0.125529 0.746367
vn -0.226159 0.967658 0.111758
vn -0.442086 0.896494 0.029310
vn -0.939665 0.125620 -0.318198
vn 0.065499 0.140245 -0.987948
vn -0.317406 0.143775 -0.937327
vn -0.651958 0.143747 -0.744505
vn -0.887200 0.143765 -0.438415
vn -0.987445 0.143761 -0.065466
vn -0.937327 0.143775 0.317406
vn -0.744505 0.143747 0.651958
vn -0.438415 0.143765 0.887200
vn -0.065466 0.143761 0.987445
vn 0.759040 0.170078 0.628436
vn 0.434717 0.000869 0.900567
vn 0.669020 0.018743 0.743008
vn 0.945009 0.204396 0.255305
vn 0.453557 0.000730 -0.891227
vn 0.841590 0.170122 -0.512625
vn 0.669006 0.019815 -0.742993
vn 0.506004 0.860395 -0.060669
vn 0.776130 0.044739 -0.628984
vn 0.166396 0.984629 0.053079
vn 0.927629 0.111460 -0.356486
vn 0.056962 0.997684 0.037180
vn 0.976275 0.210308 -0.051546
vn 0.028504 0.996163 0.082742
vn 0.893157 0.381013 0.238953
vn 0.366186 0.928567 -0.060592
vn 0.837350 0.060533 0.543306
vn 0.082124 0.995180 -0.053603
vn -0.028286 0.164064 0.986044
vn 0.407008 0.394913 -0.823644
vn -0.102002 0.457501 0.883339
vn 0.027244 0.225917 0.973766
vn 0.314746 0.192327 0.929486
vn 0.646517 0.192306 0.738264
vn 0.879764 0.192341 0.434764
vn 0.979184 0.192316 0.064910
vn 0.929486 0.192327 -0.314746
vn 0.738264 0.192306 -0.646517
vn 0.434764 0.192341 -0.879764
vn 0.122807 0.214580 -0.968955
vn 0.315796 0.174881 0.932571
vn 0.682629 0.420338 -0.597774
vn 0.610452 0.764602 -0.206717
vn 0.736973 0.674154 0.048860
vn 0.419744 0.883625 0.207419
vn 0.052029 0.873375 -0.484261
vn 0.578158 0.479407 0.660229
vn -0.014760 0.578418 -0.815607
vn -0.113361 0.152999 -0.981703
vn -0.020410 0.832403 0.553795
vn -0.091336 0.604997 0.790972
vn 0.064678 0.857554 0.510312
vn -0.035555 0.950753 -0.307903
vn -0.027367 0.871379 -0.489847
vn 0.676364 -0.437866 -0.592288
vn 0.939665 -0.125620 -0.318198
vn 0.420798 -0.906725 0.027898
vn 0.218879 -0.943195 0.249950
vn 0.095684 -0.954465 0.282563
vn 0.005146 -0.996970 -0.077615
vn -0.019047 -0.957653 0.287296
vn -0.132162 -0.954465 0.267451
vn -0.514197 -0.856995 -0.034090
vn -0.625567 -0.716314 -0.309128
vn -0.592288 -0.437866 -0.676364
vn -0.318198 -0.125620 -0.939665
vn 0.309128 -0.716314 -0.625567
vn -0.249950 -0.943195 0.218879
vn -0.377732 -0.917037 0.127911
vn 0.357530 -0.917038 0.176675
vn 0.065499 -0.140245 0.987948
vn -0.317406 -0.143775 0.937327
vn -0.651958 -0.143747 0.744505
vn -0.887200 -0.143765 0.438415
vn -0.987445 -0.143761 0.065466
vn -0.937327 -0.143775 -0.317406
vn -0.744505 -0.143747 -0.651958
vn -0.438415 -0.143765 -0.887200
vn -0.065466 -0.143761 -0.987445
vn 0.454417 -0.001487 -0.890788
vn 0.669020 -0.018743 -0.743008
vn 0.759040 -0.170078 -0.628436
vn 0.945009 -0.204396 -0.255305
vn 0.366186 -0.928567 0.060592
vn 0.837350 -0.060533 -0.543306
vn 0.183443 -0.975711 0.119735
vn 0.956732 -0.138377 -0.255962
vn 0.011637 -0.994049 0.108311
vn 0.981201 -0.185906 0.051806
vn 0.855942 -0.398953 0.328937
vn 0.478197 -0.001121 0.878252
vn 0.841590 -0.170122 0.512625
vn 0.669006 -0.019815 0.742993
vn 0.506004 -0.860395 0.060669
vn 0.776130 -0.044739 0.628984
vn 0.166396 -0.984629 -0.053079
vn 0.156557 -0.982369 -0.102186
vn 0.043585 -0.991006 -0.126518
vn 0.315796 -0.174881 -0.932571
vn -0.014760 -0.578418 0.815607
vn 0.578158 -0.479407 -0.660229
vn 0.577803 -0.764604 -0.285525
vn 0.407008 -0.394913 0.823644
vn 0.682629 -0.420338 0.597774
vn 0.493707 -0.853407 0.167184
vn 0.736973 -0.674154 -0.048860
vn -0.028286 -0.164064 -0.986044
vn -0.102002 -0.457501 -0.883339
vn 0.027244 -0.225917 -0.973766
vn 0.314746 -0.192327 -0.929486
vn 0.646517 -0.192306 -0.738264
vn 0.879764 -0.192341 -0.434764
vn 0.979184 -0.192316 -0.064910
vn 0.929486 -0.192327 0.314746
vn 0.738264 -0.192306 0.646517
vn 0.434764 -0.192341 0.879764
vn 0.122807 -0.214580 0.968955
vn -0.113361 -0.152999 0.981703
vn -0.020410 -0.832403 -0.553795
vn -0.091336 -0.604997 -0.790972
vn 0.064678 -0.857554 -0.510312
vn -0.035555 -0.950753 0.307903
vn -0.027367 -0.871379 0.489847
vn -0.387162 -0.791102 0.473564
vn -0.244882 -0.791156 0.560450
vn -0.319310 -0.094298 0.942947
vn 0.065769 -0.107538 0.992023
vn 0.429140 -0.248329 0.868431
vn 0.077652 -0.994659 0.068000
vn 0.071995 -0.997107 0.024380
vn 0.339877 0.925350 -0.167961
vn 0.136024 0.990665 -0.009017
vn 0.013347 0.878771 -0.477056
vn 0.080862 0.967697 -0.238797
vn 0.247029 0.927041 -0.282084
vn 0.359094 0.925346 0.121598
vn 0.159891 0.977154 0.140021
vn 0.266684 0.798537 0.539646
vn 0.233961 0.052747 0.970814
vn -0.029450 0.061512 0.997672
vn 0.514197 -0.856995 0.034086
vn 0.118828 -0.991177 0.058723
vn 0.247029 -0.927041 0.282084
vn 0.359094 -0.925346 -0.121598
vn 0.159891 -0.977154 -0.140021
vn 0.266684 -0.798537 -0.539646
vn 0.080862 -0.967697 0.238797
vn 0.013347 -0.878771 0.477056
vn -0.367495 -0.829182 -0.421193
vn -0.399183 -0.862845 -0.310083
vn 0.076982 0.995372 -0.057526
vn 0.071995 0.997107 -0.024380
vn 0.072066 0.997388 0.004778
vn 0.070429 0.996909 0.034803
vn 0.069916 0.994353 0.079840
vn 0.149375 0.782797 0.604083
vn 0.318083 0.128428 0.939324
vn -0.012052 0.810027 0.586269
vn -0.065782 0.105705 0.992219
vn -0.176253 0.781107 0.599005
vn -0.440102 0.114527 0.890614
vn -0.414830 0.759944 0.500400
vn -0.611569 0.122851 0.781595
vn -0.709296 0.127573 0.693270
vn -0.297937 -0.928166 -0.223028
vn -0.234613 -0.937737 -0.256137
vn -0.323887 0.916133 -0.236216
vn -0.414228 0.770269 -0.484872
vn -0.584081 -0.630477 0.511223
vn -0.417990 -0.880113 -0.225135
vn -0.239627 -0.867359 -0.436196
vn 0.330886 -0.840170 -0.429685
vn -0.230634 -0.860703 -0.453871
vn -0.441184 -0.863230 -0.245340
vn 0.171642 -0.965145 -0.197570
vn -0.060141 -0.996778 0.053073
vn 0.069420 -0.987647 -0.140481
vn 0.049099 -0.997426 -0.052262
vn -0.148421 -0.987646 0.050260
vn -0.200316 -0.961486 0.188194
vn -0.282643 -0.949002 -0.139669
vn -0.648701 -0.174427 -0.740785
vn -0.264998 -0.563362 -0.782559
vn 0.000000 -1.000000 0.000000
vn 0.000000 -1.000000 0.000000
vn -0.167666 0.964680 0.203176
vn 0.224048 0.883589 0.411185
vn 0.070442 0.996945 -0.033739
vn 0.440456 0.864967 0.240479
vn 0.453871 0.860697 0.230656
vn 0.245344 0.863224 0.441192
vn 0.176885 0.976344 -0.124352
vn -0.056082 0.995893 0.071080
vn 0.050241 0.997690 -0.045726
vn -0.183135 0.961403 0.205342
vn -0.069886 0.975973 0.206379
vn 0.016141 0.969775 0.243466
vn 0.131426 0.954983 0.265960
vn 0.982502 0.174492 -0.065138
vn 0.740667 0.563430 -0.366004
vn 0.498713 0.850156 0.168879
vn 0.296909 0.918828 0.260001
vn -0.052262 0.997426 0.049099
vn 0.141857 0.978303 -0.150994
vn -0.436216 0.174551 -0.882750
vn -0.621576 0.563356 -0.544310
vn 0.000000 1.000000 0.000000
vn -0.198875 0.977708 -0.067345
vn -0.882750 0.174551 0.436216
vn 0.000000 1.000000 0.000000
vn 0.126575 0.918837 -0.373787
vn 0.066153 0.000000 -0.997809
vn -0.066153 0.000000 -0.997809
vn -0.997809 0.000000 -0.066153
vn -0.997809 0.000000 0.066153
vn -0.090166 -0.883603 -0.459474
vn -0.949325 -0.281680 -0.139425
vn -0.729870 -0.660374 0.176627
vn -0.514902 -0.834779 0.194988
vn -0.291602 0.052712 0.955086
vn -0.390510 -0.052708 0.919089
vn -0.598034 0.036973 0.800617
vn -0.681957 -0.066165 0.728393
vn -0.835493 0.067282 0.545367
vn -0.892249 -0.037487 0.449984
vn -0.972947 0.052686 0.224939
vn -0.991215 -0.052696 0.121305
vn -0.992372 0.036957 -0.117609
vn -0.972436 -0.059768 -0.225378
vn -0.890162 0.065769 -0.450873
vn -0.836142 -0.040862 -0.546989
vn -0.684558 0.036974 -0.728020
vn -0.599016 -0.065319 -0.798069
vn -0.391998 0.067004 -0.917523
vn -0.288293 -0.037771 -0.956797
vn -0.029450 -0.061512 -0.997672
vn 0.233961 -0.052747 -0.970814
# 472 vertices, 0 vertices normals

f 1//1 2//2 3//3
f 1//1 3//3 4//4
f 4//4 3//3 5//5
f 4//4 5//5 6//6
f 3//3 7//7 5//5
f 5//5 7//7 8//8
f 9//9 10//10 7//7
f 7//7 10//10 8//8
f 11//11 12//12 13//13
f 14//14 15//15 16//16
f 10//10 9//9 17//17
f 17//17 9//9 18//18
f 17//17 18//18 13//13
f 13//13 18//18 14//14
f 13//13 14//14 11//11
f 11//11 14//14 16//16
f 11//11 16//16 19//19
f 20//20 21//21 22//22
f 22//22 21//21 23//23
f 22//22 24//24 20//20
f 20//20 24//24 25//25
f 26//26 27//27 24//24
f 24//24 27//27 25//25
f 28//28 29//29 30//30
f 27//27 26//26 31//31
f 31//31 26//26 30//30
f 31//31 30//30 32//32
f 32//32 30//30 29//29
f 32//32 29//29 33//33
f 34//34 35//35 30//30
f 30//30 35//35 36//36
f 30//30 36//36 28//28
f 23//23 21//21 37//37
f 37//37 21//21 38//38
f 39//39 40//40 38//38
f 38//38 40//40 41//41
f 38//38 41//41 42//42
f 43//43 37//37 44//44
f 44//44 37//37 38//38
f 44//44 38//38 45//45
f 45//45 38//38 42//42
f 46//46 2//2 47//47
f 47//47 2//2 1//1
f 46//46 48//48 2//2
f 2//2 48//48 49//49
f 2//2 49//49 50//50
f 38//38 17//17 13//13
f 38//38 13//13 39//39
f 39//39 13//13 51//51
f 39//39 51//51 52//52
f 52//52 51//51 11//11
f 52//52 11//11 41//41
f 41//41 11//11 19//19
f 41//41 19//19 42//42
f 42//42 19//19 16//16
f 42//42 16//16 45//45
f 45//45 16//16 53//53
f 45//45 53//53 54//54
f 54//54 53//53 14//14
f 54//54 14//14 43//43
f 43//43 14//14 18//18
f 43//43 18//18 37//37
f 37//37 18//18 23//23
f 23//23 18//18 9//9
f 23//23 9//9 22//22
f 22//22 9//9 7//7
f 22//22 7//7 24//24
f 24//24 7//7 3//3
f 24//24 3//3 26//26
f 26//26 3//3 2//2
f 26//26 2//2 30//30
f 30//30 2//2 50//50
f 30//30 50//50 55//55
f 30//30 55//55 56//56
f 30//30 56//56 34//34
f 34//34 56//56 57//57
f 34//34 57//57 35//35
f 17//17 38//38 10//10
f 10//10 38//38 21//21
f 10//10 21//21 8//8
f 8//8 21//21 20//20
f 8//8 20//20 5//5
f 5//5 20//20 25//25
f 5//5 25//25 6//6
f 6//6 25//25 27//27
f 6//6 27//27 58//58
f 58//58 27//27 31//31
f 58//58 31//31 59//59
f 6//6 58//58 60//60
f 60//60 61//61 6//6
f 6//6 61//61 62//62
f 6//6 62//62 4//4
f 63//63 64//64 65//65
f 65//65 64//64 66//66
f 64//64 63//63 67//67
f 64//64 67//67 68//68
f 68//68 67//67 69//69
f 68//68 69//69 70//70
f 70//70 69//69 71//71
f 70//70 71//71 72//72
f 72//72 71//71 73//73
f 72//72 73//73 74//74
f 74//74 73//73 75//75
f 74//74 75//75 76//76
f 76//76 75//75 77//77
f 76//76 77//77 78//78
f 79//79 80//80 81//81
f 81//81 80//80 82//82
f 83//83 84//84 85//85
f 85//85 84//84 86//86
f 85//85 86//86 82//82
f 82//82 86//86 81//81
f 84//84 83//83 87//87
f 87//87 83//83 88//88
f 87//87 88//88 89//89
f 89//89 88//88 90//90
f 89//89 90//90 91//91
f 91//91 90//90 92//92
f 93//93 94//94 92//92
f 92//92 94//94 91//91
f 94//94 93//93 95//95
f 95//95 93//93 96//96
f 95//95 96//96 97//97
f 97//97 96//96 98//98
f 97//97 98//98 99//99
f 99//99 98//98 100//100
f 99//99 100//100 101//101
f 101//101 100//100 102//102
f 101//101 102//102 103//103
f 104//104 105//105 106//106
f 106//106 105//105 107//107
f 105//105 104//104 108//108
f 108//108 104//104 109//109
f 110//110 111//111 109//109
f 109//109 111//111 108//108
f 111//111 110//110 112//112
f 112//112 110//110 113//113
f 114//114 115//115 113//113
f 113//113 115//115 116//116
f 113//113 116//116 112//112
f 115//115 114//114 117//117
f 117//117 114//114 118//118
f 117//117 118//118 119//119
f 119//119 118//118 120//120
f 119//119 120//120 121//121
f 121//121 120//120 122//122
f 121//121 122//122 123//123
f 123//123 122//122 124//124
f 124//124 125//125 123//123
f 123//123 125//125 126//126
f 127//127 128//128 129//129
f 129//129 128//128 130//130
f 129//129 130//130 131//131
f 131//131 130//130 126//126
f 131//131 126//126 132//132
f 132//132 126//126 125//125
f 128//128 127//127 133//133
f 128//128 133//133 134//134
f 134//134 133//133 135//135
f 134//134 135//135 136//136
f 136//136 135//135 137//137
f 136//136 137//137 138//138
f 138//138 137//137 139//139
f 138//138 139//139 140//140
f 140//140 139//139 141//141
f 141//141 139//139 142//142
f 143//143 144//144 145//145
f 145//145 144//144 146//146
f 147//147 148//148 149//149
f 147//147 149//149 150//150
f 150//150 149//149 151//151
f 150//150 151//151 152//152
f 152//152 151//151 153//153
f 152//152 153//153 154//154
f 154//154 153//153 144//144
f 154//154 144//144 143//143
f 155//155 156//156 157//157
f 157//157 156//156 158//158
f 148//148 147//147 159//159
f 159//159 147//147 160//160
f 159//159 160//160 161//161
f 161//161 160//160 158//158
f 161//161 158//158 162//162
f 162//162 158//158 156//156
f 155//155 157//157 163//163
f 163//163 157//157 164//164
f 163//163 164//164 165//165
f 165//165 164//164 166//166
f 165//165 166//166 167//167
f 167//167 166//166 168//168
f 167//167 168//168 169//169
f 169//169 168//168 170//170
f 171//171 172//172 170//170
f 170//170 172//172 169//169
f 172//172 171//171 173//173
f 173//173 171//171 174//174
f 173//173 174//174 175//175
f 175//175 174//174 176//176
f 175//175 176//176 177//177
f 177//177 176//176 178//178
f 49//49 179//179 50//50
f 50//50 179//179 177//177
f 50//50 177//177 178//178
f 180//180 181//181 182//182
f 180//180 182//182 183//183
f 183//183 182//182 184//184
f 183//183 184//184 185//185
f 181//181 180//180 186//186
f 186//186 180//180 187//187
f 186//186 187//187 188//188
f 188//188 187//187 189//189
f 188//188 189//189 190//190
f 190//190 189//189 191//191
f 190//190 191//191 192//192
f 192//192 191//191 193//193
f 194//194 195//195 196//196
f 196//196 195//195 192//192
f 196//196 192//192 193//193
f 195//195 194//194 197//197
f 197//197 194//194 198//198
f 199//199 200//200 201//201
f 201//201 200//200 202//202
f 201//201 202//202 198//198
f 198//198 202//202 197//197
f 200//200 199//199 203//203
f 203//203 199//199 204//204
f 205//205 206//206 207//207
f 205//205 207//207 208//208
f 208//208 207//207 209//209
f 208//208 209//209 210//210
f 211//211 212//212 213//213
f 211//211 213//213 214//214
f 214//214 213//213 215//215
f 214//214 215//215 216//216
f 216//216 215//215 217//217
f 216//216 217//217 218//218
f 218//218 217//217 206//206
f 218//218 206//206 205//205
f 212//212 211//211 219//219
f 219//219 211//211 220//220
f 221//221 222//222 223//223
f 223//223 224//224 225//225
f 226//226 227//227 223//223
f 223//223 227//227 228//228
f 223//223 228//228 229//229
f 230//230 226//226 231//231
f 231//231 226//226 223//223
f 231//231 223//223 232//232
f 232//232 223//223 222//222
f 233//233 221//221 234//234
f 234//234 221//221 223//223
f 234//234 223//223 235//235
f 235//235 223//223 225//225
f 235//235 225//225 236//236
f 223//223 237//237 238//238
f 223//223 238//238 224//224
f 224//224 238//238 239//239
f 224//224 239//239 225//225
f 225//225 239//239 240//240
f 225//225 240//240 236//236
f 236//236 240//240 241//241
f 236//236 241//241 235//235
f 235//235 241//241 242//242
f 235//235 242//242 234//234
f 234//234 242//242 243//243
f 234//234 243//243 233//233
f 233//233 243//243 244//244
f 233//233 244//244 221//221
f 221//221 244//244 245//245
f 221//221 245//245 222//222
f 246//246 247//247 248//248
f 246//246 248//248 249//249
f 250//250 251//251 252//252
f 252//252 251//251 253//253
f 252//252 253//253 254//254
f 254//254 253//253 255//255
f 254//254 255//255 256//256
f 256//256 255//255 257//257
f 256//256 257//257 258//258
f 258//258 257//257 259//259
f 258//258 259//259 260//260
f 249//249 248//248 261//261
f 261//261 248//248 262//262
f 261//261 262//262 263//263
f 259//259 264//264 265//265
f 265//265 264//264 266//266
f 265//265 266//266 237//237
f 237//237 266//266 267//267
f 237//237 267//267 238//238
f 238//238 267//267 268//268
f 238//238 268//268 239//239
f 239//239 268//268 269//269
f 239//239 269//269 240//240
f 240//240 269//269 270//270
f 240//240 270//270 241//241
f 241//241 270//270 271//271
f 241//241 271//271 242//242
f 242//242 271//271 272//272
f 242//242 272//272 243//243
f 243//243 272//272 273//273
f 243//243 273//273 244//244
f 244//244 273//273 274//274
f 244//244 274//274 245//245
f 245//245 274//274 275//275
f 245//245 275//275 276//276
f 265//265 277//277 259//259
f 259//259 277//277 278//278
f 259//259 278//278 260//260
f 260//260 278//278 279//279
f 260//260 279//279 280//280
f 262//262 260//260 263//263
f 263//263 260//260 280//280
f 263//263 280//280 281//281
f 281//281 280//280 282//282
f 281//281 282//282 283//283
f 283//283 282//282 276//276
f 283//283 276//276 284//284
f 284//284 276//276 275//275
f 250//250 73//73 71//71
f 250//250 71//71 251//251
f 251//251 71//71 69//69
f 251//251 69//69 253//253
f 253//253 69//69 67//67
f 253//253 67//67 255//255
f 255//255 67//67 63//63
f 255//255 63//63 257//257
f 65//65 259//259 63//63
f 63//63 259//259 257//257
f 259//259 65//65 264//264
f 264//264 65//65 66//66
f 264//264 66//66 285//285
f 285//285 286//286 264//264
f 264//264 286//286 266//266
f 266//266 286//286 267//267
f 267//267 286//286 287//287
f 288//288 289//289 284//284
f 284//284 289//289 283//283
f 142//142 281//281 141//141
f 141//141 281//281 283//283
f 141//141 283//283 289//289
f 139//139 263//263 142//142
f 142//142 263//263 281//281
f 263//263 139//139 137//137
f 263//263 137//137 261//261
f 261//261 137//137 135//135
f 261//261 135//135 249//249
f 249//249 135//135 133//133
f 249//249 133//133 246//246
f 246//246 133//133 127//127
f 246//246 127//127 247//247
f 290//290 291//291 292//292
f 293//293 294//294 295//295
f 295//295 294//294 296//296
f 295//295 296//296 297//297
f 298//298 299//299 295//295
f 295//295 299//299 300//300
f 295//295 300//300 301//301
f 290//290 292//292 302//302
f 297//297 303//303 295//295
f 295//295 303//303 304//304
f 295//295 304//304 298//298
f 302//302 292//292 295//295
f 295//295 292//292 305//305
f 295//295 305//305 293//293
f 296//296 306//306 307//307
f 296//296 307//307 297//297
f 297//297 307//307 308//308
f 297//297 308//308 303//303
f 303//303 308//308 309//309
f 303//303 309//309 304//304
f 304//304 309//309 310//310
f 304//304 310//310 298//298
f 298//298 310//310 311//311
f 298//298 311//311 299//299
f 299//299 311//311 312//312
f 299//299 312//312 300//300
f 300//300 312//312 313//313
f 300//300 313//313 301//301
f 301//301 313//313 314//314
f 301//301 314//314 295//295
f 315//315 316//316 317//317
f 317//317 316//316 318//318
f 318//318 316//316 319//319
f 319//319 316//316 320//320
f 319//319 320//320 321//321
f 321//321 320//320 322//322
f 321//321 322//322 323//323
f 323//323 322//322 324//324
f 323//323 324//324 325//325
f 326//326 327//327 328//328
f 328//328 327//327 329//329
f 328//328 329//329 330//330
f 330//330 329//329 331//331
f 330//330 331//331 325//325
f 325//325 331//331 332//332
f 325//325 332//332 333//333
f 334//334 335//335 336//336
f 336//336 335//335 323//323
f 336//336 323//323 337//337
f 337//337 323//323 325//325
f 338//338 339//339 333//333
f 333//333 339//339 340//340
f 333//333 340//340 325//325
f 325//325 340//340 341//341
f 325//325 341//341 337//337
f 333//333 342//342 338//338
f 338//338 342//342 343//343
f 338//338 343//343 306//306
f 306//306 343//343 344//344
f 306//306 344//344 307//307
f 307//307 344//344 345//345
f 307//307 345//345 308//308
f 308//308 345//345 346//346
f 308//308 346//346 309//309
f 309//309 346//346 347//347
f 309//309 347//347 310//310
f 310//310 347//347 348//348
f 310//310 348//348 311//311
f 311//311 348//348 349//349
f 311//311 349//349 312//312
f 312//312 349//349 350//350
f 312//312 350//350 313//313
f 313//313 350//350 351//351
f 313//313 351//351 314//314
f 314//314 351//351 352//352
f 314//314 352//352 334//334
f 334//334 352//352 353//353
f 334//334 353//353 335//335
f 219//219 333//333 212//212
f 212//212 333//333 332//332
f 333//333 219//219 342//342
f 342//342 219//219 220//220
f 342//342 220//220 354//354
f 354//354 355//355 342//342
f 342//342 355//355 343//343
f 343//343 355//355 344//344
f 344//344 355//355 356//356
f 357//357 358//358 353//353
f 353//353 358//358 335//335
f 146//146 323//323 145//145
f 145//145 323//323 335//335
f 145//145 335//335 358//358
f 144//144 321//321 146//146
f 146//146 321//321 323//323
f 321//321 144//144 153//153
f 321//321 153//153 319//319
f 319//319 153//153 151//151
f 319//319 151//151 318//318
f 318//318 151//151 149//149
f 318//318 149//149 317//317
f 317//317 149//149 148//148
f 317//317 148//148 315//315
f 326//326 206//206 217//217
f 326//326 217//217 327//327
f 327//327 217//217 215//215
f 327//327 215//215 329//329
f 329//329 215//215 213//213
f 329//329 213//213 331//331
f 331//331 213//213 212//212
f 331//331 212//212 332//332
f 186//186 104//104 181//181
f 181//181 104//104 106//106
f 179//179 98//98 177//177
f 177//177 98//98 96//96
f 174//174 171//171 193//193
f 55//55 50//50 178//178
f 55//55 193//193 56//56
f 56//56 193//193 191//191
f 56//56 191//191 57//57
f 57//57 191//191 189//189
f 359//359 58//58 59//59
f 55//55 178//178 193//193
f 193//193 178//178 176//176
f 193//193 176//176 174//174
f 359//359 59//59 360//360
f 360//360 59//59 361//361
f 360//360 361//361 185//185
f 185//185 361//361 362//362
f 185//185 362//362 183//183
f 183//183 362//362 363//363
f 183//183 363//363 180//180
f 180//180 363//363 187//187
f 187//187 363//363 364//364
f 187//187 364//364 189//189
f 189//189 364//364 365//365
f 189//189 365//365 57//57
f 194//194 196//196 170//170
f 170//170 196//196 193//193
f 170//170 193//193 171//171
f 168//168 198//198 170//170
f 170//170 198//198 194//194
f 198//198 168//168 166//166
f 198//198 166//166 201//201
f 201//201 166//166 164//164
f 201//201 164//164 199//199
f 121//121 366//366 367//367
f 121//121 367//367 81//81
f 140//140 141//141 289//289
f 130//130 288//288 126//126
f 126//126 288//288 368//368
f 126//126 368//368 123//123
f 123//123 368//368 369//369
f 123//123 369//369 121//121
f 121//121 369//369 370//370
f 121//121 370//370 366//366
f 367//367 371//371 81//81
f 81//81 371//371 372//372
f 81//81 372//372 79//79
f 79//79 372//372 373//373
f 79//79 373//373 78//78
f 78//78 373//373 287//287
f 78//78 287//287 76//76
f 76//76 287//287 286//286
f 76//76 286//286 285//285
f 128//128 134//134 136//136
f 285//285 66//66 76//76
f 76//76 66//66 64//64
f 76//76 64//64 74//74
f 136//136 138//138 128//128
f 128//128 138//138 140//140
f 128//128 140//140 130//130
f 130//130 140//140 289//289
f 130//130 289//289 288//288
f 68//68 70//70 64//64
f 64//64 70//70 72//72
f 64//64 72//72 74//74
f 121//121 81//81 86//86
f 121//121 86//86 119//119
f 119//119 86//86 84//84
f 119//119 84//84 117//117
f 87//87 115//115 84//84
f 84//84 115//115 117//117
f 115//115 87//87 116//116
f 116//116 87//87 89//89
f 116//116 89//89 112//112
f 181//181 106//106 374//374
f 181//181 374//374 182//182
f 182//182 374//374 375//375
f 182//182 375//375 184//184
f 188//188 109//109 186//186
f 186//186 109//109 104//104
f 190//190 110//110 188//188
f 188//188 110//110 109//109
f 203//203 124//124 200//200
f 200//200 124//124 122//122
f 122//122 120//120 200//200
f 200//200 120//120 118//118
f 200//200 118//118 202//202
f 202//202 118//118 114//114
f 202//202 114//114 197//197
f 110//110 190//190 113//113
f 113//113 190//190 192//192
f 113//113 192//192 114//114
f 114//114 192//192 195//195
f 114//114 195//195 197//197
f 80//80 155//155 82//82
f 82//82 155//155 163//163
f 169//169 85//85 167//167
f 167//167 85//85 82//82
f 167//167 82//82 165//165
f 165//165 82//82 163//163
f 172//172 173//173 92//92
f 92//92 90//90 172//172
f 172//172 90//90 88//88
f 172//172 88//88 169//169
f 169//169 88//88 83//83
f 169//169 83//83 85//85
f 175//175 93//93 173//173
f 173//173 93//93 92//92
f 177//177 96//96 175//175
f 175//175 96//96 93//93
f 376//376 199//199 377//377
f 377//377 199//199 164//164
f 377//377 164//164 378//378
f 376//376 379//379 199//199
f 199//199 379//379 380//380
f 199//199 380//380 204//204
f 204//204 380//380 381//381
f 204//204 381//381 210//210
f 210//210 381//381 356//356
f 210//210 356//356 208//208
f 208//208 356//356 355//355
f 208//208 355//355 354//354
f 378//378 164//164 382//382
f 382//382 164//164 157//157
f 382//382 157//157 383//383
f 383//383 157//157 158//158
f 383//383 158//158 357//357
f 357//357 158//158 160//160
f 357//357 160//160 358//358
f 358//358 160//160 143//143
f 358//358 143//143 145//145
f 152//152 154//154 150//150
f 150//150 154//154 143//143
f 150//150 143//143 147//147
f 147//147 143//143 160//160
f 216//216 218//218 214//214
f 214//214 218//218 205//205
f 214//214 205//205 211//211
f 211//211 205//205 208//208
f 211//211 208//208 220//220
f 220//220 208//208 354//354
f 80//80 77//77 155//155
f 155//155 77//77 156//156
f 384//384 1//1 385//385
f 385//385 1//1 4//4
f 97//97 386//386 95//95
f 95//95 386//386 94//94
f 386//386 387//387 94//94
f 94//94 387//387 388//388
f 94//94 388//388 91//91
f 91//91 388//388 389//389
f 91//91 389//389 89//89
f 89//89 389//389 390//390
f 111//111 112//112 89//89
f 391//391 107//107 392//392
f 392//392 107//107 390//390
f 390//390 107//107 105//105
f 390//390 105//105 89//89
f 89//89 105//105 108//108
f 89//89 108//108 111//111
f 391//391 392//392 393//393
f 393//393 392//392 394//394
f 393//393 394//394 395//395
f 395//395 394//394 396//396
f 395//395 396//396 397//397
f 397//397 396//396 398//398
f 397//397 398//398 399//399
f 400//400 401//401 402//402
f 402//402 401//401 403//403
f 400//400 404//404 405//405
f 400//400 405//405 401//401
f 401//401 405//405 406//406
f 401//401 406//406 407//407
f 408//408 406//406 409//409
f 409//409 406//406 405//405
f 408//408 409//409 410//410
f 410//410 409//409 411//411
f 412//412 413//413 414//414
f 410//410 411//411 413//413
f 413//413 411//411 415//415
f 413//413 415//415 414//414
f 416//416 417//417 418//418
f 414//414 419//419 412//412
f 412//412 419//419 416//416
f 412//412 416//416 420//420
f 420//420 416//416 418//418
f 421//421 422//422 423//423
f 423//423 422//422 424//424
f 425//425 424//424 426//426
f 426//426 424//424 422//422
f 425//425 426//426 427//427
f 427//427 426//426 428//428
f 427//427 428//428 429//429
f 429//429 428//428 430//430
f 430//430 431//431 429//429
f 429//429 431//431 432//432
f 429//429 432//432 433//433
f 434//434 435//435 436//436
f 436//436 435//435 429//429
f 436//436 429//429 437//437
f 437//437 429//429 433//433
f 421//421 423//423 438//438
f 438//438 423//423 439//439
f 440//440 441//441 442//442
f 442//442 441//441 443//443
f 444//444 438//438 445//445
f 445//445 438//438 439//439
f 445//445 439//439 443//443
f 443//443 439//439 446//446
f 443//443 446//446 442//442
f 439//439 413//413 412//412
f 439//439 412//412 446//446
f 446//446 412//412 447//447
f 446//446 447//447 448//448
f 448//448 447//447 418//418
f 448//448 418//418 440//440
f 440//440 418//418 417//417
f 440//440 417//417 441//441
f 441//441 417//417 416//416
f 441//441 416//416 443//443
f 443//443 416//416 449//449
f 443//443 449//449 450//450
f 450//450 449//449 414//414
f 450//450 414//414 444//444
f 444//444 414//414 415//415
f 444//444 415//415 438//438
f 413//413 439//439 410//410
f 410//410 439//439 423//423
f 410//410 423//423 408//408
f 408//408 423//423 424//424
f 408//408 424//424 406//406
f 406//406 424//424 425//425
f 406//406 425//425 407//407
f 407//407 425//425 427//427
f 407//407 427//427 97//97
f 97//97 427//427 429//429
f 97//97 429//429 386//386
f 430//430 398//398 396//396
f 430//430 396//396 431//431
f 431//431 396//396 394//394
f 431//431 394//394 432//432
f 432//432 394//394 392//392
f 432//432 392//392 433//433
f 433//433 392//392 390//390
f 433//433 390//390 437//437
f 437//437 390//390 389//389
f 437//437 389//389 436//436
f 436//436 389//389 388//388
f 436//436 388//388 434//434
f 438//438 415//415 421//421
f 421//421 415//415 411//411
f 421//421 411//411 422//422
f 422//422 411//411 409//409
f 422//422 409//409 426//426
f 426//426 409//409 405//405
f 426//426 405//405 428//428
f 428//428 405//405 404//404
f 428//428 404//404 430//430
f 430//430 404//404 399//399
f 430//430 399//399 398//398
f 401//401 407//407 451//451
f 451//451 407//407 103//103
f 97//97 99//99 407//407
f 407//407 99//99 101//101
f 407//407 101//101 103//103
f 404//404 400//400 452//452
f 452//452 453//453 404//404
f 404//404 453//453 454//454
f 404//404 454//454 399//399
f 434//434 388//388 387//387
f 434//434 387//387 435//435
f 435//435 387//387 386//386
f 435//435 386//386 429//429
f 125//125 124//124 209//209
f 209//209 124//124 203//203
f 132//132 125//125 209//209
f 315//315 148//148 159//159
f 75//75 73//73 250//250
f 250//250 252//252 316//316
f 316//316 252//252 254//254
f 316//316 254//254 320//320
f 320//320 254//254 256//256
f 320//320 256//256 322//322
f 322//322 256//256 258//258
f 322//322 258//258 324//324
f 324//324 258//258 260//260
f 324//324 260//260 325//325
f 325//325 260//260 262//262
f 325//325 262//262 330//330
f 330//330 262//262 248//248
f 330//330 248//248 328//328
f 207//207 206//206 326//326
f 328//328 248//248 326//326
f 326//326 248//248 247//247
f 326//326 247//247 207//207
f 316//316 315//315 250//250
f 250//250 315//315 159//159
f 250//250 159//159 75//75
f 75//75 159//159 161//161
f 75//75 161//161 77//77
f 77//77 161//161 162//162
f 77//77 162//162 156//156
f 132//132 209//209 131//131
f 131//131 209//209 207//207
f 131//131 207//207 129//129
f 129//129 207//207 247//247
f 129//129 247//247 127//127
f 184//184 375//375 455//455
f 184//184 455//455 456//456
f 456//456 455//455 457//457
f 456//456 457//457 458//458
f 458//458 457//457 459//459
f 458//458 459//459 460//460
f 460//460 459//459 461//461
f 460//460 461//461 462//462
f 462//462 461//461 463//463
f 462//462 463//463 464//464
f 464//464 463//463 465//465
f 464//464 465//465 466//466
f 466//466 465//465 467//467
f 466//466 467//467 468//468
f 468//468 467//467 469//469
f 468//468 469//469 470//470
f 470//470 469//469 102//102
f 470//470 102//102 471//471
f 471//471 102//102 100//100
f 471//471 100//100 472//472
f 472//472 100//100 98//98
f 472//472 98//98 179//179
f 352//352 383//383 353//353
f 353//353 383//383 357//357
f 344//344 356//356 345//345
f 345//345 356//356 381//381
f 345//345 381//381 346//346
f 346//346 381//381 380//380
f 346//346 380//380 347//347
f 347//347 380//380 379//379
f 347//347 379//379 348//348
f 348//348 379//379 376//376
f 348//348 376//376 349//349
f 349//349 376//376 377//377
f 349//349 377//377 350//350
f 350//350 377//377 378//378
f 350//350 378//378 351//351
f 351//351 378//378 382//382
f 351//351 382//382 352//352
f 352//352 382//382 383//383
f 295//295 314//314 334//334
f 295//295 334//334 302//302
f 302//302 334//334 336//336
f 302//302 336//336 290//290
f 290//290 336//336 337//337
f 290//290 337//337 291//291
f 291//291 337//337 341//341
f 291//291 341//341 292//292
f 292//292 341//341 340//340
f 292//292 340//340 305//305
f 305//305 340//340 339//339
f 305//305 339//339 293//293
f 293//293 339//339 338//338
f 293//293 338//338 294//294
f 294//294 338//338 306//306
f 294//294 306//306 296//296
f 275//275 368//368 284//284
f 284//284 368//368 288//288
f 267//267 287//287 268//268
f 268//268 287//287 373//373
f 268//268 373//373 269//269
f 269//269 373//373 372//372
f 269//269 372//372 270//270
f 270//270 372//372 371//371
f 270//270 371//371 271//271
f 271//271 371//371 367//367
f 271//271 367//367 272//272
f 272//272 367//367 366//366
f 272//272 366//366 273//273
f 273//273 366//366 370//370
f 273//273 370//370 274//274
f 274//274 370//370 369//369
f 274//274 369//369 275//275
f 275//275 369//369 368//368
f 222//222 245//245 276//276
f 222//222 276//276 232//232
f 232//232 276//276 282//282
f 232//232 282//282 231//231
f 231//231 282//282 280//280
f 231//231 280//280 230//230
f 230//230 280//280 279//279
f 230//230 279//279 226//226
f 226//226 279//279 278//278
f 226//226 278//278 227//227
f 227//227 278//278 277//277
f 227//227 277//277 228//228
f 228//228 277//277 265//265
f 228//228 265//265 229//229
f 229//229 265//265 237//237
f 229//229 237//237 223//223
f 209//209 203//203 210//210
f 210//210 203//203 204//204
f 185//185 184//184 456//456
f 185//185 456//456 360//360
f 360//360 456//456 458//458
f 360//360 458//458 359//359
f 359//359 458//458 58//58
f 58//58 458//458 460//460
f 58//58 460//460 60//60
f 60//60 460//460 462//462
f 60//60 462//462 61//61
f 61//61 462//462 464//464
f 61//61 464//464 62//62
f 62//62 464//464 4//4
f 4//4 464//464 466//466
f 4//4 466//466 385//385
f 385//385 466//466 468//468
f 385//385 468//468 384//384
f 384//384 468//468 1//1
f 1//1 468//468 470//470
f 1//1 470//470 47//47
f 47//47 470//470 471//471
f 47//47 471//471 46//46
f 46//46 471//471 472//472
f 46//46 472//472 48//48
f 48//48 472//472 179//179
f 48//48 179//179 49//49
f 403//403 467//467 465//465
f 102//102 469//469 103//103
f 103//103 469//469 451//451
f 467//467 403//403 469//469
f 469//469 403//403 401//401
f 469//469 401//401 451//451
f 452//452 400//400 465//465
f 465//465 400//400 402//402
f 465//465 402//402 403//403
f 459//459 453//453 461//461
f 461//461 453//453 452//452
f 461//461 452//452 463//463
f 463//463 452//452 465//465
f 397//397 399//399 459//459
f 459//459 399//399 454//454
f 459//459 454//454 453//453
f 459//459 457//457 397//397
f 397//397 457//457 455//455
f 397//397 455//455 395//395
f 395//395 455//455 375//375
f 395//395 375//375 393//393
f 393//393 375//375 374//374
f 393//393 374//374 391//391
f 391//391 374//374 106//106
f 391//391 106//106 107//107
f 77//77 80//80 78//78
f 78//78 80//80 79//79
f 35//35 57//57 365//365
f 35//35 365//365 36//36
f 36//36 365//365 364//364
f 36//36 364//364 28//28
f 28//28 364//364 363//363
f 28//28 363//363 29//29
f 29//29 363//363 362//362
f 29//29 362//362 33//33
f 33//33 362//362 361//361
f 33//33 361//361 32//32
f 32//32 361//361 59//59
f 32//32 59//59 31//31
# 924 faces, 0 coords texture

# End of File
